G75*
%MOIN*%
%OFA0B0*%
%FSLAX25Y25*%
%IPPOS*%
%LPD*%
%AMOC8*
5,1,8,0,0,1.08239X$1,22.5*
%
%ADD10R,0.04737X0.05131*%
%ADD11R,0.05524X0.05524*%
%ADD12R,0.05131X0.04737*%
%ADD13R,0.07099X0.06312*%
%ADD14R,0.07808X0.04816*%
%ADD15R,0.06312X0.07099*%
%ADD16R,0.03937X0.01772*%
%ADD17R,0.10643X0.08674*%
%ADD18R,0.13792X0.02769*%
%ADD19C,0.04343*%
%ADD20R,0.05328X0.02532*%
%ADD21R,0.05328X0.03280*%
%ADD22R,0.06300X0.02170*%
%ADD23R,0.05524X0.02965*%
%ADD24R,0.07200X0.07200*%
%ADD25OC8,0.07200*%
%ADD26C,0.13398*%
%ADD27C,0.05800*%
D10*
X0126398Y0076174D03*
X0133091Y0076174D03*
X0090744Y0107828D03*
X0090744Y0114520D03*
X0058866Y0148912D03*
X0058866Y0155605D03*
X0079890Y0181835D03*
X0086583Y0181835D03*
X0119260Y0181835D03*
X0125953Y0181835D03*
X0158630Y0181835D03*
X0165323Y0181835D03*
X0198000Y0181835D03*
X0204693Y0181835D03*
X0187744Y0155605D03*
X0187744Y0148912D03*
X0175744Y0148912D03*
X0175744Y0155605D03*
X0143866Y0155605D03*
X0143866Y0148912D03*
X0202398Y0103674D03*
X0209091Y0103674D03*
D11*
X0216898Y0181835D03*
X0225165Y0181835D03*
X0185795Y0181835D03*
X0177528Y0181835D03*
X0146425Y0181835D03*
X0138157Y0181835D03*
X0107055Y0181835D03*
X0098787Y0181835D03*
D12*
X0141398Y0083261D03*
X0148091Y0083261D03*
X0117591Y0076174D03*
X0110898Y0076174D03*
X0103091Y0076174D03*
X0096398Y0076174D03*
X0240148Y0072424D03*
X0246841Y0072424D03*
D13*
X0211650Y0112674D03*
X0199839Y0112674D03*
D14*
X0093866Y0148755D03*
X0093866Y0155763D03*
D15*
X0108866Y0158164D03*
X0108866Y0146353D03*
D16*
X0204228Y0075851D03*
X0204228Y0073292D03*
X0204228Y0070733D03*
X0204228Y0068174D03*
X0204228Y0065615D03*
X0204228Y0063056D03*
X0204228Y0060497D03*
X0227260Y0060497D03*
X0227260Y0063056D03*
X0227260Y0065615D03*
X0227260Y0068174D03*
X0227260Y0070733D03*
X0227260Y0073292D03*
X0227260Y0075851D03*
D17*
X0074378Y0101324D03*
X0052724Y0101324D03*
X0052724Y0136363D03*
X0074378Y0136363D03*
D18*
X0076740Y0125143D03*
X0076740Y0121993D03*
X0076740Y0118843D03*
X0076740Y0115694D03*
X0076740Y0112544D03*
D19*
X0064535Y0110182D03*
X0064535Y0127505D03*
D20*
X0201906Y0127099D03*
X0201906Y0130249D03*
X0209583Y0130249D03*
X0209583Y0127099D03*
X0209583Y0147099D03*
X0209583Y0150249D03*
X0201906Y0150249D03*
X0201906Y0147099D03*
X0201906Y0090249D03*
X0201906Y0087099D03*
X0209583Y0087099D03*
X0209583Y0090249D03*
D21*
X0209583Y0093772D03*
X0201906Y0093772D03*
X0201906Y0083576D03*
X0209583Y0083576D03*
X0209583Y0123576D03*
X0201906Y0123576D03*
X0201906Y0133772D03*
X0209583Y0133772D03*
X0209583Y0143576D03*
X0201906Y0143576D03*
X0201906Y0153772D03*
X0209583Y0153772D03*
D22*
X0176638Y0124308D03*
X0176638Y0121749D03*
X0176638Y0119190D03*
X0176638Y0116631D03*
X0176638Y0114072D03*
X0176638Y0111513D03*
X0176638Y0108954D03*
X0176638Y0106394D03*
X0176638Y0103835D03*
X0176638Y0101276D03*
X0176638Y0098717D03*
X0176638Y0096158D03*
X0176638Y0093599D03*
X0176638Y0091040D03*
X0147850Y0091040D03*
X0147850Y0093599D03*
X0147850Y0096158D03*
X0147850Y0098717D03*
X0147850Y0101276D03*
X0147850Y0103835D03*
X0147850Y0106394D03*
X0147850Y0108954D03*
X0147850Y0111513D03*
X0147850Y0114072D03*
X0147850Y0116631D03*
X0147850Y0119190D03*
X0147850Y0121749D03*
X0147850Y0124308D03*
X0127138Y0124308D03*
X0127138Y0121749D03*
X0127138Y0119190D03*
X0127138Y0116631D03*
X0127138Y0114072D03*
X0127138Y0111513D03*
X0127138Y0108954D03*
X0127138Y0106394D03*
X0127138Y0103835D03*
X0127138Y0101276D03*
X0127138Y0098717D03*
X0127138Y0096158D03*
X0127138Y0093599D03*
X0127138Y0091040D03*
X0098350Y0091040D03*
X0098350Y0093599D03*
X0098350Y0096158D03*
X0098350Y0098717D03*
X0098350Y0101276D03*
X0098350Y0103835D03*
X0098350Y0106394D03*
X0098350Y0108954D03*
X0098350Y0111513D03*
X0098350Y0114072D03*
X0098350Y0116631D03*
X0098350Y0119190D03*
X0098350Y0121749D03*
X0098350Y0124308D03*
D23*
X0083984Y0148519D03*
X0083984Y0152259D03*
X0083984Y0155999D03*
X0073748Y0155999D03*
X0073748Y0148519D03*
X0119626Y0148519D03*
X0119626Y0152259D03*
X0119626Y0155999D03*
X0129862Y0155999D03*
X0129862Y0148519D03*
X0156858Y0148519D03*
X0156858Y0152259D03*
X0156858Y0155999D03*
X0167094Y0155999D03*
X0167094Y0148519D03*
D24*
X0251622Y0098843D03*
X0141976Y0059788D03*
D25*
X0151976Y0059788D03*
X0161976Y0059788D03*
X0171976Y0059788D03*
X0181976Y0059788D03*
X0241622Y0098843D03*
X0241622Y0108843D03*
X0251622Y0108843D03*
X0251622Y0118843D03*
X0241622Y0118843D03*
X0241622Y0128843D03*
X0251622Y0128843D03*
X0251622Y0138843D03*
X0241622Y0138843D03*
D26*
X0059614Y0061757D03*
X0059614Y0175930D03*
X0264339Y0175930D03*
X0264339Y0061757D03*
D27*
X0154744Y0092174D03*
X0167744Y0124674D03*
X0136991Y0156009D03*
X0067244Y0154424D03*
M02*
