G75*
%MOIN*%
%OFA0B0*%
%FSLAX25Y25*%
%IPPOS*%
%LPD*%
%AMOC8*
5,1,8,0,0,1.08239X$1,22.5*
%
%ADD10R,0.03937X0.04331*%
%ADD11R,0.04724X0.04724*%
%ADD12R,0.04331X0.03937*%
%ADD13R,0.06299X0.05512*%
%ADD14R,0.07008X0.04016*%
%ADD15R,0.05512X0.06299*%
%ADD16R,0.03543X0.01378*%
%ADD17R,0.09843X0.07874*%
%ADD18R,0.12992X0.01969*%
%ADD19R,0.04528X0.01732*%
%ADD20R,0.04528X0.02480*%
%ADD21R,0.05500X0.01370*%
%ADD22R,0.04724X0.02165*%
%ADD23R,0.06400X0.06400*%
%ADD24OC8,0.06400*%
%ADD25C,0.01200*%
%ADD26C,0.01000*%
%ADD27C,0.04000*%
%ADD28C,0.04500*%
%ADD29C,0.01600*%
%ADD30C,0.03200*%
%ADD31C,0.02000*%
%ADD32C,0.02400*%
%ADD33C,0.05000*%
D10*
X0126398Y0076174D03*
X0133091Y0076174D03*
X0090744Y0107828D03*
X0090744Y0114520D03*
X0058866Y0148912D03*
X0058866Y0155605D03*
X0079890Y0181835D03*
X0086583Y0181835D03*
X0119260Y0181835D03*
X0125953Y0181835D03*
X0158630Y0181835D03*
X0165323Y0181835D03*
X0198000Y0181835D03*
X0204693Y0181835D03*
X0187744Y0155605D03*
X0187744Y0148912D03*
X0175744Y0148912D03*
X0175744Y0155605D03*
X0143866Y0155605D03*
X0143866Y0148912D03*
X0202398Y0103674D03*
X0209091Y0103674D03*
D11*
X0216898Y0181835D03*
X0225165Y0181835D03*
X0185795Y0181835D03*
X0177528Y0181835D03*
X0146425Y0181835D03*
X0138157Y0181835D03*
X0107055Y0181835D03*
X0098787Y0181835D03*
D12*
X0141398Y0083261D03*
X0148091Y0083261D03*
X0117591Y0076174D03*
X0110898Y0076174D03*
X0103091Y0076174D03*
X0096398Y0076174D03*
X0240148Y0072424D03*
X0246841Y0072424D03*
D13*
X0211650Y0112674D03*
X0199839Y0112674D03*
D14*
X0093866Y0148755D03*
X0093866Y0155763D03*
D15*
X0108866Y0158164D03*
X0108866Y0146353D03*
D16*
X0204228Y0075851D03*
X0204228Y0073292D03*
X0204228Y0070733D03*
X0204228Y0068174D03*
X0204228Y0065615D03*
X0204228Y0063056D03*
X0204228Y0060497D03*
X0227260Y0060497D03*
X0227260Y0063056D03*
X0227260Y0065615D03*
X0227260Y0068174D03*
X0227260Y0070733D03*
X0227260Y0073292D03*
X0227260Y0075851D03*
D17*
X0074378Y0101324D03*
X0052724Y0101324D03*
X0052724Y0136363D03*
X0074378Y0136363D03*
D18*
X0076740Y0125143D03*
X0076740Y0121993D03*
X0076740Y0118843D03*
X0076740Y0115694D03*
X0076740Y0112544D03*
D19*
X0201906Y0127099D03*
X0201906Y0130249D03*
X0209583Y0130249D03*
X0209583Y0127099D03*
X0209583Y0147099D03*
X0209583Y0150249D03*
X0201906Y0150249D03*
X0201906Y0147099D03*
X0201906Y0090249D03*
X0201906Y0087099D03*
X0209583Y0087099D03*
X0209583Y0090249D03*
D20*
X0209583Y0093772D03*
X0201906Y0093772D03*
X0201906Y0083576D03*
X0209583Y0083576D03*
X0209583Y0123576D03*
X0201906Y0123576D03*
X0201906Y0133772D03*
X0209583Y0133772D03*
X0209583Y0143576D03*
X0201906Y0143576D03*
X0201906Y0153772D03*
X0209583Y0153772D03*
D21*
X0176638Y0124308D03*
X0176638Y0121749D03*
X0176638Y0119190D03*
X0176638Y0116631D03*
X0176638Y0114072D03*
X0176638Y0111513D03*
X0176638Y0108954D03*
X0176638Y0106394D03*
X0176638Y0103835D03*
X0176638Y0101276D03*
X0176638Y0098717D03*
X0176638Y0096158D03*
X0176638Y0093599D03*
X0176638Y0091040D03*
X0147850Y0091040D03*
X0147850Y0093599D03*
X0147850Y0096158D03*
X0147850Y0098717D03*
X0147850Y0101276D03*
X0147850Y0103835D03*
X0147850Y0106394D03*
X0147850Y0108954D03*
X0147850Y0111513D03*
X0147850Y0114072D03*
X0147850Y0116631D03*
X0147850Y0119190D03*
X0147850Y0121749D03*
X0147850Y0124308D03*
X0127138Y0124308D03*
X0127138Y0121749D03*
X0127138Y0119190D03*
X0127138Y0116631D03*
X0127138Y0114072D03*
X0127138Y0111513D03*
X0127138Y0108954D03*
X0127138Y0106394D03*
X0127138Y0103835D03*
X0127138Y0101276D03*
X0127138Y0098717D03*
X0127138Y0096158D03*
X0127138Y0093599D03*
X0127138Y0091040D03*
X0098350Y0091040D03*
X0098350Y0093599D03*
X0098350Y0096158D03*
X0098350Y0098717D03*
X0098350Y0101276D03*
X0098350Y0103835D03*
X0098350Y0106394D03*
X0098350Y0108954D03*
X0098350Y0111513D03*
X0098350Y0114072D03*
X0098350Y0116631D03*
X0098350Y0119190D03*
X0098350Y0121749D03*
X0098350Y0124308D03*
D22*
X0083984Y0148519D03*
X0083984Y0152259D03*
X0083984Y0155999D03*
X0073748Y0155999D03*
X0073748Y0148519D03*
X0119626Y0148519D03*
X0119626Y0152259D03*
X0119626Y0155999D03*
X0129862Y0155999D03*
X0129862Y0148519D03*
X0156858Y0148519D03*
X0156858Y0152259D03*
X0156858Y0155999D03*
X0167094Y0155999D03*
X0167094Y0148519D03*
D23*
X0251622Y0098843D03*
X0141976Y0059788D03*
D24*
X0151976Y0059788D03*
X0161976Y0059788D03*
X0171976Y0059788D03*
X0181976Y0059788D03*
X0241622Y0098843D03*
X0241622Y0108843D03*
X0251622Y0108843D03*
X0251622Y0118843D03*
X0241622Y0118843D03*
X0241622Y0128843D03*
X0251622Y0128843D03*
X0251622Y0138843D03*
X0241622Y0138843D03*
D25*
X0223646Y0123961D02*
X0220508Y0127099D01*
X0209583Y0127099D01*
X0201906Y0127099D02*
X0201906Y0123576D01*
X0195233Y0123576D01*
X0183170Y0111513D01*
X0176638Y0111513D01*
X0176638Y0114072D02*
X0182229Y0114072D01*
X0195591Y0127434D01*
X0195591Y0128934D01*
X0196906Y0130249D01*
X0201906Y0130249D01*
X0201906Y0133772D01*
X0192891Y0128234D02*
X0192891Y0139834D01*
X0196633Y0143576D01*
X0201906Y0143576D01*
X0201906Y0147099D01*
X0201906Y0150249D02*
X0198291Y0150134D01*
X0195391Y0150134D01*
X0190391Y0145134D01*
X0190391Y0129334D01*
X0180247Y0119190D01*
X0176638Y0119190D01*
X0176638Y0121749D02*
X0171319Y0121749D01*
X0169244Y0119674D01*
X0169244Y0115674D01*
X0176638Y0116631D02*
X0181288Y0116631D01*
X0192891Y0128234D01*
X0187744Y0130174D02*
X0181878Y0124308D01*
X0176638Y0124308D01*
X0168110Y0124308D01*
X0167744Y0124674D01*
X0161976Y0128906D02*
X0152260Y0119190D01*
X0147850Y0119190D01*
X0147850Y0121749D02*
X0151069Y0121749D01*
X0156858Y0127538D01*
X0156858Y0141009D01*
X0156858Y0142674D01*
X0122244Y0142674D01*
X0119626Y0145293D01*
X0119626Y0145293D01*
X0119626Y0148519D01*
X0120741Y0156009D02*
X0083866Y0156009D01*
X0083866Y0166009D01*
X0088866Y0171009D01*
X0155116Y0171009D01*
X0157616Y0168509D01*
X0157616Y0156009D01*
X0154491Y0156009D01*
X0154491Y0161634D01*
X0150116Y0166009D01*
X0123866Y0166009D01*
X0120741Y0162884D01*
X0120741Y0156009D01*
X0120741Y0156272D02*
X0083866Y0156272D01*
X0083866Y0157470D02*
X0120741Y0157470D01*
X0120741Y0158669D02*
X0083866Y0158669D01*
X0083866Y0159867D02*
X0120741Y0159867D01*
X0120741Y0161066D02*
X0083866Y0161066D01*
X0083866Y0162264D02*
X0120741Y0162264D01*
X0121320Y0163463D02*
X0083866Y0163463D01*
X0083866Y0164661D02*
X0122519Y0164661D01*
X0123717Y0165860D02*
X0083866Y0165860D01*
X0084916Y0167058D02*
X0157616Y0167058D01*
X0157616Y0165860D02*
X0150265Y0165860D01*
X0151464Y0164661D02*
X0157616Y0164661D01*
X0157616Y0163463D02*
X0152662Y0163463D01*
X0153861Y0162264D02*
X0157616Y0162264D01*
X0157616Y0161066D02*
X0154491Y0161066D01*
X0154491Y0159867D02*
X0157616Y0159867D01*
X0157616Y0158669D02*
X0154491Y0158669D01*
X0154491Y0157470D02*
X0157616Y0157470D01*
X0157616Y0156272D02*
X0154491Y0156272D01*
X0156858Y0148519D02*
X0156858Y0142674D01*
X0161976Y0128906D02*
X0161976Y0175930D01*
X0158630Y0179276D01*
X0158630Y0181835D01*
X0165323Y0181835D02*
X0171819Y0181835D01*
X0177528Y0181835D01*
X0155471Y0170654D02*
X0088511Y0170654D01*
X0087313Y0169455D02*
X0156669Y0169455D01*
X0157616Y0168257D02*
X0086114Y0168257D01*
X0079890Y0172032D02*
X0067244Y0159387D01*
X0067244Y0154424D01*
X0067291Y0154471D01*
X0090741Y0147853D02*
X0090763Y0147906D01*
X0091366Y0148509D01*
X0096367Y0148509D01*
X0096991Y0147884D01*
X0096991Y0136009D01*
X0085741Y0124759D01*
X0084000Y0124759D01*
X0083982Y0124777D01*
X0070741Y0124777D01*
X0070741Y0127883D01*
X0071367Y0128509D01*
X0083241Y0128509D01*
X0090741Y0136009D01*
X0090741Y0147853D01*
X0090754Y0147882D02*
X0096991Y0147882D01*
X0096991Y0146684D02*
X0090741Y0146684D01*
X0090741Y0145485D02*
X0096991Y0145485D01*
X0096991Y0144287D02*
X0090741Y0144287D01*
X0090741Y0143088D02*
X0096991Y0143088D01*
X0096991Y0141890D02*
X0090741Y0141890D01*
X0090741Y0140691D02*
X0096991Y0140691D01*
X0096991Y0139493D02*
X0090741Y0139493D01*
X0090741Y0138294D02*
X0096991Y0138294D01*
X0096991Y0137096D02*
X0090741Y0137096D01*
X0090630Y0135897D02*
X0096880Y0135897D01*
X0095681Y0134698D02*
X0089431Y0134698D01*
X0088233Y0133500D02*
X0094483Y0133500D01*
X0093284Y0132301D02*
X0087034Y0132301D01*
X0085836Y0131103D02*
X0092086Y0131103D01*
X0090887Y0129904D02*
X0084637Y0129904D01*
X0083439Y0128706D02*
X0089689Y0128706D01*
X0088490Y0127507D02*
X0070741Y0127507D01*
X0070741Y0126309D02*
X0087292Y0126309D01*
X0086093Y0125110D02*
X0070741Y0125110D01*
X0072973Y0125127D02*
X0076740Y0125143D01*
X0076740Y0121993D02*
X0087550Y0121993D01*
X0092791Y0127234D01*
X0103091Y0127234D01*
X0104691Y0125634D01*
X0104691Y0123534D01*
X0102906Y0121749D01*
X0098350Y0121749D01*
X0098350Y0124308D02*
X0093291Y0124308D01*
X0090817Y0121834D01*
X0090791Y0121834D01*
X0087801Y0118843D01*
X0076740Y0118843D01*
X0090744Y0118174D02*
X0090744Y0114520D01*
X0090744Y0118174D02*
X0091760Y0119190D01*
X0098350Y0119190D01*
X0102787Y0116631D02*
X0103744Y0115674D01*
X0104744Y0111674D02*
X0104583Y0111513D01*
X0098350Y0111513D01*
X0098350Y0108954D02*
X0091224Y0108954D01*
X0090744Y0107828D01*
X0098350Y0106394D02*
X0104465Y0106394D01*
X0105744Y0105174D01*
X0098350Y0098717D02*
X0092287Y0098717D01*
X0091744Y0098174D01*
X0093244Y0096158D02*
X0093244Y0095674D01*
X0093244Y0096158D02*
X0098350Y0096158D01*
X0118244Y0095674D02*
X0118244Y0087643D01*
X0118244Y0076828D01*
X0117591Y0076174D01*
X0128866Y0082884D02*
X0133091Y0078659D01*
X0133091Y0076174D01*
X0133091Y0063765D01*
X0137067Y0059788D01*
X0141976Y0059788D01*
X0159744Y0073111D02*
X0166858Y0065997D01*
X0166858Y0055261D01*
X0168630Y0053489D01*
X0175677Y0053489D01*
X0181976Y0059788D01*
X0189024Y0063056D02*
X0204228Y0063056D01*
X0204228Y0065615D01*
X0204287Y0065674D01*
X0209244Y0065674D01*
X0211406Y0067835D01*
X0211406Y0070674D01*
X0211406Y0076320D01*
X0208691Y0079034D01*
X0204091Y0079034D01*
X0202006Y0081120D01*
X0201906Y0083576D01*
X0201906Y0087099D02*
X0184244Y0087099D01*
X0180303Y0091040D01*
X0176638Y0091040D01*
X0176638Y0093599D02*
X0187319Y0093599D01*
X0189669Y0091249D01*
X0190669Y0090249D01*
X0201906Y0090249D01*
X0201906Y0093772D02*
X0196244Y0093772D01*
X0195244Y0094772D01*
X0193858Y0096158D01*
X0176638Y0096158D01*
X0176638Y0098717D02*
X0204134Y0098717D01*
X0209091Y0103674D01*
X0209154Y0103674D01*
X0209606Y0104009D01*
X0246724Y0104009D01*
X0251622Y0108843D01*
X0246724Y0114009D02*
X0251622Y0118843D01*
X0246724Y0114009D02*
X0232598Y0114009D01*
X0228933Y0117674D01*
X0192931Y0117674D01*
X0181652Y0106394D01*
X0176638Y0106394D01*
X0176638Y0103835D02*
X0182693Y0103835D01*
X0191491Y0112634D01*
X0199798Y0112634D01*
X0199839Y0112674D01*
X0202398Y0103674D02*
X0197144Y0103674D01*
X0209583Y0093772D02*
X0219272Y0093772D01*
X0221370Y0091674D01*
X0216976Y0090249D02*
X0220551Y0086674D01*
X0226370Y0086674D01*
X0230370Y0081674D02*
X0220951Y0081674D01*
X0215526Y0087099D01*
X0209583Y0087099D01*
X0209724Y0083534D02*
X0213891Y0083534D01*
X0219191Y0078234D01*
X0219191Y0075227D01*
X0219244Y0075174D02*
X0219567Y0075851D01*
X0227260Y0075851D01*
X0236720Y0075851D01*
X0240148Y0072424D01*
X0234244Y0067674D02*
X0232185Y0065615D01*
X0227260Y0065615D01*
X0227260Y0068174D02*
X0222744Y0068174D01*
X0221244Y0066674D01*
X0216244Y0066674D01*
X0221244Y0066674D02*
X0221244Y0062674D01*
X0223421Y0060497D01*
X0227260Y0060497D01*
X0227260Y0063056D02*
X0237862Y0063056D01*
X0238244Y0062674D01*
X0227260Y0070733D02*
X0227260Y0073292D01*
X0227260Y0070733D02*
X0211465Y0070733D01*
X0211406Y0070674D01*
X0209244Y0069674D02*
X0207744Y0068174D01*
X0204228Y0068174D01*
X0199744Y0068174D01*
X0198244Y0066674D01*
X0198185Y0070733D02*
X0197244Y0071674D01*
X0198185Y0070733D02*
X0204228Y0070733D01*
X0204228Y0073292D02*
X0201626Y0073292D01*
X0199244Y0075674D01*
X0171244Y0075674D01*
X0168244Y0078674D01*
X0168244Y0085674D01*
X0171244Y0088674D01*
X0184244Y0087099D02*
X0184819Y0087099D01*
X0189244Y0091674D02*
X0189669Y0091249D01*
X0176638Y0101276D02*
X0172142Y0101276D01*
X0169744Y0103674D01*
X0165244Y0105674D02*
X0168524Y0108954D01*
X0176638Y0108954D01*
X0165244Y0105674D02*
X0165244Y0077005D01*
X0169469Y0072780D01*
X0179299Y0072780D01*
X0189024Y0063056D01*
X0171976Y0059788D02*
X0171976Y0066324D01*
X0162244Y0076056D01*
X0162244Y0112674D01*
X0158287Y0116631D01*
X0147850Y0116631D01*
X0147850Y0114072D02*
X0156346Y0114072D01*
X0159744Y0110674D01*
X0159744Y0073111D01*
X0155004Y0087643D02*
X0118244Y0087643D01*
X0118244Y0095674D02*
X0121287Y0098717D01*
X0127138Y0098717D01*
X0127138Y0106394D02*
X0121524Y0106394D01*
X0121244Y0106674D01*
X0120244Y0107674D01*
X0120244Y0106674D02*
X0121244Y0106674D01*
X0121803Y0106674D01*
X0121524Y0106394D01*
X0126244Y0106374D02*
X0132244Y0106374D01*
X0132344Y0106274D01*
X0143344Y0106274D02*
X0154344Y0106274D01*
X0153444Y0111474D02*
X0143444Y0111474D01*
X0143483Y0111513D01*
X0147850Y0111513D01*
X0147850Y0124308D02*
X0140110Y0124308D01*
X0139244Y0125174D01*
X0176144Y0121774D02*
X0176613Y0121774D01*
X0176638Y0121749D01*
X0187744Y0130174D02*
X0187744Y0148912D01*
X0201906Y0150249D02*
X0201906Y0153772D01*
X0197016Y0168674D02*
X0198000Y0169658D01*
X0198000Y0181835D01*
X0204693Y0181835D02*
X0211189Y0181835D01*
X0216898Y0181835D01*
X0219004Y0168914D02*
X0219244Y0168674D01*
X0219244Y0168914D02*
X0219004Y0168914D01*
X0146425Y0180064D02*
X0146425Y0181835D01*
X0146425Y0180064D02*
X0141504Y0175143D01*
X0132449Y0175143D01*
X0132449Y0181835D02*
X0125953Y0181835D01*
X0132449Y0181835D02*
X0138157Y0181835D01*
X0119260Y0181835D02*
X0119260Y0184365D01*
X0117616Y0186009D01*
X0081366Y0186009D01*
X0079890Y0184532D01*
X0079890Y0181835D01*
X0079890Y0172032D01*
X0086583Y0181835D02*
X0093079Y0181835D01*
X0098787Y0181835D01*
X0229059Y0098174D02*
X0236059Y0091174D01*
X0243890Y0091174D01*
X0251622Y0098843D01*
X0216976Y0090249D02*
X0209583Y0090249D01*
X0208067Y0075851D02*
X0204228Y0075851D01*
X0208067Y0075851D02*
X0209244Y0074674D01*
X0209244Y0069674D01*
X0154744Y0092174D02*
X0153319Y0093599D01*
X0147850Y0093599D01*
X0154744Y0092174D02*
X0155319Y0093599D01*
D26*
X0147850Y0091040D02*
X0127138Y0091040D01*
X0127138Y0096158D02*
X0147850Y0096158D01*
X0147850Y0098717D02*
X0135201Y0098717D01*
X0132642Y0101276D01*
X0127138Y0101276D01*
X0139244Y0103674D02*
X0141642Y0101276D01*
X0147850Y0101276D01*
X0139244Y0103674D02*
X0139244Y0113674D01*
X0136287Y0116631D01*
X0127138Y0116631D01*
X0102787Y0116631D02*
X0098350Y0116631D01*
X0098425Y0121674D02*
X0098350Y0121749D01*
X0097744Y0098674D02*
X0103744Y0098674D01*
X0098244Y0096674D02*
X0098244Y0096174D01*
X0098260Y0096158D01*
X0098350Y0096158D01*
X0098244Y0096174D02*
X0102744Y0096174D01*
X0091744Y0095674D02*
X0091744Y0098174D01*
X0117591Y0076174D02*
X0126398Y0076174D01*
D27*
X0128866Y0082884D03*
X0135116Y0083509D03*
X0113744Y0086174D03*
X0103244Y0083674D03*
X0097244Y0085674D03*
X0105744Y0096674D03*
X0105744Y0105174D03*
X0104744Y0111674D03*
X0117744Y0105674D03*
X0134744Y0110674D03*
X0116744Y0120674D03*
X0100044Y0132674D03*
X0086366Y0138509D03*
X0078241Y0152259D03*
X0102244Y0161924D03*
X0113866Y0176009D03*
X0132449Y0175143D03*
X0132449Y0181835D03*
X0137119Y0162049D03*
X0125244Y0152674D03*
X0137119Y0148924D03*
X0150244Y0148924D03*
X0147244Y0137674D03*
X0139244Y0125174D03*
X0169244Y0115674D03*
X0154744Y0106674D03*
X0169744Y0103674D03*
X0189669Y0091249D03*
X0195244Y0094772D03*
X0197144Y0103674D03*
X0221370Y0091674D03*
X0226370Y0086674D03*
X0230370Y0081674D03*
X0219244Y0075174D03*
X0216244Y0066674D03*
X0198244Y0066674D03*
X0197244Y0071674D03*
X0189787Y0071068D03*
X0172744Y0083174D03*
X0171244Y0088674D03*
X0184244Y0087099D03*
X0229059Y0098174D03*
X0227119Y0112674D03*
X0234159Y0118843D03*
X0223646Y0123961D03*
X0215933Y0122674D03*
X0197346Y0138324D03*
X0175741Y0142259D03*
X0187616Y0162884D03*
X0166366Y0173509D03*
X0171819Y0181835D03*
X0211189Y0181835D03*
X0211189Y0173780D03*
X0234866Y0181835D03*
X0248591Y0187741D03*
X0276150Y0160182D03*
X0266844Y0147574D03*
X0266644Y0134049D03*
X0266444Y0114149D03*
X0260444Y0091474D03*
X0252544Y0081574D03*
X0234244Y0067674D03*
X0238244Y0062674D03*
X0248591Y0049946D03*
X0276150Y0077505D03*
X0203866Y0056009D03*
X0110795Y0065694D03*
X0097016Y0065694D03*
X0075362Y0049946D03*
X0047803Y0077505D03*
X0077144Y0091374D03*
X0063551Y0103095D03*
X0085144Y0107774D03*
X0063551Y0116875D03*
X0115369Y0142674D03*
X0047803Y0160182D03*
X0075362Y0187741D03*
X0093079Y0181835D03*
X0218866Y0156009D03*
X0238759Y0156774D03*
D28*
X0224059Y0142674D03*
X0150116Y0072884D03*
D29*
X0073425Y0061011D02*
X0073425Y0048009D01*
X0250528Y0048009D01*
X0250528Y0061011D01*
X0250474Y0061073D01*
X0250528Y0061828D01*
X0250528Y0062585D01*
X0250586Y0062643D01*
X0250605Y0062916D01*
X0250517Y0063053D01*
X0250663Y0063723D01*
X0250712Y0064407D01*
X0250835Y0064513D01*
X0250910Y0064859D01*
X0250843Y0065007D01*
X0251082Y0065649D01*
X0251228Y0066319D01*
X0251365Y0066407D01*
X0251488Y0066738D01*
X0251443Y0066895D01*
X0251771Y0067496D01*
X0252010Y0068138D01*
X0252159Y0068206D01*
X0252328Y0068516D01*
X0252305Y0068678D01*
X0252716Y0069226D01*
X0253044Y0069828D01*
X0253200Y0069874D01*
X0253412Y0070157D01*
X0253412Y0070320D01*
X0253897Y0070804D01*
X0254308Y0071353D01*
X0254469Y0071376D01*
X0254719Y0071626D01*
X0254742Y0071788D01*
X0255291Y0072198D01*
X0255776Y0072683D01*
X0255938Y0072683D01*
X0256222Y0072895D01*
X0256267Y0073051D01*
X0256869Y0073380D01*
X0257418Y0073790D01*
X0257579Y0073767D01*
X0257889Y0073937D01*
X0257957Y0074085D01*
X0258599Y0074324D01*
X0259201Y0074653D01*
X0259357Y0074607D01*
X0259688Y0074731D01*
X0259776Y0074867D01*
X0260446Y0075013D01*
X0261088Y0075253D01*
X0261236Y0075185D01*
X0261582Y0075260D01*
X0261689Y0075383D01*
X0262372Y0075432D01*
X0263042Y0075578D01*
X0263179Y0075490D01*
X0263452Y0075509D01*
X0263510Y0075568D01*
X0264267Y0075568D01*
X0265022Y0075622D01*
X0265085Y0075568D01*
X0278087Y0075568D01*
X0278087Y0162119D01*
X0265085Y0162119D01*
X0265022Y0162065D01*
X0264267Y0162119D01*
X0263510Y0162119D01*
X0263452Y0162177D01*
X0263179Y0162197D01*
X0263042Y0162109D01*
X0262372Y0162254D01*
X0261689Y0162303D01*
X0261582Y0162426D01*
X0261236Y0162502D01*
X0261088Y0162434D01*
X0260446Y0162673D01*
X0259776Y0162819D01*
X0259688Y0162956D01*
X0259357Y0163080D01*
X0259201Y0163034D01*
X0258599Y0163362D01*
X0257957Y0163602D01*
X0257889Y0163750D01*
X0257579Y0163919D01*
X0257418Y0163896D01*
X0256869Y0164307D01*
X0256267Y0164636D01*
X0256222Y0164792D01*
X0255938Y0165004D01*
X0255776Y0165004D01*
X0255291Y0165488D01*
X0254742Y0165899D01*
X0254719Y0166060D01*
X0254469Y0166310D01*
X0254308Y0166334D01*
X0253897Y0166882D01*
X0253412Y0167367D01*
X0253412Y0167530D01*
X0253200Y0167813D01*
X0253044Y0167859D01*
X0252716Y0168460D01*
X0252305Y0169009D01*
X0252328Y0169170D01*
X0252159Y0169481D01*
X0252010Y0169548D01*
X0251771Y0170191D01*
X0251443Y0170792D01*
X0251488Y0170948D01*
X0251365Y0171280D01*
X0251228Y0171368D01*
X0251082Y0172038D01*
X0250843Y0172680D01*
X0250910Y0172828D01*
X0250835Y0173173D01*
X0250712Y0173280D01*
X0250663Y0173964D01*
X0250517Y0174633D01*
X0250605Y0174770D01*
X0250586Y0175043D01*
X0250528Y0175101D01*
X0250528Y0175859D01*
X0250474Y0176614D01*
X0250528Y0176676D01*
X0250528Y0189678D01*
X0073425Y0189678D01*
X0073425Y0176676D01*
X0073479Y0176614D01*
X0073425Y0175859D01*
X0073425Y0175101D01*
X0073367Y0175043D01*
X0073347Y0174770D01*
X0073435Y0174633D01*
X0073290Y0173964D01*
X0073241Y0173280D01*
X0073118Y0173173D01*
X0073043Y0172828D01*
X0073110Y0172680D01*
X0072871Y0172038D01*
X0072725Y0171368D01*
X0072588Y0171280D01*
X0072464Y0170948D01*
X0072510Y0170792D01*
X0072182Y0170191D01*
X0071942Y0169548D01*
X0071794Y0169481D01*
X0071625Y0169170D01*
X0071648Y0169009D01*
X0071237Y0168460D01*
X0070909Y0167859D01*
X0070752Y0167813D01*
X0070540Y0167530D01*
X0070540Y0167367D01*
X0070056Y0166882D01*
X0069645Y0166334D01*
X0069484Y0166310D01*
X0069234Y0166060D01*
X0069210Y0165899D01*
X0068662Y0165488D01*
X0068177Y0165004D01*
X0068014Y0165004D01*
X0067731Y0164792D01*
X0067685Y0164636D01*
X0067084Y0164307D01*
X0066535Y0163896D01*
X0066374Y0163919D01*
X0066063Y0163750D01*
X0065996Y0163602D01*
X0065354Y0163362D01*
X0064752Y0163034D01*
X0064596Y0163080D01*
X0064264Y0162956D01*
X0064176Y0162819D01*
X0063507Y0162673D01*
X0062864Y0162434D01*
X0062716Y0162502D01*
X0062371Y0162426D01*
X0062264Y0162303D01*
X0061580Y0162254D01*
X0060911Y0162109D01*
X0060774Y0162197D01*
X0060501Y0162177D01*
X0060443Y0162119D01*
X0059686Y0162119D01*
X0058931Y0162065D01*
X0058868Y0162119D01*
X0045866Y0162119D01*
X0045866Y0141191D01*
X0046975Y0142300D01*
X0058474Y0142300D01*
X0059646Y0141128D01*
X0059646Y0131598D01*
X0058474Y0130426D01*
X0046975Y0130426D01*
X0045866Y0131535D01*
X0045866Y0106152D01*
X0046975Y0107261D01*
X0058474Y0107261D01*
X0059646Y0106089D01*
X0059646Y0096558D01*
X0058474Y0095387D01*
X0046975Y0095387D01*
X0045866Y0096495D01*
X0045866Y0075568D01*
X0058868Y0075568D01*
X0058931Y0075622D01*
X0059686Y0075568D01*
X0060443Y0075568D01*
X0060501Y0075509D01*
X0060774Y0075490D01*
X0060911Y0075578D01*
X0061580Y0075432D01*
X0062264Y0075383D01*
X0062371Y0075260D01*
X0062716Y0075185D01*
X0062864Y0075253D01*
X0063507Y0075013D01*
X0064176Y0074867D01*
X0064264Y0074731D01*
X0064596Y0074607D01*
X0064752Y0074653D01*
X0065354Y0074324D01*
X0065996Y0074085D01*
X0066063Y0073937D01*
X0066374Y0073767D01*
X0066535Y0073790D01*
X0067084Y0073380D01*
X0067685Y0073051D01*
X0067731Y0072895D01*
X0068014Y0072683D01*
X0068177Y0072683D01*
X0068662Y0072198D01*
X0069210Y0071788D01*
X0069234Y0071626D01*
X0069484Y0071376D01*
X0069645Y0071353D01*
X0070056Y0070804D01*
X0070540Y0070320D01*
X0070540Y0070157D01*
X0070752Y0069874D01*
X0070909Y0069828D01*
X0071237Y0069226D01*
X0071648Y0068678D01*
X0071625Y0068516D01*
X0071794Y0068206D01*
X0071942Y0068138D01*
X0072182Y0067496D01*
X0072510Y0066895D01*
X0072464Y0066738D01*
X0072588Y0066407D01*
X0072725Y0066319D01*
X0072871Y0065649D01*
X0073110Y0065007D01*
X0073043Y0064859D01*
X0073118Y0064513D01*
X0073241Y0064407D01*
X0073290Y0063723D01*
X0073435Y0063053D01*
X0073347Y0062916D01*
X0073367Y0062643D01*
X0073425Y0062585D01*
X0073425Y0061828D01*
X0073479Y0061073D01*
X0073425Y0061011D01*
X0073425Y0060395D02*
X0132783Y0060395D01*
X0134381Y0058797D02*
X0073425Y0058797D01*
X0073425Y0057198D02*
X0136525Y0057198D01*
X0136550Y0057188D02*
X0136776Y0057188D01*
X0136776Y0055760D01*
X0137948Y0054588D01*
X0146005Y0054588D01*
X0147176Y0055760D01*
X0147176Y0057234D01*
X0149822Y0054588D01*
X0154130Y0054588D01*
X0157118Y0057576D01*
X0159905Y0054788D01*
X0161776Y0054788D01*
X0161776Y0059588D01*
X0162176Y0059588D01*
X0162176Y0054788D01*
X0164047Y0054788D01*
X0164258Y0054999D01*
X0164258Y0054743D01*
X0164654Y0053788D01*
X0166426Y0052016D01*
X0167157Y0051285D01*
X0168113Y0050889D01*
X0176194Y0050889D01*
X0177150Y0051285D01*
X0180453Y0054588D01*
X0184130Y0054588D01*
X0187176Y0057634D01*
X0187176Y0061226D01*
X0187551Y0060852D01*
X0188506Y0060456D01*
X0200657Y0060456D01*
X0200657Y0059571D01*
X0200779Y0059113D01*
X0201016Y0058703D01*
X0201351Y0058368D01*
X0201762Y0058131D01*
X0202220Y0058008D01*
X0204228Y0058008D01*
X0204228Y0060367D01*
X0204228Y0060367D01*
X0204228Y0058008D01*
X0206237Y0058008D01*
X0206695Y0058131D01*
X0207105Y0058368D01*
X0207440Y0058703D01*
X0207677Y0059113D01*
X0207800Y0059571D01*
X0207800Y0060497D01*
X0207800Y0061338D01*
X0208000Y0061538D01*
X0208000Y0063074D01*
X0209761Y0063074D01*
X0210717Y0063470D01*
X0211448Y0064201D01*
X0212502Y0065255D01*
X0212853Y0064408D01*
X0213978Y0063283D01*
X0215448Y0062674D01*
X0217040Y0062674D01*
X0218510Y0063283D01*
X0218644Y0063417D01*
X0218644Y0062157D01*
X0219040Y0061201D01*
X0219771Y0060470D01*
X0221948Y0058293D01*
X0222904Y0057897D01*
X0224571Y0057897D01*
X0224660Y0057808D01*
X0229860Y0057808D01*
X0231031Y0058979D01*
X0231031Y0060456D01*
X0234833Y0060456D01*
X0234853Y0060408D01*
X0235978Y0059283D01*
X0237448Y0058674D01*
X0239040Y0058674D01*
X0240510Y0059283D01*
X0241635Y0060408D01*
X0242244Y0061878D01*
X0242244Y0063470D01*
X0241635Y0064940D01*
X0240510Y0066065D01*
X0239040Y0066674D01*
X0238159Y0066674D01*
X0238244Y0066878D01*
X0238244Y0068456D01*
X0243141Y0068456D01*
X0243653Y0068967D01*
X0243980Y0068778D01*
X0244438Y0068656D01*
X0246656Y0068655D01*
X0246656Y0072240D01*
X0247025Y0072240D01*
X0247025Y0072608D01*
X0250806Y0072608D01*
X0250806Y0074629D01*
X0250683Y0075087D01*
X0250446Y0075498D01*
X0250111Y0075833D01*
X0249701Y0076070D01*
X0249243Y0076193D01*
X0247025Y0076193D01*
X0247025Y0072608D01*
X0246656Y0072608D01*
X0246656Y0076193D01*
X0244438Y0076193D01*
X0243980Y0076070D01*
X0243653Y0075881D01*
X0243141Y0076393D01*
X0239856Y0076393D01*
X0238193Y0078055D01*
X0237238Y0078451D01*
X0232804Y0078451D01*
X0233761Y0079408D01*
X0234370Y0080878D01*
X0234370Y0082470D01*
X0233761Y0083940D01*
X0232636Y0085065D01*
X0231166Y0085674D01*
X0230285Y0085674D01*
X0230370Y0085878D01*
X0230370Y0087470D01*
X0229761Y0088940D01*
X0228636Y0090065D01*
X0227166Y0090674D01*
X0225574Y0090674D01*
X0225226Y0090529D01*
X0225370Y0090878D01*
X0225370Y0092470D01*
X0224761Y0093940D01*
X0223636Y0095065D01*
X0222166Y0095674D01*
X0221047Y0095674D01*
X0220744Y0095977D01*
X0219789Y0096372D01*
X0213315Y0096372D01*
X0212675Y0097013D01*
X0206490Y0097013D01*
X0205744Y0096266D01*
X0205529Y0096481D01*
X0205607Y0096513D01*
X0208602Y0099509D01*
X0211887Y0099509D01*
X0213059Y0100680D01*
X0213059Y0101409D01*
X0226637Y0101409D01*
X0225668Y0100440D01*
X0225059Y0098970D01*
X0225059Y0097378D01*
X0225668Y0095908D01*
X0226793Y0094783D01*
X0228263Y0094174D01*
X0229382Y0094174D01*
X0233855Y0089701D01*
X0234586Y0088970D01*
X0235542Y0088574D01*
X0243885Y0088574D01*
X0244396Y0088572D01*
X0244401Y0088574D01*
X0244407Y0088574D01*
X0244880Y0088770D01*
X0245354Y0088964D01*
X0245357Y0088968D01*
X0245363Y0088970D01*
X0245725Y0089332D01*
X0250071Y0093643D01*
X0255650Y0093643D01*
X0256822Y0094815D01*
X0256822Y0102872D01*
X0255650Y0104043D01*
X0254176Y0104043D01*
X0256822Y0106689D01*
X0256822Y0110997D01*
X0253976Y0113843D01*
X0256822Y0116689D01*
X0256822Y0120997D01*
X0253976Y0123843D01*
X0256822Y0126689D01*
X0256822Y0130997D01*
X0253976Y0133843D01*
X0256822Y0136689D01*
X0256822Y0140997D01*
X0254159Y0143660D01*
X0254159Y0164022D01*
X0253611Y0165346D01*
X0247231Y0171726D01*
X0245907Y0172274D01*
X0200600Y0172274D01*
X0200600Y0177670D01*
X0200797Y0177670D01*
X0201346Y0178220D01*
X0201896Y0177670D01*
X0207490Y0177670D01*
X0208594Y0178774D01*
X0208923Y0178444D01*
X0210393Y0177835D01*
X0211985Y0177835D01*
X0212946Y0178234D01*
X0213707Y0177473D01*
X0220088Y0177473D01*
X0221224Y0178609D01*
X0221363Y0178368D01*
X0221698Y0178033D01*
X0222108Y0177796D01*
X0222566Y0177673D01*
X0224784Y0177673D01*
X0224784Y0181454D01*
X0225546Y0181454D01*
X0225546Y0177673D01*
X0227765Y0177673D01*
X0228222Y0177796D01*
X0228633Y0178033D01*
X0228968Y0178368D01*
X0229205Y0178778D01*
X0229328Y0179236D01*
X0229328Y0181454D01*
X0225547Y0181454D01*
X0225547Y0182217D01*
X0229328Y0182217D01*
X0229328Y0184435D01*
X0229205Y0184892D01*
X0228968Y0185303D01*
X0228633Y0185638D01*
X0228222Y0185875D01*
X0227765Y0185998D01*
X0225546Y0185998D01*
X0225546Y0182217D01*
X0224784Y0182217D01*
X0224784Y0185998D01*
X0222566Y0185998D01*
X0222108Y0185875D01*
X0221698Y0185638D01*
X0221363Y0185303D01*
X0221224Y0185062D01*
X0220088Y0186198D01*
X0213707Y0186198D01*
X0212946Y0185437D01*
X0211985Y0185835D01*
X0210393Y0185835D01*
X0208923Y0185226D01*
X0208594Y0184897D01*
X0207490Y0186001D01*
X0201896Y0186001D01*
X0201346Y0185451D01*
X0200797Y0186001D01*
X0195203Y0186001D01*
X0194031Y0184829D01*
X0194031Y0178842D01*
X0195203Y0177670D01*
X0195400Y0177670D01*
X0195400Y0172274D01*
X0180528Y0172274D01*
X0179205Y0171726D01*
X0172692Y0165213D01*
X0172144Y0163890D01*
X0172144Y0159599D01*
X0166378Y0159599D01*
X0165129Y0159081D01*
X0164576Y0159081D01*
X0164576Y0176447D01*
X0164181Y0177403D01*
X0163913Y0177670D01*
X0168120Y0177670D01*
X0169224Y0178774D01*
X0169553Y0178444D01*
X0171023Y0177835D01*
X0172615Y0177835D01*
X0173576Y0178234D01*
X0174337Y0177473D01*
X0180718Y0177473D01*
X0181854Y0178609D01*
X0181993Y0178368D01*
X0182328Y0178033D01*
X0182738Y0177796D01*
X0183196Y0177673D01*
X0185414Y0177673D01*
X0185414Y0181454D01*
X0186176Y0181454D01*
X0186176Y0177673D01*
X0188394Y0177673D01*
X0188852Y0177796D01*
X0189263Y0178033D01*
X0189598Y0178368D01*
X0189835Y0178778D01*
X0189957Y0179236D01*
X0189957Y0181454D01*
X0186176Y0181454D01*
X0186176Y0182217D01*
X0185414Y0182217D01*
X0185414Y0185998D01*
X0183196Y0185998D01*
X0182738Y0185875D01*
X0182328Y0185638D01*
X0181993Y0185303D01*
X0181854Y0185062D01*
X0180718Y0186198D01*
X0174337Y0186198D01*
X0173576Y0185437D01*
X0172615Y0185835D01*
X0171023Y0185835D01*
X0169553Y0185226D01*
X0169224Y0184897D01*
X0168120Y0186001D01*
X0162526Y0186001D01*
X0161976Y0185451D01*
X0161427Y0186001D01*
X0155833Y0186001D01*
X0154661Y0184829D01*
X0154661Y0178842D01*
X0155833Y0177670D01*
X0156559Y0177670D01*
X0159376Y0174853D01*
X0159376Y0170425D01*
X0157320Y0172481D01*
X0156589Y0173213D01*
X0155633Y0173609D01*
X0143647Y0173609D01*
X0147512Y0177473D01*
X0149616Y0177473D01*
X0150787Y0178645D01*
X0150787Y0185026D01*
X0149616Y0186198D01*
X0143235Y0186198D01*
X0142291Y0185254D01*
X0141348Y0186198D01*
X0134967Y0186198D01*
X0134206Y0185437D01*
X0133244Y0185835D01*
X0131653Y0185835D01*
X0130183Y0185226D01*
X0129853Y0184897D01*
X0128750Y0186001D01*
X0123156Y0186001D01*
X0122606Y0185451D01*
X0122057Y0186001D01*
X0121301Y0186001D01*
X0119820Y0187481D01*
X0119089Y0188213D01*
X0118133Y0188609D01*
X0080849Y0188609D01*
X0079893Y0188213D01*
X0077686Y0186005D01*
X0077684Y0186001D01*
X0077093Y0186001D01*
X0075921Y0184829D01*
X0075921Y0178842D01*
X0077093Y0177670D01*
X0077290Y0177670D01*
X0077290Y0173109D01*
X0065040Y0160859D01*
X0064644Y0159904D01*
X0064644Y0158188D01*
X0064340Y0157884D01*
X0062835Y0157884D01*
X0062835Y0158599D01*
X0061663Y0159770D01*
X0056069Y0159770D01*
X0054898Y0158599D01*
X0054898Y0152611D01*
X0055409Y0152100D01*
X0055220Y0151772D01*
X0055098Y0151315D01*
X0055098Y0149096D01*
X0058682Y0149096D01*
X0058682Y0148728D01*
X0059050Y0148728D01*
X0059050Y0144947D01*
X0061072Y0144947D01*
X0061529Y0145070D01*
X0061940Y0145306D01*
X0062275Y0145642D01*
X0062512Y0146052D01*
X0062635Y0146510D01*
X0062635Y0148728D01*
X0059050Y0148728D01*
X0059050Y0149096D01*
X0062635Y0149096D01*
X0062635Y0151315D01*
X0062589Y0151484D01*
X0063820Y0151484D01*
X0063991Y0151313D01*
X0063991Y0149787D01*
X0064448Y0148684D01*
X0065292Y0147841D01*
X0067157Y0145975D01*
X0068260Y0145519D01*
X0070475Y0145519D01*
X0070557Y0145436D01*
X0076939Y0145436D01*
X0078110Y0146607D01*
X0078110Y0150430D01*
X0076939Y0151601D01*
X0070785Y0151601D01*
X0071059Y0151875D01*
X0071490Y0152916D01*
X0076939Y0152916D01*
X0078110Y0154088D01*
X0078110Y0157910D01*
X0076939Y0159081D01*
X0070616Y0159081D01*
X0082094Y0170559D01*
X0082490Y0171515D01*
X0082490Y0177670D01*
X0082687Y0177670D01*
X0083236Y0178220D01*
X0083786Y0177670D01*
X0089380Y0177670D01*
X0090483Y0178774D01*
X0090813Y0178444D01*
X0092283Y0177835D01*
X0093874Y0177835D01*
X0094836Y0178234D01*
X0095597Y0177473D01*
X0101978Y0177473D01*
X0103114Y0178609D01*
X0103253Y0178368D01*
X0103588Y0178033D01*
X0103998Y0177796D01*
X0104456Y0177673D01*
X0106674Y0177673D01*
X0106674Y0181454D01*
X0107436Y0181454D01*
X0107436Y0177673D01*
X0109654Y0177673D01*
X0110112Y0177796D01*
X0110523Y0178033D01*
X0110858Y0178368D01*
X0111095Y0178778D01*
X0111217Y0179236D01*
X0111217Y0181454D01*
X0107436Y0181454D01*
X0107436Y0182217D01*
X0111217Y0182217D01*
X0111217Y0183409D01*
X0115291Y0183409D01*
X0115291Y0178842D01*
X0116463Y0177670D01*
X0122057Y0177670D01*
X0122606Y0178220D01*
X0123156Y0177670D01*
X0128750Y0177670D01*
X0129853Y0178774D01*
X0130138Y0178489D01*
X0129058Y0177408D01*
X0128449Y0175938D01*
X0128449Y0174347D01*
X0128755Y0173609D01*
X0088349Y0173609D01*
X0087393Y0173213D01*
X0081662Y0167481D01*
X0081266Y0166526D01*
X0081266Y0159081D01*
X0080794Y0159081D01*
X0079622Y0157910D01*
X0079622Y0154088D01*
X0079887Y0153822D01*
X0079822Y0153578D01*
X0079822Y0152259D01*
X0083984Y0152259D01*
X0083984Y0152259D01*
X0079822Y0152259D01*
X0079822Y0150939D01*
X0079887Y0150695D01*
X0079622Y0150430D01*
X0079622Y0146607D01*
X0080794Y0145436D01*
X0087175Y0145436D01*
X0087258Y0145519D01*
X0088141Y0145519D01*
X0088141Y0137086D01*
X0082164Y0131109D01*
X0080810Y0131109D01*
X0081299Y0131598D01*
X0081299Y0141128D01*
X0080128Y0142300D01*
X0068628Y0142300D01*
X0067457Y0141128D01*
X0067457Y0131598D01*
X0068628Y0130426D01*
X0069607Y0130426D01*
X0069162Y0129981D01*
X0068537Y0129356D01*
X0068194Y0128528D01*
X0067733Y0129641D01*
X0066672Y0130702D01*
X0065286Y0131276D01*
X0063785Y0131276D01*
X0062399Y0130702D01*
X0061338Y0129641D01*
X0060764Y0128255D01*
X0060764Y0126754D01*
X0061338Y0125368D01*
X0062399Y0124307D01*
X0063785Y0123733D01*
X0065286Y0123733D01*
X0066672Y0124307D01*
X0067733Y0125368D01*
X0068141Y0126354D01*
X0068141Y0124241D01*
X0068244Y0123993D01*
X0068244Y0113881D01*
X0068444Y0113681D01*
X0068444Y0112544D01*
X0068444Y0111323D01*
X0068567Y0110865D01*
X0068804Y0110455D01*
X0069139Y0110119D01*
X0069549Y0109883D01*
X0070007Y0109760D01*
X0076740Y0109760D01*
X0076740Y0112544D01*
X0068444Y0112544D01*
X0076740Y0112544D01*
X0076740Y0112544D01*
X0076740Y0112544D01*
X0076740Y0109760D01*
X0083473Y0109760D01*
X0083931Y0109883D01*
X0084341Y0110119D01*
X0084677Y0110455D01*
X0084914Y0110865D01*
X0085036Y0111323D01*
X0085036Y0112544D01*
X0076740Y0112544D01*
X0076740Y0112544D01*
X0085036Y0112544D01*
X0085036Y0113681D01*
X0085236Y0113881D01*
X0085236Y0116243D01*
X0086776Y0116243D01*
X0086776Y0111527D01*
X0087287Y0111015D01*
X0087098Y0110688D01*
X0086976Y0110230D01*
X0086976Y0108012D01*
X0090560Y0108012D01*
X0090560Y0107643D01*
X0090928Y0107643D01*
X0090928Y0103862D01*
X0092950Y0103862D01*
X0093407Y0103985D01*
X0093600Y0104096D01*
X0093600Y0099763D01*
X0093800Y0099563D01*
X0093800Y0098717D01*
X0093800Y0097795D01*
X0093896Y0097438D01*
X0093800Y0097080D01*
X0093800Y0096158D01*
X0093800Y0095313D01*
X0093600Y0095113D01*
X0093600Y0089527D01*
X0094772Y0088355D01*
X0101465Y0088355D01*
X0100870Y0087760D01*
X0100444Y0086731D01*
X0100444Y0086531D01*
X0099853Y0085940D01*
X0099244Y0084470D01*
X0099244Y0082878D01*
X0099853Y0081408D01*
X0100444Y0080817D01*
X0100444Y0080143D01*
X0100097Y0080143D01*
X0099585Y0079631D01*
X0099258Y0079820D01*
X0098800Y0079943D01*
X0096582Y0079943D01*
X0096582Y0076358D01*
X0096213Y0076358D01*
X0096213Y0075990D01*
X0092432Y0075990D01*
X0092432Y0073969D01*
X0092555Y0073511D01*
X0092792Y0073100D01*
X0093127Y0072765D01*
X0093537Y0072528D01*
X0093995Y0072406D01*
X0096213Y0072405D01*
X0096213Y0075990D01*
X0096582Y0075990D01*
X0096582Y0072406D01*
X0098800Y0072406D01*
X0099258Y0072528D01*
X0099585Y0072717D01*
X0100097Y0072206D01*
X0106084Y0072206D01*
X0107177Y0073299D01*
X0107292Y0073100D01*
X0107627Y0072765D01*
X0108037Y0072528D01*
X0108495Y0072406D01*
X0110713Y0072405D01*
X0110713Y0075990D01*
X0111082Y0075990D01*
X0111082Y0072406D01*
X0113300Y0072406D01*
X0113758Y0072528D01*
X0114085Y0072717D01*
X0114597Y0072206D01*
X0120584Y0072206D01*
X0121756Y0073377D01*
X0121756Y0073674D01*
X0122429Y0073674D01*
X0122429Y0073180D01*
X0123601Y0072009D01*
X0129195Y0072009D01*
X0129744Y0072558D01*
X0130294Y0072009D01*
X0130491Y0072009D01*
X0130491Y0063247D01*
X0130886Y0062292D01*
X0134863Y0058315D01*
X0135594Y0057584D01*
X0136550Y0057188D01*
X0136936Y0055600D02*
X0073425Y0055600D01*
X0073425Y0054001D02*
X0164566Y0054001D01*
X0166039Y0052403D02*
X0073425Y0052403D01*
X0073425Y0050804D02*
X0250528Y0050804D01*
X0250528Y0049206D02*
X0073425Y0049206D01*
X0073425Y0061994D02*
X0131184Y0061994D01*
X0130491Y0063592D02*
X0073318Y0063592D01*
X0073042Y0065191D02*
X0130491Y0065191D01*
X0130491Y0066789D02*
X0072479Y0066789D01*
X0071695Y0068388D02*
X0130491Y0068388D01*
X0130491Y0069986D02*
X0070668Y0069986D01*
X0069275Y0071585D02*
X0130491Y0071585D01*
X0135691Y0071585D02*
X0151404Y0071585D01*
X0151404Y0070055D02*
X0148924Y0067575D01*
X0148376Y0066252D01*
X0148376Y0063542D01*
X0147176Y0062342D01*
X0147176Y0063817D01*
X0146005Y0064988D01*
X0137948Y0064988D01*
X0136776Y0063817D01*
X0136776Y0063756D01*
X0135691Y0064842D01*
X0135691Y0072009D01*
X0135887Y0072009D01*
X0137059Y0073180D01*
X0137059Y0079168D01*
X0135887Y0080339D01*
X0135088Y0080339D01*
X0132866Y0082561D01*
X0132866Y0083680D01*
X0132302Y0085043D01*
X0137432Y0085043D01*
X0137432Y0083445D01*
X0141213Y0083445D01*
X0141213Y0083076D01*
X0141582Y0083076D01*
X0141582Y0079492D01*
X0143800Y0079492D01*
X0144258Y0079615D01*
X0144585Y0079804D01*
X0145097Y0079292D01*
X0151084Y0079292D01*
X0151404Y0079612D01*
X0151404Y0070055D01*
X0151335Y0069986D02*
X0135691Y0069986D01*
X0135691Y0068388D02*
X0149737Y0068388D01*
X0148599Y0066789D02*
X0135691Y0066789D01*
X0135691Y0065191D02*
X0148376Y0065191D01*
X0148376Y0063592D02*
X0147176Y0063592D01*
X0155576Y0063592D02*
X0158709Y0063592D01*
X0159905Y0064788D02*
X0157118Y0062001D01*
X0155576Y0063542D01*
X0155576Y0064045D01*
X0158056Y0066525D01*
X0158604Y0067848D01*
X0158604Y0070574D01*
X0164258Y0064920D01*
X0164258Y0064577D01*
X0164047Y0064788D01*
X0162176Y0064788D01*
X0162176Y0059988D01*
X0161776Y0059988D01*
X0161776Y0064788D01*
X0159905Y0064788D01*
X0161776Y0063592D02*
X0162176Y0063592D01*
X0162176Y0061994D02*
X0161776Y0061994D01*
X0161776Y0060395D02*
X0162176Y0060395D01*
X0162176Y0058797D02*
X0161776Y0058797D01*
X0161776Y0057198D02*
X0162176Y0057198D01*
X0162176Y0055600D02*
X0161776Y0055600D01*
X0159094Y0055600D02*
X0155142Y0055600D01*
X0156740Y0057198D02*
X0157495Y0057198D01*
X0148811Y0055600D02*
X0147016Y0055600D01*
X0147176Y0057198D02*
X0147212Y0057198D01*
X0156722Y0065191D02*
X0163987Y0065191D01*
X0162389Y0066789D02*
X0158166Y0066789D01*
X0158604Y0068388D02*
X0160790Y0068388D01*
X0159192Y0069986D02*
X0158604Y0069986D01*
X0151404Y0073183D02*
X0137059Y0073183D01*
X0137059Y0074782D02*
X0151404Y0074782D01*
X0151404Y0076380D02*
X0137059Y0076380D01*
X0137059Y0077979D02*
X0151404Y0077979D01*
X0151370Y0079577D02*
X0151404Y0079577D01*
X0155004Y0082761D02*
X0154504Y0083261D01*
X0148091Y0083261D01*
X0144811Y0079577D02*
X0144118Y0079577D01*
X0141582Y0079577D02*
X0141213Y0079577D01*
X0141213Y0079492D02*
X0141213Y0083076D01*
X0137432Y0083076D01*
X0137432Y0081055D01*
X0137555Y0080597D01*
X0137792Y0080187D01*
X0138127Y0079852D01*
X0138538Y0079615D01*
X0138995Y0079492D01*
X0141213Y0079492D01*
X0141213Y0081176D02*
X0141582Y0081176D01*
X0141582Y0082774D02*
X0141213Y0082774D01*
X0137432Y0082774D02*
X0132866Y0082774D01*
X0132579Y0084373D02*
X0137432Y0084373D01*
X0137432Y0081176D02*
X0134251Y0081176D01*
X0136649Y0079577D02*
X0138677Y0079577D01*
X0122429Y0073183D02*
X0121562Y0073183D01*
X0115644Y0080143D02*
X0114597Y0080143D01*
X0114085Y0079631D01*
X0113758Y0079820D01*
X0113300Y0079943D01*
X0111082Y0079943D01*
X0111082Y0076358D01*
X0110713Y0076358D01*
X0110713Y0079943D01*
X0108495Y0079943D01*
X0108037Y0079820D01*
X0107627Y0079583D01*
X0107292Y0079248D01*
X0107177Y0079049D01*
X0106084Y0080143D01*
X0106044Y0080143D01*
X0106044Y0080817D01*
X0106635Y0081408D01*
X0107244Y0082878D01*
X0107244Y0084470D01*
X0106733Y0085703D01*
X0111830Y0090800D01*
X0112618Y0091588D01*
X0113044Y0092617D01*
X0113044Y0111231D01*
X0112618Y0112260D01*
X0110830Y0114048D01*
X0109801Y0114474D01*
X0107601Y0114474D01*
X0107010Y0115065D01*
X0105540Y0115674D01*
X0103948Y0115674D01*
X0103100Y0115323D01*
X0103100Y0115585D01*
X0102900Y0115785D01*
X0102900Y0116631D01*
X0102900Y0117476D01*
X0103100Y0117676D01*
X0103100Y0119149D01*
X0103423Y0119149D01*
X0104379Y0119545D01*
X0106164Y0121330D01*
X0106895Y0122061D01*
X0107291Y0123017D01*
X0107291Y0126151D01*
X0106895Y0127107D01*
X0105295Y0128707D01*
X0104564Y0129438D01*
X0103609Y0129834D01*
X0094493Y0129834D01*
X0099195Y0134536D01*
X0099591Y0135491D01*
X0099591Y0148401D01*
X0099370Y0148935D01*
X0099370Y0151591D01*
X0098702Y0152259D01*
X0099370Y0152926D01*
X0099370Y0153409D01*
X0104888Y0153409D01*
X0105282Y0153015D01*
X0112450Y0153015D01*
X0112845Y0153409D01*
X0115464Y0153409D01*
X0115464Y0152259D01*
X0119626Y0152259D01*
X0123788Y0152259D01*
X0123788Y0153578D01*
X0123723Y0153822D01*
X0123988Y0154088D01*
X0123988Y0157910D01*
X0123341Y0158557D01*
X0123341Y0161807D01*
X0124943Y0163409D01*
X0149039Y0163409D01*
X0151891Y0160557D01*
X0151891Y0155491D01*
X0152287Y0154536D01*
X0152496Y0154327D01*
X0152496Y0154088D01*
X0152761Y0153822D01*
X0152696Y0153578D01*
X0152696Y0152259D01*
X0156858Y0152259D01*
X0156858Y0152259D01*
X0152696Y0152259D01*
X0152696Y0150939D01*
X0152761Y0150695D01*
X0152496Y0150430D01*
X0152496Y0146607D01*
X0153668Y0145436D01*
X0154258Y0145436D01*
X0154258Y0145274D01*
X0146884Y0145274D01*
X0146940Y0145306D01*
X0147275Y0145642D01*
X0147512Y0146052D01*
X0147635Y0146510D01*
X0147635Y0148728D01*
X0144050Y0148728D01*
X0144050Y0149096D01*
X0147635Y0149096D01*
X0147635Y0151315D01*
X0147512Y0151772D01*
X0147323Y0152100D01*
X0147835Y0152611D01*
X0147835Y0158599D01*
X0146663Y0159770D01*
X0141069Y0159770D01*
X0140907Y0159609D01*
X0139755Y0159609D01*
X0139540Y0159824D01*
X0137886Y0160509D01*
X0136096Y0160509D01*
X0134442Y0159824D01*
X0134220Y0159601D01*
X0133512Y0159599D01*
X0129146Y0159599D01*
X0127897Y0159081D01*
X0126672Y0159081D01*
X0125500Y0157910D01*
X0125500Y0154088D01*
X0126672Y0152916D01*
X0127897Y0152916D01*
X0129146Y0152399D01*
X0132807Y0152399D01*
X0132812Y0152397D01*
X0133524Y0152399D01*
X0134234Y0152399D01*
X0134236Y0152400D01*
X0134442Y0152194D01*
X0136096Y0151509D01*
X0137886Y0151509D01*
X0139540Y0152194D01*
X0139755Y0152409D01*
X0140100Y0152409D01*
X0140409Y0152100D01*
X0140220Y0151772D01*
X0140098Y0151315D01*
X0140098Y0149096D01*
X0143682Y0149096D01*
X0143682Y0148728D01*
X0140098Y0148728D01*
X0140098Y0146510D01*
X0140220Y0146052D01*
X0140457Y0145642D01*
X0140792Y0145306D01*
X0140849Y0145274D01*
X0123321Y0145274D01*
X0122988Y0145607D01*
X0123988Y0146607D01*
X0123988Y0150430D01*
X0123723Y0150695D01*
X0123788Y0150939D01*
X0123788Y0152259D01*
X0119626Y0152259D01*
X0119626Y0152259D01*
X0119626Y0152259D01*
X0115464Y0152259D01*
X0115464Y0150939D01*
X0115529Y0150695D01*
X0115264Y0150430D01*
X0115264Y0146607D01*
X0116435Y0145436D01*
X0117026Y0145436D01*
X0117026Y0144775D01*
X0117421Y0143820D01*
X0118153Y0143088D01*
X0120040Y0141201D01*
X0120771Y0140470D01*
X0121727Y0140074D01*
X0154258Y0140074D01*
X0154258Y0128615D01*
X0152032Y0126389D01*
X0151429Y0126993D01*
X0144272Y0126993D01*
X0144187Y0126908D01*
X0142855Y0126908D01*
X0142635Y0127440D01*
X0141510Y0128565D01*
X0140040Y0129174D01*
X0138448Y0129174D01*
X0136978Y0128565D01*
X0135853Y0127440D01*
X0135244Y0125970D01*
X0135244Y0124378D01*
X0135853Y0122908D01*
X0136978Y0121783D01*
X0138448Y0121174D01*
X0140040Y0121174D01*
X0141329Y0121708D01*
X0143100Y0121708D01*
X0143100Y0112558D01*
X0143300Y0112358D01*
X0143300Y0111513D01*
X0144146Y0111513D01*
X0144146Y0111513D01*
X0143300Y0111513D01*
X0143300Y0110591D01*
X0143396Y0110233D01*
X0143300Y0109876D01*
X0143300Y0108954D01*
X0147850Y0108954D01*
X0147850Y0111387D01*
X0147850Y0111387D01*
X0147850Y0108954D01*
X0147850Y0108954D01*
X0147850Y0108953D01*
X0147850Y0108953D01*
X0147850Y0108880D01*
X0147850Y0106520D01*
X0147850Y0106520D01*
X0147850Y0108953D01*
X0143300Y0108953D01*
X0143300Y0108032D01*
X0143396Y0107674D01*
X0143300Y0107316D01*
X0143300Y0106395D01*
X0144146Y0106395D01*
X0144146Y0106394D01*
X0143300Y0106394D01*
X0143300Y0105549D01*
X0143100Y0105349D01*
X0143100Y0103776D01*
X0142677Y0103776D01*
X0141744Y0104710D01*
X0141744Y0114171D01*
X0141363Y0115090D01*
X0140660Y0115793D01*
X0137704Y0118750D01*
X0136785Y0119131D01*
X0131888Y0119131D01*
X0131888Y0125821D01*
X0130716Y0126993D01*
X0123559Y0126993D01*
X0122388Y0125821D01*
X0122388Y0107440D01*
X0122588Y0107240D01*
X0122588Y0106395D01*
X0123433Y0106395D01*
X0123433Y0106394D01*
X0122588Y0106394D01*
X0122588Y0105549D01*
X0122388Y0105349D01*
X0122388Y0101317D01*
X0120770Y0101317D01*
X0119815Y0100921D01*
X0116771Y0097878D01*
X0116040Y0097147D01*
X0115644Y0096191D01*
X0115644Y0080143D01*
X0115644Y0081176D02*
X0106403Y0081176D01*
X0106649Y0079577D02*
X0107622Y0079577D01*
X0110713Y0079577D02*
X0111082Y0079577D01*
X0111082Y0077979D02*
X0110713Y0077979D01*
X0110713Y0076380D02*
X0111082Y0076380D01*
X0111082Y0074782D02*
X0110713Y0074782D01*
X0110713Y0073183D02*
X0111082Y0073183D01*
X0107244Y0073183D02*
X0107062Y0073183D01*
X0103244Y0076328D02*
X0103091Y0076174D01*
X0103244Y0078914D01*
X0103244Y0083674D01*
X0103244Y0076328D01*
X0100085Y0081176D02*
X0045866Y0081176D01*
X0045866Y0082774D02*
X0099287Y0082774D01*
X0099244Y0084373D02*
X0045866Y0084373D01*
X0045866Y0085971D02*
X0099885Y0085971D01*
X0100792Y0087570D02*
X0045866Y0087570D01*
X0045866Y0089168D02*
X0093959Y0089168D01*
X0093600Y0090767D02*
X0045866Y0090767D01*
X0045866Y0092365D02*
X0093600Y0092365D01*
X0093600Y0093964D02*
X0045866Y0093964D01*
X0045866Y0095563D02*
X0046799Y0095563D01*
X0058650Y0095563D02*
X0068452Y0095563D01*
X0068628Y0095387D02*
X0067457Y0096558D01*
X0067457Y0106089D01*
X0068628Y0107261D01*
X0080128Y0107261D01*
X0081299Y0106089D01*
X0081299Y0096558D01*
X0080128Y0095387D01*
X0068628Y0095387D01*
X0067457Y0097161D02*
X0059646Y0097161D01*
X0059646Y0098760D02*
X0067457Y0098760D01*
X0067457Y0100358D02*
X0059646Y0100358D01*
X0059646Y0101957D02*
X0067457Y0101957D01*
X0067457Y0103555D02*
X0059646Y0103555D01*
X0059646Y0105154D02*
X0067457Y0105154D01*
X0068120Y0106752D02*
X0066111Y0106752D01*
X0066672Y0106984D02*
X0067733Y0108045D01*
X0068307Y0109432D01*
X0068307Y0110932D01*
X0067733Y0112318D01*
X0066672Y0113379D01*
X0065286Y0113954D01*
X0063785Y0113954D01*
X0062399Y0113379D01*
X0061338Y0112318D01*
X0060764Y0110932D01*
X0060764Y0109432D01*
X0061338Y0108045D01*
X0062399Y0106984D01*
X0063785Y0106410D01*
X0065286Y0106410D01*
X0066672Y0106984D01*
X0067859Y0108351D02*
X0086976Y0108351D01*
X0086976Y0107643D02*
X0086976Y0105425D01*
X0087098Y0104967D01*
X0087335Y0104557D01*
X0087670Y0104222D01*
X0088081Y0103985D01*
X0088539Y0103862D01*
X0090560Y0103862D01*
X0090560Y0107643D01*
X0086976Y0107643D01*
X0086976Y0106752D02*
X0080636Y0106752D01*
X0081299Y0105154D02*
X0087048Y0105154D01*
X0090560Y0105154D02*
X0090928Y0105154D01*
X0090928Y0106752D02*
X0090560Y0106752D01*
X0093600Y0103555D02*
X0081299Y0103555D01*
X0081299Y0101957D02*
X0093600Y0101957D01*
X0093600Y0100358D02*
X0081299Y0100358D01*
X0081299Y0098760D02*
X0093800Y0098760D01*
X0093800Y0098717D02*
X0094646Y0098717D01*
X0093800Y0098717D01*
X0094646Y0098717D02*
X0094646Y0098717D01*
X0093822Y0097161D02*
X0081299Y0097161D01*
X0080304Y0095563D02*
X0093800Y0095563D01*
X0093800Y0096158D02*
X0094646Y0096158D01*
X0094646Y0096158D01*
X0093800Y0096158D01*
X0098350Y0096284D02*
X0098350Y0098591D01*
X0098350Y0098591D01*
X0098350Y0096284D01*
X0098350Y0096284D01*
X0098350Y0097161D02*
X0098350Y0097161D01*
X0102055Y0096158D02*
X0102900Y0096158D01*
X0102055Y0096158D01*
X0102055Y0096158D01*
X0102900Y0096158D02*
X0102900Y0097080D01*
X0102805Y0097438D01*
X0102900Y0097795D01*
X0102900Y0098717D01*
X0102055Y0098717D01*
X0102055Y0098717D01*
X0102900Y0098717D01*
X0102900Y0099563D01*
X0103100Y0099763D01*
X0103100Y0102161D01*
X0103478Y0101783D01*
X0104948Y0101174D01*
X0106540Y0101174D01*
X0107444Y0101549D01*
X0107444Y0094334D01*
X0103100Y0089990D01*
X0103100Y0095113D01*
X0102900Y0095313D01*
X0102900Y0096158D01*
X0102900Y0095563D02*
X0107444Y0095563D01*
X0107444Y0097161D02*
X0102879Y0097161D01*
X0102900Y0098760D02*
X0107444Y0098760D01*
X0107444Y0100358D02*
X0103100Y0100358D01*
X0103100Y0101957D02*
X0103305Y0101957D01*
X0113044Y0101957D02*
X0122388Y0101957D01*
X0122388Y0103555D02*
X0113044Y0103555D01*
X0113044Y0105154D02*
X0122388Y0105154D01*
X0122588Y0106752D02*
X0113044Y0106752D01*
X0113044Y0108351D02*
X0122388Y0108351D01*
X0122388Y0109949D02*
X0113044Y0109949D01*
X0112913Y0111548D02*
X0122388Y0111548D01*
X0122388Y0113146D02*
X0111732Y0113146D01*
X0110244Y0110674D02*
X0109244Y0111674D01*
X0104744Y0111674D01*
X0110244Y0110674D02*
X0110244Y0093174D01*
X0103244Y0086174D01*
X0103244Y0083674D01*
X0107201Y0082774D02*
X0115644Y0082774D01*
X0115644Y0084373D02*
X0107244Y0084373D01*
X0107001Y0085971D02*
X0115644Y0085971D01*
X0115644Y0087570D02*
X0108600Y0087570D01*
X0110198Y0089168D02*
X0115644Y0089168D01*
X0115644Y0090767D02*
X0111797Y0090767D01*
X0112940Y0092365D02*
X0115644Y0092365D01*
X0115644Y0093964D02*
X0113044Y0093964D01*
X0113044Y0095563D02*
X0115644Y0095563D01*
X0116054Y0097161D02*
X0113044Y0097161D01*
X0113044Y0098760D02*
X0117653Y0098760D01*
X0119251Y0100358D02*
X0113044Y0100358D01*
X0107074Y0093964D02*
X0103100Y0093964D01*
X0103100Y0092365D02*
X0105476Y0092365D01*
X0103877Y0090767D02*
X0103100Y0090767D01*
X0096213Y0079943D02*
X0093995Y0079943D01*
X0093537Y0079820D01*
X0093127Y0079583D01*
X0092792Y0079248D01*
X0092555Y0078837D01*
X0092432Y0078379D01*
X0092432Y0076358D01*
X0096213Y0076358D01*
X0096213Y0079943D01*
X0096213Y0079577D02*
X0096582Y0079577D01*
X0096582Y0077979D02*
X0096213Y0077979D01*
X0096213Y0076380D02*
X0096582Y0076380D01*
X0096582Y0074782D02*
X0096213Y0074782D01*
X0096213Y0073183D02*
X0096582Y0073183D01*
X0092744Y0073183D02*
X0067443Y0073183D01*
X0064231Y0074782D02*
X0092432Y0074782D01*
X0092432Y0076380D02*
X0045866Y0076380D01*
X0045866Y0077979D02*
X0092432Y0077979D01*
X0093122Y0079577D02*
X0045866Y0079577D01*
X0045866Y0106752D02*
X0046466Y0106752D01*
X0045866Y0108351D02*
X0061212Y0108351D01*
X0060764Y0109949D02*
X0045866Y0109949D01*
X0045866Y0111548D02*
X0061019Y0111548D01*
X0062166Y0113146D02*
X0045866Y0113146D01*
X0045866Y0114745D02*
X0068244Y0114745D01*
X0068244Y0116343D02*
X0045866Y0116343D01*
X0045866Y0117942D02*
X0068244Y0117942D01*
X0068244Y0119540D02*
X0045866Y0119540D01*
X0045866Y0121139D02*
X0068244Y0121139D01*
X0068244Y0122737D02*
X0045866Y0122737D01*
X0045866Y0124336D02*
X0062371Y0124336D01*
X0061104Y0125934D02*
X0045866Y0125934D01*
X0045866Y0127533D02*
X0060764Y0127533D01*
X0061127Y0129131D02*
X0045866Y0129131D01*
X0045866Y0130730D02*
X0046671Y0130730D01*
X0058778Y0130730D02*
X0062466Y0130730D01*
X0059646Y0132328D02*
X0067457Y0132328D01*
X0067457Y0133927D02*
X0059646Y0133927D01*
X0059646Y0135525D02*
X0067457Y0135525D01*
X0067457Y0137124D02*
X0059646Y0137124D01*
X0059646Y0138722D02*
X0067457Y0138722D01*
X0067457Y0140321D02*
X0059646Y0140321D01*
X0058855Y0141919D02*
X0068248Y0141919D01*
X0066418Y0146715D02*
X0062635Y0146715D01*
X0062635Y0148313D02*
X0064819Y0148313D01*
X0065292Y0147841D02*
X0065292Y0147841D01*
X0063991Y0149912D02*
X0062635Y0149912D01*
X0059050Y0148313D02*
X0058682Y0148313D01*
X0058682Y0148728D02*
X0058682Y0144947D01*
X0056661Y0144947D01*
X0056203Y0145070D01*
X0055792Y0145306D01*
X0055457Y0145642D01*
X0055220Y0146052D01*
X0055098Y0146510D01*
X0055098Y0148728D01*
X0058682Y0148728D01*
X0058682Y0146715D02*
X0059050Y0146715D01*
X0059050Y0145116D02*
X0058682Y0145116D01*
X0056122Y0145116D02*
X0045866Y0145116D01*
X0045866Y0143518D02*
X0088141Y0143518D01*
X0088141Y0145116D02*
X0061611Y0145116D01*
X0055098Y0146715D02*
X0045866Y0146715D01*
X0045866Y0148313D02*
X0055098Y0148313D01*
X0055098Y0149912D02*
X0045866Y0149912D01*
X0045866Y0151510D02*
X0055150Y0151510D01*
X0054898Y0153109D02*
X0045866Y0153109D01*
X0045866Y0154707D02*
X0054898Y0154707D01*
X0054898Y0156306D02*
X0045866Y0156306D01*
X0045866Y0157904D02*
X0054898Y0157904D01*
X0055802Y0159503D02*
X0045866Y0159503D01*
X0045866Y0161101D02*
X0065282Y0161101D01*
X0064644Y0159503D02*
X0061931Y0159503D01*
X0062835Y0157904D02*
X0064361Y0157904D01*
X0063629Y0162700D02*
X0066881Y0162700D01*
X0067072Y0164298D02*
X0068479Y0164298D01*
X0069208Y0165897D02*
X0070078Y0165897D01*
X0070540Y0167496D02*
X0071676Y0167496D01*
X0071636Y0169094D02*
X0073275Y0169094D01*
X0072456Y0170693D02*
X0074873Y0170693D01*
X0076472Y0172291D02*
X0072965Y0172291D01*
X0073284Y0173890D02*
X0077290Y0173890D01*
X0077290Y0175488D02*
X0073425Y0175488D01*
X0073425Y0177087D02*
X0077290Y0177087D01*
X0076078Y0178685D02*
X0073425Y0178685D01*
X0073425Y0180284D02*
X0075921Y0180284D01*
X0075921Y0181882D02*
X0073425Y0181882D01*
X0073425Y0183481D02*
X0075921Y0183481D01*
X0076171Y0185079D02*
X0073425Y0185079D01*
X0073425Y0186678D02*
X0078358Y0186678D01*
X0080046Y0188276D02*
X0073425Y0188276D01*
X0082490Y0177087D02*
X0128925Y0177087D01*
X0128449Y0175488D02*
X0082490Y0175488D01*
X0082490Y0173890D02*
X0128638Y0173890D01*
X0129765Y0178685D02*
X0129942Y0178685D01*
X0130036Y0185079D02*
X0129671Y0185079D01*
X0120624Y0186678D02*
X0250528Y0186678D01*
X0250528Y0188276D02*
X0118936Y0188276D01*
X0115291Y0181882D02*
X0107436Y0181882D01*
X0107436Y0180284D02*
X0106674Y0180284D01*
X0106674Y0178685D02*
X0107436Y0178685D01*
X0111041Y0178685D02*
X0115448Y0178685D01*
X0115291Y0180284D02*
X0111217Y0180284D01*
X0090572Y0178685D02*
X0090395Y0178685D01*
X0086472Y0172291D02*
X0082490Y0172291D01*
X0082149Y0170693D02*
X0084873Y0170693D01*
X0083275Y0169094D02*
X0080628Y0169094D01*
X0081676Y0167496D02*
X0079030Y0167496D01*
X0077431Y0165897D02*
X0081266Y0165897D01*
X0081266Y0164298D02*
X0075833Y0164298D01*
X0074234Y0162700D02*
X0081266Y0162700D01*
X0081266Y0161101D02*
X0072636Y0161101D01*
X0071037Y0159503D02*
X0081266Y0159503D01*
X0079622Y0157904D02*
X0078110Y0157904D01*
X0078110Y0156306D02*
X0079622Y0156306D01*
X0079622Y0154707D02*
X0078110Y0154707D01*
X0077131Y0153109D02*
X0079822Y0153109D01*
X0079822Y0151510D02*
X0077029Y0151510D01*
X0078110Y0149912D02*
X0079622Y0149912D01*
X0079622Y0148313D02*
X0078110Y0148313D01*
X0078110Y0146715D02*
X0079622Y0146715D01*
X0080508Y0141919D02*
X0088141Y0141919D01*
X0088141Y0140321D02*
X0081299Y0140321D01*
X0081299Y0138722D02*
X0088141Y0138722D01*
X0088141Y0137124D02*
X0081299Y0137124D01*
X0081299Y0135525D02*
X0086581Y0135525D01*
X0084983Y0133927D02*
X0081299Y0133927D01*
X0081299Y0132328D02*
X0083384Y0132328D01*
X0095389Y0130730D02*
X0154258Y0130730D01*
X0154258Y0132328D02*
X0096988Y0132328D01*
X0098586Y0133927D02*
X0154258Y0133927D01*
X0154258Y0135525D02*
X0099591Y0135525D01*
X0099591Y0137124D02*
X0154258Y0137124D01*
X0154258Y0138722D02*
X0099591Y0138722D01*
X0099591Y0140321D02*
X0121131Y0140321D01*
X0120040Y0141201D02*
X0120040Y0141201D01*
X0119322Y0141919D02*
X0112883Y0141919D01*
X0112727Y0141763D02*
X0113062Y0142098D01*
X0113299Y0142509D01*
X0113422Y0142967D01*
X0113422Y0145775D01*
X0109444Y0145775D01*
X0109444Y0141404D01*
X0111859Y0141404D01*
X0112317Y0141526D01*
X0112727Y0141763D01*
X0113422Y0143518D02*
X0117723Y0143518D01*
X0117026Y0145116D02*
X0113422Y0145116D01*
X0113422Y0146931D02*
X0109444Y0146931D01*
X0108288Y0146931D01*
X0108288Y0145775D01*
X0109444Y0145775D01*
X0109444Y0146931D01*
X0109444Y0151303D01*
X0111859Y0151303D01*
X0112317Y0151180D01*
X0112727Y0150943D01*
X0113062Y0150608D01*
X0113299Y0150198D01*
X0113422Y0149740D01*
X0113422Y0146931D01*
X0113422Y0148313D02*
X0115264Y0148313D01*
X0115264Y0146715D02*
X0109444Y0146715D01*
X0108288Y0146715D02*
X0099591Y0146715D01*
X0099591Y0148313D02*
X0104310Y0148313D01*
X0104310Y0146931D02*
X0104310Y0149740D01*
X0104433Y0150198D01*
X0104670Y0150608D01*
X0105005Y0150943D01*
X0105415Y0151180D01*
X0105873Y0151303D01*
X0108288Y0151303D01*
X0108288Y0146931D01*
X0104310Y0146931D01*
X0104310Y0145775D02*
X0104310Y0142967D01*
X0104433Y0142509D01*
X0104670Y0142098D01*
X0105005Y0141763D01*
X0105415Y0141526D01*
X0105873Y0141404D01*
X0108288Y0141404D01*
X0108288Y0145775D01*
X0104310Y0145775D01*
X0104310Y0145116D02*
X0099591Y0145116D01*
X0099591Y0143518D02*
X0104310Y0143518D01*
X0104849Y0141919D02*
X0099591Y0141919D01*
X0099370Y0149912D02*
X0104356Y0149912D01*
X0108288Y0149912D02*
X0109444Y0149912D01*
X0109444Y0148313D02*
X0108288Y0148313D01*
X0113376Y0149912D02*
X0115264Y0149912D01*
X0115464Y0151510D02*
X0099370Y0151510D01*
X0099370Y0153109D02*
X0105187Y0153109D01*
X0112545Y0153109D02*
X0115464Y0153109D01*
X0123788Y0153109D02*
X0126479Y0153109D01*
X0126672Y0151601D02*
X0125500Y0150430D01*
X0125500Y0146607D01*
X0126672Y0145436D01*
X0133053Y0145436D01*
X0134224Y0146607D01*
X0134224Y0150430D01*
X0133053Y0151601D01*
X0126672Y0151601D01*
X0126581Y0151510D02*
X0123788Y0151510D01*
X0123988Y0149912D02*
X0125500Y0149912D01*
X0125500Y0148313D02*
X0123988Y0148313D01*
X0123988Y0146715D02*
X0125500Y0146715D01*
X0134224Y0146715D02*
X0140098Y0146715D01*
X0140098Y0148313D02*
X0134224Y0148313D01*
X0134224Y0149912D02*
X0140098Y0149912D01*
X0140150Y0151510D02*
X0137891Y0151510D01*
X0136092Y0151510D02*
X0133144Y0151510D01*
X0125500Y0154707D02*
X0123988Y0154707D01*
X0123988Y0156306D02*
X0125500Y0156306D01*
X0125500Y0157904D02*
X0123988Y0157904D01*
X0123341Y0159503D02*
X0128915Y0159503D01*
X0124234Y0162700D02*
X0149748Y0162700D01*
X0151347Y0161101D02*
X0123341Y0161101D01*
X0143928Y0173890D02*
X0159376Y0173890D01*
X0159376Y0172291D02*
X0157511Y0172291D01*
X0159109Y0170693D02*
X0159376Y0170693D01*
X0164576Y0170693D02*
X0178171Y0170693D01*
X0176573Y0169094D02*
X0164576Y0169094D01*
X0164576Y0167496D02*
X0174974Y0167496D01*
X0173376Y0165897D02*
X0164576Y0165897D01*
X0164576Y0164298D02*
X0172313Y0164298D01*
X0172144Y0162700D02*
X0164576Y0162700D01*
X0164576Y0161101D02*
X0172144Y0161101D01*
X0166147Y0159503D02*
X0164576Y0159503D01*
X0164576Y0152916D02*
X0165129Y0152916D01*
X0166378Y0152399D01*
X0171988Y0152399D01*
X0172287Y0152100D01*
X0172098Y0151772D01*
X0171976Y0151315D01*
X0171976Y0149096D01*
X0175560Y0149096D01*
X0175560Y0148728D01*
X0175928Y0148728D01*
X0175928Y0144947D01*
X0177950Y0144947D01*
X0178407Y0145070D01*
X0178818Y0145306D01*
X0179153Y0145642D01*
X0179390Y0146052D01*
X0179513Y0146510D01*
X0179513Y0148728D01*
X0175928Y0148728D01*
X0175928Y0149096D01*
X0179513Y0149096D01*
X0179513Y0151315D01*
X0179390Y0151772D01*
X0179201Y0152100D01*
X0179713Y0152611D01*
X0179713Y0158599D01*
X0179344Y0158967D01*
X0179344Y0161683D01*
X0182735Y0165074D01*
X0243700Y0165074D01*
X0246959Y0161815D01*
X0246959Y0149899D01*
X0213646Y0149899D01*
X0213646Y0150249D01*
X0213646Y0150772D01*
X0217227Y0150772D01*
X0218329Y0151229D01*
X0219109Y0152009D01*
X0219662Y0152009D01*
X0221132Y0152618D01*
X0222257Y0153743D01*
X0222866Y0155213D01*
X0222866Y0156804D01*
X0222257Y0158274D01*
X0221132Y0159400D01*
X0219662Y0160009D01*
X0218070Y0160009D01*
X0216600Y0159400D01*
X0215475Y0158274D01*
X0214866Y0156804D01*
X0214866Y0156772D01*
X0212915Y0156772D01*
X0212675Y0157013D01*
X0206490Y0157013D01*
X0205744Y0156266D01*
X0204998Y0157013D01*
X0198813Y0157013D01*
X0197642Y0155841D01*
X0197642Y0152734D01*
X0194874Y0152734D01*
X0193919Y0152338D01*
X0193187Y0151607D01*
X0191713Y0150132D01*
X0191713Y0151906D01*
X0191201Y0152418D01*
X0191390Y0152745D01*
X0191513Y0153203D01*
X0191513Y0155421D01*
X0187928Y0155421D01*
X0187928Y0155789D01*
X0187560Y0155789D01*
X0187560Y0155421D01*
X0183976Y0155421D01*
X0183976Y0153203D01*
X0184098Y0152745D01*
X0184287Y0152418D01*
X0183776Y0151906D01*
X0183776Y0145918D01*
X0184947Y0144747D01*
X0185144Y0144747D01*
X0185144Y0131251D01*
X0180801Y0126908D01*
X0180301Y0126908D01*
X0180216Y0126993D01*
X0173059Y0126993D01*
X0172974Y0126908D01*
X0171690Y0126908D01*
X0171559Y0127223D01*
X0170293Y0128489D01*
X0168639Y0129174D01*
X0166849Y0129174D01*
X0165195Y0128489D01*
X0164209Y0127503D01*
X0164576Y0128389D01*
X0164576Y0145436D01*
X0170285Y0145436D01*
X0171457Y0146607D01*
X0171457Y0150430D01*
X0170285Y0151601D01*
X0164576Y0151601D01*
X0164576Y0152916D01*
X0170376Y0151510D02*
X0172028Y0151510D01*
X0171976Y0149912D02*
X0171457Y0149912D01*
X0171976Y0148728D02*
X0171976Y0146510D01*
X0172098Y0146052D01*
X0172335Y0145642D01*
X0172670Y0145306D01*
X0173081Y0145070D01*
X0173539Y0144947D01*
X0175560Y0144947D01*
X0175560Y0148728D01*
X0171976Y0148728D01*
X0171976Y0148313D02*
X0171457Y0148313D01*
X0171457Y0146715D02*
X0171976Y0146715D01*
X0173000Y0145116D02*
X0164576Y0145116D01*
X0164576Y0143518D02*
X0185144Y0143518D01*
X0185144Y0141919D02*
X0164576Y0141919D01*
X0164576Y0140321D02*
X0185144Y0140321D01*
X0185144Y0138722D02*
X0164576Y0138722D01*
X0164576Y0137124D02*
X0185144Y0137124D01*
X0185144Y0135525D02*
X0164576Y0135525D01*
X0164576Y0133927D02*
X0185144Y0133927D01*
X0185144Y0132328D02*
X0164576Y0132328D01*
X0164576Y0130730D02*
X0184623Y0130730D01*
X0183024Y0129131D02*
X0168742Y0129131D01*
X0166746Y0129131D02*
X0164576Y0129131D01*
X0164239Y0127533D02*
X0164222Y0127533D01*
X0163900Y0127153D02*
X0163244Y0125569D01*
X0163244Y0123779D01*
X0163929Y0122125D01*
X0165195Y0120859D01*
X0166849Y0120174D01*
X0168639Y0120174D01*
X0170293Y0120859D01*
X0171142Y0121708D01*
X0172088Y0121708D01*
X0172088Y0120903D01*
X0171888Y0120703D01*
X0171888Y0111554D01*
X0168006Y0111554D01*
X0167051Y0111158D01*
X0166319Y0110426D01*
X0164844Y0108951D01*
X0164844Y0113191D01*
X0164448Y0114147D01*
X0163717Y0114878D01*
X0159760Y0118835D01*
X0158805Y0119231D01*
X0155978Y0119231D01*
X0163900Y0127153D01*
X0163395Y0125934D02*
X0162681Y0125934D01*
X0163244Y0124336D02*
X0161083Y0124336D01*
X0159484Y0122737D02*
X0163676Y0122737D01*
X0164915Y0121139D02*
X0157886Y0121139D01*
X0156287Y0119540D02*
X0171888Y0119540D01*
X0171888Y0117942D02*
X0160653Y0117942D01*
X0162252Y0116343D02*
X0171888Y0116343D01*
X0171888Y0114745D02*
X0163850Y0114745D01*
X0164844Y0113146D02*
X0171888Y0113146D01*
X0167992Y0111548D02*
X0164844Y0111548D01*
X0164844Y0109949D02*
X0165842Y0109949D01*
X0166319Y0110426D02*
X0166319Y0110426D01*
X0169601Y0106354D02*
X0171888Y0106354D01*
X0171888Y0102322D01*
X0172088Y0102122D01*
X0172088Y0101276D01*
X0172088Y0100431D01*
X0171888Y0100231D01*
X0171888Y0092674D01*
X0170448Y0092674D01*
X0168978Y0092065D01*
X0167853Y0090940D01*
X0167844Y0090918D01*
X0167844Y0104597D01*
X0169601Y0106354D01*
X0168401Y0105154D02*
X0171888Y0105154D01*
X0171888Y0103555D02*
X0167844Y0103555D01*
X0167844Y0101957D02*
X0172088Y0101957D01*
X0172088Y0101276D02*
X0172933Y0101276D01*
X0172088Y0101276D01*
X0172933Y0101276D02*
X0172933Y0101276D01*
X0172933Y0101276D01*
X0172015Y0100358D02*
X0167844Y0100358D01*
X0167844Y0098760D02*
X0171888Y0098760D01*
X0171888Y0097161D02*
X0167844Y0097161D01*
X0167844Y0095563D02*
X0171888Y0095563D01*
X0171888Y0093964D02*
X0167844Y0093964D01*
X0167844Y0092365D02*
X0169704Y0092365D01*
X0175244Y0088355D02*
X0179311Y0088355D01*
X0180244Y0087422D01*
X0180244Y0086304D01*
X0180853Y0084833D01*
X0181978Y0083708D01*
X0183448Y0083099D01*
X0185040Y0083099D01*
X0186510Y0083708D01*
X0187301Y0084499D01*
X0197642Y0084499D01*
X0197642Y0081507D01*
X0198813Y0080335D01*
X0199504Y0080335D01*
X0199624Y0080076D01*
X0199801Y0079647D01*
X0199840Y0079608D01*
X0199863Y0079558D01*
X0200205Y0079244D01*
X0201268Y0078180D01*
X0200842Y0077753D01*
X0200717Y0077878D01*
X0199761Y0078274D01*
X0172321Y0078274D01*
X0170844Y0079751D01*
X0170844Y0084597D01*
X0170921Y0084674D01*
X0172040Y0084674D01*
X0173510Y0085283D01*
X0174635Y0086408D01*
X0175244Y0087878D01*
X0175244Y0088355D01*
X0175116Y0087570D02*
X0180096Y0087570D01*
X0180382Y0085971D02*
X0174198Y0085971D01*
X0170844Y0084373D02*
X0181314Y0084373D01*
X0187175Y0084373D02*
X0197642Y0084373D01*
X0197642Y0082774D02*
X0170844Y0082774D01*
X0170844Y0081176D02*
X0197973Y0081176D01*
X0199854Y0079577D02*
X0171018Y0079577D01*
X0182682Y0073074D02*
X0193494Y0073074D01*
X0193244Y0072470D01*
X0193244Y0070878D01*
X0193853Y0069408D01*
X0194697Y0068564D01*
X0194244Y0067470D01*
X0194244Y0065878D01*
X0194336Y0065656D01*
X0190101Y0065656D01*
X0182682Y0073074D01*
X0184172Y0071585D02*
X0193244Y0071585D01*
X0193614Y0069986D02*
X0185770Y0069986D01*
X0187369Y0068388D02*
X0194624Y0068388D01*
X0194244Y0066789D02*
X0188967Y0066789D01*
X0187176Y0060395D02*
X0200657Y0060395D01*
X0200962Y0058797D02*
X0187176Y0058797D01*
X0186740Y0057198D02*
X0250528Y0057198D01*
X0250528Y0055600D02*
X0185142Y0055600D01*
X0179866Y0054001D02*
X0250528Y0054001D01*
X0250528Y0052403D02*
X0178268Y0052403D01*
X0204228Y0058797D02*
X0204228Y0058797D01*
X0206958Y0060497D02*
X0206958Y0060497D01*
X0207800Y0060497D01*
X0206958Y0060497D01*
X0207800Y0060395D02*
X0219846Y0060395D01*
X0218712Y0061994D02*
X0208000Y0061994D01*
X0207495Y0058797D02*
X0221444Y0058797D01*
X0213669Y0063592D02*
X0210839Y0063592D01*
X0212438Y0065191D02*
X0212529Y0065191D01*
X0219244Y0075174D02*
X0219191Y0075227D01*
X0209724Y0083534D02*
X0209583Y0083576D01*
X0201067Y0077979D02*
X0200474Y0077979D01*
X0225324Y0090767D02*
X0232789Y0090767D01*
X0233855Y0089701D02*
X0233855Y0089701D01*
X0234388Y0089168D02*
X0229532Y0089168D01*
X0230329Y0087570D02*
X0278087Y0087570D01*
X0278087Y0089168D02*
X0245561Y0089168D01*
X0247171Y0090767D02*
X0278087Y0090767D01*
X0278087Y0092365D02*
X0248783Y0092365D01*
X0255971Y0093964D02*
X0278087Y0093964D01*
X0278087Y0095563D02*
X0256822Y0095563D01*
X0256822Y0097161D02*
X0278087Y0097161D01*
X0278087Y0098760D02*
X0256822Y0098760D01*
X0256822Y0100358D02*
X0278087Y0100358D01*
X0278087Y0101957D02*
X0256822Y0101957D01*
X0256139Y0103555D02*
X0278087Y0103555D01*
X0278087Y0105154D02*
X0255286Y0105154D01*
X0256822Y0106752D02*
X0278087Y0106752D01*
X0278087Y0108351D02*
X0256822Y0108351D01*
X0256822Y0109949D02*
X0278087Y0109949D01*
X0278087Y0111548D02*
X0256272Y0111548D01*
X0254673Y0113146D02*
X0278087Y0113146D01*
X0278087Y0114745D02*
X0254877Y0114745D01*
X0256476Y0116343D02*
X0278087Y0116343D01*
X0278087Y0117942D02*
X0256822Y0117942D01*
X0256822Y0119540D02*
X0278087Y0119540D01*
X0278087Y0121139D02*
X0256681Y0121139D01*
X0255082Y0122737D02*
X0278087Y0122737D01*
X0278087Y0124336D02*
X0254468Y0124336D01*
X0256067Y0125934D02*
X0278087Y0125934D01*
X0278087Y0127533D02*
X0256822Y0127533D01*
X0256822Y0129131D02*
X0278087Y0129131D01*
X0278087Y0130730D02*
X0256822Y0130730D01*
X0255491Y0132328D02*
X0278087Y0132328D01*
X0278087Y0133927D02*
X0254059Y0133927D01*
X0255658Y0135525D02*
X0278087Y0135525D01*
X0278087Y0137124D02*
X0256822Y0137124D01*
X0256822Y0138722D02*
X0278087Y0138722D01*
X0278087Y0140321D02*
X0256822Y0140321D01*
X0255900Y0141919D02*
X0278087Y0141919D01*
X0278087Y0143518D02*
X0254301Y0143518D01*
X0254159Y0145116D02*
X0278087Y0145116D01*
X0278087Y0146715D02*
X0254159Y0146715D01*
X0254159Y0148313D02*
X0278087Y0148313D01*
X0278087Y0149912D02*
X0254159Y0149912D01*
X0254159Y0151510D02*
X0278087Y0151510D01*
X0278087Y0153109D02*
X0254159Y0153109D01*
X0254159Y0154707D02*
X0278087Y0154707D01*
X0278087Y0156306D02*
X0254159Y0156306D01*
X0254159Y0157904D02*
X0278087Y0157904D01*
X0278087Y0159503D02*
X0254159Y0159503D01*
X0254159Y0161101D02*
X0278087Y0161101D01*
X0260324Y0162700D02*
X0254159Y0162700D01*
X0254045Y0164298D02*
X0256880Y0164298D01*
X0254745Y0165897D02*
X0253059Y0165897D01*
X0253412Y0167496D02*
X0251461Y0167496D01*
X0252317Y0169094D02*
X0249862Y0169094D01*
X0248264Y0170693D02*
X0251497Y0170693D01*
X0250988Y0172291D02*
X0200600Y0172291D01*
X0200600Y0173890D02*
X0250668Y0173890D01*
X0250528Y0175488D02*
X0200600Y0175488D01*
X0200600Y0177087D02*
X0250528Y0177087D01*
X0250528Y0178685D02*
X0229151Y0178685D01*
X0229328Y0180284D02*
X0250528Y0180284D01*
X0250528Y0181882D02*
X0225547Y0181882D01*
X0225546Y0180284D02*
X0224784Y0180284D01*
X0224784Y0178685D02*
X0225546Y0178685D01*
X0225546Y0183481D02*
X0224784Y0183481D01*
X0224784Y0185079D02*
X0225546Y0185079D01*
X0229097Y0185079D02*
X0250528Y0185079D01*
X0250528Y0183481D02*
X0229328Y0183481D01*
X0221234Y0185079D02*
X0221207Y0185079D01*
X0208776Y0185079D02*
X0208411Y0185079D01*
X0208505Y0178685D02*
X0208682Y0178685D01*
X0195400Y0177087D02*
X0164311Y0177087D01*
X0164576Y0175488D02*
X0195400Y0175488D01*
X0195400Y0173890D02*
X0164576Y0173890D01*
X0164576Y0172291D02*
X0195400Y0172291D01*
X0194188Y0178685D02*
X0189781Y0178685D01*
X0189957Y0180284D02*
X0194031Y0180284D01*
X0194031Y0181882D02*
X0186176Y0181882D01*
X0186176Y0182217D02*
X0189957Y0182217D01*
X0189957Y0184435D01*
X0189835Y0184892D01*
X0189598Y0185303D01*
X0189263Y0185638D01*
X0188852Y0185875D01*
X0188394Y0185998D01*
X0186176Y0185998D01*
X0186176Y0182217D01*
X0186176Y0183481D02*
X0185414Y0183481D01*
X0185414Y0185079D02*
X0186176Y0185079D01*
X0189727Y0185079D02*
X0194281Y0185079D01*
X0194031Y0183481D02*
X0189957Y0183481D01*
X0186176Y0180284D02*
X0185414Y0180284D01*
X0185414Y0178685D02*
X0186176Y0178685D01*
X0181864Y0185079D02*
X0181837Y0185079D01*
X0169406Y0185079D02*
X0169041Y0185079D01*
X0169135Y0178685D02*
X0169312Y0178685D01*
X0158741Y0175488D02*
X0145526Y0175488D01*
X0147125Y0177087D02*
X0157143Y0177087D01*
X0154818Y0178685D02*
X0150787Y0178685D01*
X0150787Y0180284D02*
X0154661Y0180284D01*
X0154661Y0181882D02*
X0150787Y0181882D01*
X0150787Y0183481D02*
X0154661Y0183481D01*
X0154911Y0185079D02*
X0150734Y0185079D01*
X0181960Y0164298D02*
X0244476Y0164298D01*
X0246074Y0162700D02*
X0180361Y0162700D01*
X0179344Y0161101D02*
X0246959Y0161101D01*
X0246959Y0159503D02*
X0220883Y0159503D01*
X0222410Y0157904D02*
X0246959Y0157904D01*
X0246959Y0156306D02*
X0222866Y0156306D01*
X0222657Y0154707D02*
X0246959Y0154707D01*
X0246959Y0153109D02*
X0221623Y0153109D01*
X0218611Y0151510D02*
X0246959Y0151510D01*
X0246959Y0149912D02*
X0213646Y0149912D01*
X0213646Y0150249D02*
X0209583Y0150249D01*
X0213646Y0150249D01*
X0209583Y0150249D02*
X0209583Y0150249D01*
X0209583Y0147099D02*
X0249984Y0147099D01*
X0250559Y0147674D01*
X0246959Y0144299D02*
X0246959Y0141534D01*
X0246481Y0141056D01*
X0243693Y0143843D01*
X0241822Y0143843D01*
X0241822Y0139043D01*
X0241422Y0139043D01*
X0241422Y0138643D01*
X0236622Y0138643D01*
X0236622Y0136772D01*
X0239410Y0133985D01*
X0236422Y0130997D01*
X0236422Y0127973D01*
X0228606Y0135756D01*
X0228216Y0136146D01*
X0228213Y0136147D01*
X0228211Y0136149D01*
X0227697Y0136361D01*
X0227187Y0136572D01*
X0227184Y0136572D01*
X0227181Y0136574D01*
X0226627Y0136572D01*
X0213115Y0136572D01*
X0212675Y0137013D01*
X0206490Y0137013D01*
X0205744Y0136266D01*
X0204998Y0137013D01*
X0198813Y0137013D01*
X0197642Y0135841D01*
X0197642Y0132849D01*
X0196389Y0132849D01*
X0195491Y0132477D01*
X0195491Y0138757D01*
X0197710Y0140976D01*
X0198173Y0140976D01*
X0198813Y0140335D01*
X0204998Y0140335D01*
X0205886Y0141223D01*
X0206214Y0140895D01*
X0206624Y0140658D01*
X0207082Y0140535D01*
X0209583Y0140535D01*
X0212083Y0140535D01*
X0212541Y0140658D01*
X0212952Y0140895D01*
X0213287Y0141230D01*
X0213524Y0141641D01*
X0213646Y0142098D01*
X0213646Y0143576D01*
X0213646Y0144299D01*
X0246959Y0144299D01*
X0246959Y0143518D02*
X0244019Y0143518D01*
X0241822Y0143518D02*
X0241422Y0143518D01*
X0241422Y0143843D02*
X0239551Y0143843D01*
X0236622Y0140914D01*
X0236622Y0139043D01*
X0241422Y0139043D01*
X0241422Y0143843D01*
X0241422Y0141919D02*
X0241822Y0141919D01*
X0241822Y0140321D02*
X0241422Y0140321D01*
X0241422Y0138722D02*
X0195491Y0138722D01*
X0195491Y0137124D02*
X0236622Y0137124D01*
X0237869Y0135525D02*
X0228838Y0135525D01*
X0230443Y0133927D02*
X0239352Y0133927D01*
X0237753Y0132328D02*
X0232048Y0132328D01*
X0233654Y0130730D02*
X0236422Y0130730D01*
X0236422Y0129131D02*
X0235259Y0129131D01*
X0230533Y0125934D02*
X0227158Y0125934D01*
X0227037Y0126227D02*
X0225911Y0127352D01*
X0224441Y0127961D01*
X0223323Y0127961D01*
X0221981Y0129303D01*
X0221025Y0129699D01*
X0213646Y0129699D01*
X0213646Y0130249D01*
X0213646Y0130972D01*
X0225474Y0130972D01*
X0236422Y0120070D01*
X0236422Y0116689D01*
X0236503Y0116609D01*
X0233675Y0116609D01*
X0230406Y0119878D01*
X0229450Y0120274D01*
X0225196Y0120274D01*
X0225911Y0120570D01*
X0227037Y0121696D01*
X0227646Y0123166D01*
X0227646Y0124757D01*
X0227037Y0126227D01*
X0227646Y0124336D02*
X0232138Y0124336D01*
X0233744Y0122737D02*
X0227468Y0122737D01*
X0226480Y0121139D02*
X0235349Y0121139D01*
X0236422Y0119540D02*
X0230744Y0119540D01*
X0232342Y0117942D02*
X0236422Y0117942D01*
X0241622Y0118843D02*
X0226630Y0133772D01*
X0209583Y0133772D01*
X0209583Y0130249D02*
X0213646Y0130249D01*
X0209583Y0130249D01*
X0209583Y0130249D01*
X0213646Y0130730D02*
X0225717Y0130730D01*
X0227323Y0129131D02*
X0222153Y0129131D01*
X0225476Y0127533D02*
X0228928Y0127533D01*
X0219646Y0123166D02*
X0220255Y0121696D01*
X0221380Y0120570D01*
X0222095Y0120274D01*
X0195608Y0120274D01*
X0196310Y0120976D01*
X0198173Y0120976D01*
X0198813Y0120335D01*
X0204998Y0120335D01*
X0205886Y0121223D01*
X0206214Y0120895D01*
X0206624Y0120658D01*
X0207082Y0120535D01*
X0209583Y0120535D01*
X0212083Y0120535D01*
X0212541Y0120658D01*
X0212952Y0120895D01*
X0213287Y0121230D01*
X0213524Y0121641D01*
X0213646Y0122098D01*
X0213646Y0123576D01*
X0213646Y0124499D01*
X0219431Y0124499D01*
X0219646Y0124284D01*
X0219646Y0123166D01*
X0219823Y0122737D02*
X0213646Y0122737D01*
X0213646Y0123576D02*
X0209583Y0123576D01*
X0213646Y0123576D01*
X0213646Y0124336D02*
X0219594Y0124336D01*
X0220812Y0121139D02*
X0213195Y0121139D01*
X0209583Y0121139D02*
X0209583Y0121139D01*
X0209583Y0120535D02*
X0209583Y0123575D01*
X0209583Y0123575D01*
X0209583Y0123576D02*
X0209583Y0123576D01*
X0209583Y0123575D02*
X0209583Y0120535D01*
X0209583Y0122737D02*
X0209583Y0122737D01*
X0205970Y0121139D02*
X0205801Y0121139D01*
X0204988Y0115074D02*
X0206700Y0115074D01*
X0206700Y0113252D01*
X0211072Y0113252D01*
X0211072Y0112096D01*
X0212228Y0112096D01*
X0212228Y0113252D01*
X0216599Y0113252D01*
X0216599Y0115074D01*
X0227856Y0115074D01*
X0230394Y0112536D01*
X0231126Y0111804D01*
X0232081Y0111409D01*
X0236834Y0111409D01*
X0236422Y0110997D01*
X0236422Y0106689D01*
X0236503Y0106609D01*
X0213059Y0106609D01*
X0213059Y0106668D01*
X0211887Y0107839D01*
X0206294Y0107839D01*
X0205744Y0107290D01*
X0205195Y0107839D01*
X0199601Y0107839D01*
X0198997Y0107236D01*
X0197940Y0107674D01*
X0196348Y0107674D01*
X0194878Y0107065D01*
X0193753Y0105940D01*
X0193144Y0104470D01*
X0193144Y0102878D01*
X0193753Y0101408D01*
X0193844Y0101317D01*
X0183408Y0101317D01*
X0184166Y0101631D01*
X0192568Y0110034D01*
X0194689Y0110034D01*
X0194689Y0109090D01*
X0195861Y0107918D01*
X0203817Y0107918D01*
X0204988Y0109090D01*
X0204988Y0115074D01*
X0204988Y0114745D02*
X0206700Y0114745D01*
X0204988Y0113146D02*
X0211072Y0113146D01*
X0211072Y0112096D02*
X0206700Y0112096D01*
X0206700Y0109681D01*
X0206823Y0109223D01*
X0207060Y0108813D01*
X0207395Y0108478D01*
X0207805Y0108241D01*
X0208263Y0108118D01*
X0211072Y0108118D01*
X0211072Y0112096D01*
X0211072Y0111548D02*
X0212228Y0111548D01*
X0212228Y0112096D02*
X0212228Y0108118D01*
X0215036Y0108118D01*
X0215494Y0108241D01*
X0215904Y0108478D01*
X0216240Y0108813D01*
X0216477Y0109223D01*
X0216599Y0109681D01*
X0216599Y0112096D01*
X0212228Y0112096D01*
X0212228Y0113146D02*
X0229784Y0113146D01*
X0228185Y0114745D02*
X0216599Y0114745D01*
X0216599Y0111548D02*
X0231746Y0111548D01*
X0236422Y0109949D02*
X0216599Y0109949D01*
X0215684Y0108351D02*
X0236422Y0108351D01*
X0236422Y0106752D02*
X0212975Y0106752D01*
X0212228Y0108351D02*
X0211072Y0108351D01*
X0211072Y0109949D02*
X0212228Y0109949D01*
X0207615Y0108351D02*
X0204249Y0108351D01*
X0204988Y0109949D02*
X0206700Y0109949D01*
X0206700Y0111548D02*
X0204988Y0111548D01*
X0195428Y0108351D02*
X0190885Y0108351D01*
X0192484Y0109949D02*
X0194689Y0109949D01*
X0194565Y0106752D02*
X0189287Y0106752D01*
X0187688Y0105154D02*
X0193427Y0105154D01*
X0193144Y0103555D02*
X0186089Y0103555D01*
X0184491Y0101957D02*
X0193526Y0101957D01*
X0206255Y0097161D02*
X0225149Y0097161D01*
X0225059Y0098760D02*
X0207853Y0098760D01*
X0212737Y0100358D02*
X0225634Y0100358D01*
X0226014Y0095563D02*
X0222435Y0095563D01*
X0224737Y0093964D02*
X0229592Y0093964D01*
X0231191Y0092365D02*
X0225370Y0092365D01*
X0230370Y0085971D02*
X0278087Y0085971D01*
X0278087Y0084373D02*
X0233328Y0084373D01*
X0234244Y0082774D02*
X0278087Y0082774D01*
X0278087Y0081176D02*
X0234370Y0081176D01*
X0233831Y0079577D02*
X0278087Y0079577D01*
X0278087Y0077979D02*
X0238270Y0077979D01*
X0243154Y0076380D02*
X0278087Y0076380D01*
X0259721Y0074782D02*
X0250765Y0074782D01*
X0250806Y0073183D02*
X0256510Y0073183D01*
X0254678Y0071585D02*
X0250806Y0071585D01*
X0250806Y0072240D02*
X0250806Y0070219D01*
X0250683Y0069761D01*
X0250446Y0069350D01*
X0250111Y0069015D01*
X0249701Y0068778D01*
X0249243Y0068656D01*
X0247025Y0068656D01*
X0247025Y0072240D01*
X0250806Y0072240D01*
X0250744Y0069986D02*
X0253285Y0069986D01*
X0252258Y0068388D02*
X0238244Y0068388D01*
X0238207Y0066789D02*
X0251473Y0066789D01*
X0250911Y0065191D02*
X0241384Y0065191D01*
X0242193Y0063592D02*
X0250635Y0063592D01*
X0250528Y0061994D02*
X0242244Y0061994D01*
X0241622Y0060395D02*
X0250528Y0060395D01*
X0250528Y0058797D02*
X0239336Y0058797D01*
X0237152Y0058797D02*
X0230849Y0058797D01*
X0231031Y0060395D02*
X0234866Y0060395D01*
X0246656Y0069986D02*
X0247025Y0069986D01*
X0247025Y0071585D02*
X0246656Y0071585D01*
X0246656Y0073183D02*
X0247025Y0073183D01*
X0247025Y0074782D02*
X0246656Y0074782D01*
X0172088Y0121139D02*
X0170573Y0121139D01*
X0171249Y0127533D02*
X0181426Y0127533D01*
X0195491Y0133927D02*
X0197642Y0133927D01*
X0197642Y0135525D02*
X0195491Y0135525D01*
X0197055Y0140321D02*
X0236622Y0140321D01*
X0237627Y0141919D02*
X0213598Y0141919D01*
X0213646Y0143518D02*
X0239226Y0143518D01*
X0245617Y0141919D02*
X0246959Y0141919D01*
X0213646Y0143576D02*
X0209583Y0143576D01*
X0213646Y0143576D01*
X0209583Y0143576D02*
X0209583Y0143576D01*
X0209583Y0143575D02*
X0209583Y0140535D01*
X0209583Y0143575D01*
X0209583Y0143575D01*
X0209583Y0143518D02*
X0209583Y0143518D01*
X0209583Y0141919D02*
X0209583Y0141919D01*
X0197642Y0153109D02*
X0191487Y0153109D01*
X0191513Y0154707D02*
X0197642Y0154707D01*
X0198107Y0156306D02*
X0191513Y0156306D01*
X0191513Y0155789D02*
X0191513Y0158007D01*
X0191390Y0158465D01*
X0191153Y0158876D01*
X0190818Y0159211D01*
X0190407Y0159448D01*
X0189950Y0159570D01*
X0187928Y0159570D01*
X0187928Y0155789D01*
X0191513Y0155789D01*
X0191513Y0157904D02*
X0215322Y0157904D01*
X0216850Y0159503D02*
X0190201Y0159503D01*
X0187928Y0159503D02*
X0187560Y0159503D01*
X0187560Y0159570D02*
X0185539Y0159570D01*
X0185081Y0159448D01*
X0184670Y0159211D01*
X0184335Y0158876D01*
X0184098Y0158465D01*
X0183976Y0158007D01*
X0183976Y0155789D01*
X0187560Y0155789D01*
X0187560Y0159570D01*
X0187560Y0157904D02*
X0187928Y0157904D01*
X0187928Y0156306D02*
X0187560Y0156306D01*
X0183976Y0156306D02*
X0179713Y0156306D01*
X0179713Y0157904D02*
X0183976Y0157904D01*
X0185287Y0159503D02*
X0179344Y0159503D01*
X0179713Y0154707D02*
X0183976Y0154707D01*
X0184001Y0153109D02*
X0179713Y0153109D01*
X0179460Y0151510D02*
X0183776Y0151510D01*
X0183776Y0149912D02*
X0179513Y0149912D01*
X0179513Y0148313D02*
X0183776Y0148313D01*
X0183776Y0146715D02*
X0179513Y0146715D01*
X0178489Y0145116D02*
X0184578Y0145116D01*
X0175928Y0145116D02*
X0175560Y0145116D01*
X0175560Y0146715D02*
X0175928Y0146715D01*
X0175928Y0148313D02*
X0175560Y0148313D01*
X0191713Y0151510D02*
X0193091Y0151510D01*
X0205704Y0156306D02*
X0205784Y0156306D01*
X0152696Y0153109D02*
X0147835Y0153109D01*
X0147835Y0154707D02*
X0152216Y0154707D01*
X0151891Y0156306D02*
X0147835Y0156306D01*
X0147835Y0157904D02*
X0151891Y0157904D01*
X0151891Y0159503D02*
X0146931Y0159503D01*
X0147582Y0151510D02*
X0152696Y0151510D01*
X0152496Y0149912D02*
X0147635Y0149912D01*
X0147635Y0148313D02*
X0152496Y0148313D01*
X0152496Y0146715D02*
X0147635Y0146715D01*
X0154258Y0129131D02*
X0140143Y0129131D01*
X0138345Y0129131D02*
X0104871Y0129131D01*
X0106469Y0127533D02*
X0135946Y0127533D01*
X0135244Y0125934D02*
X0131775Y0125934D01*
X0131888Y0124336D02*
X0135262Y0124336D01*
X0136024Y0122737D02*
X0131888Y0122737D01*
X0131888Y0121139D02*
X0143100Y0121139D01*
X0143100Y0119540D02*
X0131888Y0119540D01*
X0138512Y0117942D02*
X0143100Y0117942D01*
X0143100Y0116343D02*
X0140110Y0116343D01*
X0141507Y0114745D02*
X0143100Y0114745D01*
X0143100Y0113146D02*
X0141744Y0113146D01*
X0141744Y0111548D02*
X0143300Y0111548D01*
X0143320Y0109949D02*
X0141744Y0109949D01*
X0141744Y0108351D02*
X0143300Y0108351D01*
X0143300Y0106752D02*
X0141744Y0106752D01*
X0141744Y0105154D02*
X0143100Y0105154D01*
X0147850Y0106752D02*
X0147850Y0106752D01*
X0147850Y0108351D02*
X0147850Y0108351D01*
X0147851Y0108953D02*
X0147851Y0108954D01*
X0152400Y0108954D01*
X0152400Y0109876D01*
X0152305Y0110233D01*
X0152400Y0110591D01*
X0152400Y0111472D01*
X0155270Y0111472D01*
X0157144Y0109597D01*
X0157144Y0096051D01*
X0155639Y0096674D01*
X0153849Y0096674D01*
X0152703Y0096199D01*
X0152600Y0096199D01*
X0152600Y0105349D01*
X0152400Y0105549D01*
X0152400Y0106394D01*
X0151555Y0106394D01*
X0151555Y0106395D01*
X0152400Y0106395D01*
X0152400Y0107316D01*
X0152305Y0107674D01*
X0152400Y0108032D01*
X0152400Y0108953D01*
X0147851Y0108953D01*
X0147850Y0109949D02*
X0147850Y0109949D01*
X0152381Y0109949D02*
X0156792Y0109949D01*
X0157144Y0108351D02*
X0152400Y0108351D01*
X0152400Y0106752D02*
X0157144Y0106752D01*
X0157144Y0105154D02*
X0152600Y0105154D01*
X0152600Y0103555D02*
X0157144Y0103555D01*
X0157144Y0101957D02*
X0152600Y0101957D01*
X0152600Y0100358D02*
X0157144Y0100358D01*
X0157144Y0098760D02*
X0152600Y0098760D01*
X0152600Y0097161D02*
X0157144Y0097161D01*
X0138165Y0101217D02*
X0136236Y0101217D01*
X0134058Y0103396D01*
X0133139Y0103776D01*
X0131888Y0103776D01*
X0131888Y0105349D01*
X0131688Y0105549D01*
X0131688Y0106394D01*
X0130842Y0106394D01*
X0130842Y0106394D01*
X0130842Y0106395D01*
X0131688Y0106395D01*
X0131688Y0107240D01*
X0131888Y0107440D01*
X0131888Y0114131D01*
X0135252Y0114131D01*
X0136744Y0112638D01*
X0136744Y0103177D01*
X0137125Y0102258D01*
X0138165Y0101217D01*
X0137426Y0101957D02*
X0135497Y0101957D01*
X0136744Y0103555D02*
X0133673Y0103555D01*
X0131888Y0105154D02*
X0136744Y0105154D01*
X0136744Y0106752D02*
X0131688Y0106752D01*
X0131888Y0108351D02*
X0136744Y0108351D01*
X0136744Y0109949D02*
X0131888Y0109949D01*
X0131888Y0111548D02*
X0136744Y0111548D01*
X0136236Y0113146D02*
X0131888Y0113146D01*
X0122388Y0114745D02*
X0107330Y0114745D01*
X0102900Y0116343D02*
X0122388Y0116343D01*
X0122388Y0117942D02*
X0103100Y0117942D01*
X0102900Y0116631D02*
X0102055Y0116631D01*
X0102055Y0116631D01*
X0102055Y0116631D01*
X0102900Y0116631D01*
X0104368Y0119540D02*
X0122388Y0119540D01*
X0122388Y0121139D02*
X0105973Y0121139D01*
X0107176Y0122737D02*
X0122388Y0122737D01*
X0122388Y0124336D02*
X0107291Y0124336D01*
X0107291Y0125934D02*
X0122501Y0125934D01*
X0142542Y0127533D02*
X0153176Y0127533D01*
X0123433Y0106394D02*
X0123433Y0106394D01*
X0086976Y0109949D02*
X0084046Y0109949D01*
X0085036Y0111548D02*
X0086776Y0111548D01*
X0086776Y0113146D02*
X0085036Y0113146D01*
X0085236Y0114745D02*
X0086776Y0114745D01*
X0076740Y0111548D02*
X0076740Y0111548D01*
X0076740Y0109949D02*
X0076740Y0109949D01*
X0069434Y0109949D02*
X0068307Y0109949D01*
X0068444Y0111548D02*
X0068052Y0111548D01*
X0068444Y0113146D02*
X0066905Y0113146D01*
X0062960Y0106752D02*
X0058983Y0106752D01*
X0066700Y0124336D02*
X0068141Y0124336D01*
X0068141Y0125934D02*
X0067967Y0125934D01*
X0067944Y0129131D02*
X0068444Y0129131D01*
X0068324Y0130730D02*
X0066605Y0130730D01*
X0046594Y0141919D02*
X0045866Y0141919D01*
X0108288Y0141919D02*
X0109444Y0141919D01*
X0109444Y0143518D02*
X0108288Y0143518D01*
X0108288Y0145116D02*
X0109444Y0145116D01*
D30*
X0129862Y0155999D02*
X0133518Y0155999D01*
X0136991Y0156009D01*
X0143866Y0156009D01*
X0167094Y0155999D02*
X0175350Y0155999D01*
X0175744Y0155605D02*
X0175744Y0163174D01*
X0181244Y0168674D01*
X0197016Y0168674D01*
X0219244Y0168674D01*
X0245191Y0168674D01*
X0250559Y0163306D01*
X0250559Y0147674D01*
X0250559Y0139843D01*
X0251622Y0138843D01*
X0155004Y0091914D02*
X0155004Y0087643D01*
X0155004Y0082761D01*
X0155004Y0068564D01*
X0151976Y0065536D01*
X0151976Y0059788D01*
X0067244Y0154424D02*
X0066984Y0154684D01*
D31*
X0067244Y0154424D02*
X0067504Y0154684D01*
X0067244Y0154424D02*
X0066991Y0154171D01*
X0066991Y0150384D01*
X0068857Y0148519D01*
X0073748Y0148519D01*
X0083984Y0148519D02*
X0087626Y0148519D01*
X0088241Y0149134D01*
X0088241Y0156009D01*
X0088231Y0155999D01*
X0143591Y0156174D02*
X0143701Y0156174D01*
X0143866Y0156009D01*
X0175350Y0155999D02*
X0175744Y0155605D01*
X0209583Y0153772D02*
X0216630Y0153772D01*
X0218866Y0156009D01*
D32*
X0143866Y0155605D02*
X0143591Y0156174D01*
X0067244Y0154684D02*
X0067244Y0154424D01*
X0066984Y0154684D02*
X0058744Y0154684D01*
X0058866Y0155605D01*
X0154744Y0092174D02*
X0155004Y0091914D01*
D33*
X0154744Y0092174D03*
X0167744Y0124674D03*
X0136991Y0156009D03*
X0067244Y0154424D03*
M02*
