G75*
%MOIN*%
%OFA0B0*%
%FSLAX25Y25*%
%IPPOS*%
%LPD*%
%AMOC8*
5,1,8,0,0,1.08239X$1,22.5*
%
%ADD10R,0.04724X0.04724*%
%ADD11R,0.06400X0.06400*%
%ADD12OC8,0.06400*%
%ADD13C,0.04000*%
%ADD14C,0.04500*%
%ADD15C,0.01200*%
%ADD16C,0.02400*%
%ADD17C,0.03200*%
%ADD18C,0.05000*%
%ADD19C,0.01600*%
D10*
X0098787Y0181835D03*
X0107055Y0181835D03*
X0138157Y0181835D03*
X0146425Y0181835D03*
X0177528Y0181835D03*
X0185795Y0181835D03*
X0216898Y0181835D03*
X0225165Y0181835D03*
D11*
X0251622Y0098843D03*
X0141976Y0059788D03*
D12*
X0151976Y0059788D03*
X0161976Y0059788D03*
X0171976Y0059788D03*
X0181976Y0059788D03*
X0241622Y0098843D03*
X0241622Y0108843D03*
X0251622Y0108843D03*
X0251622Y0118843D03*
X0241622Y0118843D03*
X0241622Y0128843D03*
X0251622Y0128843D03*
X0251622Y0138843D03*
X0241622Y0138843D03*
D13*
X0223646Y0123961D03*
X0215933Y0122674D03*
X0227119Y0112674D03*
X0234159Y0118843D03*
X0266444Y0114149D03*
X0266644Y0134049D03*
X0266844Y0147574D03*
X0276150Y0160182D03*
X0238759Y0156774D03*
X0218866Y0156009D03*
X0211189Y0173780D03*
X0211189Y0181835D03*
X0234866Y0181835D03*
X0248591Y0187741D03*
X0187616Y0162884D03*
X0166366Y0173509D03*
X0171819Y0181835D03*
X0137119Y0162049D03*
X0125244Y0152674D03*
X0137119Y0148924D03*
X0150244Y0148924D03*
X0147244Y0137674D03*
X0139244Y0125174D03*
X0134744Y0110674D03*
X0117744Y0105674D03*
X0105744Y0105174D03*
X0104744Y0111674D03*
X0116744Y0120674D03*
X0100044Y0132674D03*
X0086366Y0138509D03*
X0078241Y0152259D03*
X0102244Y0161924D03*
X0113866Y0176009D03*
X0132449Y0175143D03*
X0132449Y0181835D03*
X0093079Y0181835D03*
X0075362Y0187741D03*
X0047803Y0160182D03*
X0115369Y0142674D03*
X0063551Y0116875D03*
X0085144Y0107774D03*
X0105744Y0096674D03*
X0113744Y0086174D03*
X0103244Y0083674D03*
X0097244Y0085674D03*
X0077144Y0091374D03*
X0063551Y0103095D03*
X0047803Y0077505D03*
X0075362Y0049946D03*
X0097016Y0065694D03*
X0110795Y0065694D03*
X0128866Y0082884D03*
X0135116Y0083509D03*
X0169744Y0103674D03*
X0154744Y0106674D03*
X0169244Y0115674D03*
X0197144Y0103674D03*
X0195244Y0094772D03*
X0189669Y0091249D03*
X0184244Y0087099D03*
X0172744Y0083174D03*
X0171244Y0088674D03*
X0189787Y0071068D03*
X0197244Y0071674D03*
X0198244Y0066674D03*
X0216244Y0066674D03*
X0219244Y0075174D03*
X0230370Y0081674D03*
X0226370Y0086674D03*
X0221370Y0091674D03*
X0229059Y0098174D03*
X0252544Y0081574D03*
X0260444Y0091474D03*
X0276150Y0077505D03*
X0238244Y0062674D03*
X0234244Y0067674D03*
X0248591Y0049946D03*
X0203866Y0056009D03*
X0197346Y0138324D03*
X0175741Y0142259D03*
D14*
X0224059Y0142674D03*
X0150116Y0072884D03*
D15*
X0073225Y0061085D02*
X0073225Y0047809D01*
X0250728Y0047809D01*
X0250728Y0061085D01*
X0250679Y0061141D01*
X0250728Y0061821D01*
X0250728Y0062502D01*
X0250780Y0062555D01*
X0250810Y0062968D01*
X0250730Y0063092D01*
X0250862Y0063694D01*
X0250906Y0064310D01*
X0251016Y0064406D01*
X0251120Y0064881D01*
X0251059Y0065015D01*
X0251275Y0065593D01*
X0251406Y0066195D01*
X0251529Y0066275D01*
X0251699Y0066731D01*
X0251658Y0066871D01*
X0251953Y0067413D01*
X0252169Y0067991D01*
X0252302Y0068052D01*
X0252536Y0068479D01*
X0252515Y0068624D01*
X0252884Y0069118D01*
X0253180Y0069659D01*
X0253321Y0069701D01*
X0253612Y0070090D01*
X0253612Y0070237D01*
X0254049Y0070673D01*
X0254418Y0071167D01*
X0254563Y0071188D01*
X0254908Y0071532D01*
X0254928Y0071677D01*
X0255422Y0072047D01*
X0255858Y0072483D01*
X0256005Y0072483D01*
X0256395Y0072775D01*
X0256436Y0072915D01*
X0256977Y0073211D01*
X0257471Y0073581D01*
X0257616Y0073560D01*
X0258044Y0073793D01*
X0258105Y0073926D01*
X0258682Y0074142D01*
X0259224Y0074438D01*
X0259364Y0074396D01*
X0259821Y0074566D01*
X0259900Y0074690D01*
X0260503Y0074821D01*
X0261081Y0075036D01*
X0261214Y0074975D01*
X0261690Y0075079D01*
X0261786Y0075190D01*
X0262401Y0075234D01*
X0263004Y0075365D01*
X0263127Y0075286D01*
X0263541Y0075315D01*
X0263593Y0075368D01*
X0264274Y0075368D01*
X0264954Y0075416D01*
X0265010Y0075368D01*
X0278287Y0075368D01*
X0278287Y0162319D01*
X0265010Y0162319D01*
X0264954Y0162270D01*
X0264274Y0162319D01*
X0263593Y0162319D01*
X0263541Y0162371D01*
X0263127Y0162401D01*
X0263004Y0162322D01*
X0262401Y0162453D01*
X0261786Y0162497D01*
X0261690Y0162608D01*
X0261214Y0162711D01*
X0261081Y0162650D01*
X0260503Y0162866D01*
X0259900Y0162997D01*
X0259821Y0163120D01*
X0259364Y0163290D01*
X0259224Y0163249D01*
X0258682Y0163545D01*
X0258105Y0163760D01*
X0258044Y0163894D01*
X0257616Y0164127D01*
X0257471Y0164106D01*
X0256977Y0164476D01*
X0256436Y0164771D01*
X0256395Y0164912D01*
X0256005Y0165204D01*
X0255858Y0165204D01*
X0255422Y0165640D01*
X0254928Y0166010D01*
X0254908Y0166155D01*
X0254563Y0166499D01*
X0254418Y0166520D01*
X0254049Y0167014D01*
X0253612Y0167450D01*
X0253612Y0167596D01*
X0253321Y0167986D01*
X0253180Y0168027D01*
X0252884Y0168569D01*
X0252515Y0169063D01*
X0252536Y0169208D01*
X0252302Y0169635D01*
X0252169Y0169696D01*
X0251953Y0170274D01*
X0251658Y0170815D01*
X0251699Y0170956D01*
X0251529Y0171412D01*
X0251406Y0171491D01*
X0251275Y0172094D01*
X0251059Y0172672D01*
X0251120Y0172805D01*
X0251016Y0173281D01*
X0250906Y0173377D01*
X0250862Y0173992D01*
X0250730Y0174595D01*
X0250810Y0174718D01*
X0250780Y0175132D01*
X0250728Y0175184D01*
X0250728Y0175866D01*
X0250679Y0176545D01*
X0250728Y0176601D01*
X0250728Y0189878D01*
X0073225Y0189878D01*
X0073225Y0176601D01*
X0073274Y0176545D01*
X0073225Y0175866D01*
X0073225Y0175184D01*
X0073173Y0175132D01*
X0073143Y0174718D01*
X0073222Y0174595D01*
X0073091Y0173992D01*
X0073047Y0173377D01*
X0072936Y0173281D01*
X0072833Y0172805D01*
X0072894Y0172672D01*
X0072678Y0172094D01*
X0072547Y0171491D01*
X0072424Y0171412D01*
X0072254Y0170956D01*
X0072295Y0170815D01*
X0071999Y0170274D01*
X0071784Y0169696D01*
X0071651Y0169635D01*
X0071417Y0169208D01*
X0071438Y0169063D01*
X0071068Y0168569D01*
X0070773Y0168027D01*
X0070632Y0167986D01*
X0070340Y0167596D01*
X0070340Y0167450D01*
X0069904Y0167014D01*
X0069535Y0166520D01*
X0069390Y0166499D01*
X0069045Y0166155D01*
X0069024Y0166010D01*
X0068530Y0165640D01*
X0068094Y0165204D01*
X0067948Y0165204D01*
X0067558Y0164912D01*
X0067517Y0164771D01*
X0066975Y0164476D01*
X0066482Y0164106D01*
X0066337Y0164127D01*
X0065909Y0163894D01*
X0065848Y0163760D01*
X0065270Y0163545D01*
X0064729Y0163249D01*
X0064588Y0163290D01*
X0064132Y0163120D01*
X0064053Y0162997D01*
X0063450Y0162866D01*
X0062872Y0162650D01*
X0062739Y0162711D01*
X0062263Y0162608D01*
X0062167Y0162497D01*
X0061552Y0162453D01*
X0060949Y0162322D01*
X0060826Y0162401D01*
X0060412Y0162371D01*
X0060360Y0162319D01*
X0059678Y0162319D01*
X0058999Y0162270D01*
X0058943Y0162319D01*
X0045666Y0162319D01*
X0045666Y0075368D01*
X0058943Y0075368D01*
X0058999Y0075416D01*
X0059678Y0075368D01*
X0060360Y0075368D01*
X0060412Y0075315D01*
X0060826Y0075286D01*
X0060949Y0075365D01*
X0061552Y0075234D01*
X0062167Y0075190D01*
X0062263Y0075079D01*
X0062739Y0074975D01*
X0062872Y0075036D01*
X0063450Y0074821D01*
X0064053Y0074690D01*
X0064132Y0074566D01*
X0064588Y0074396D01*
X0064729Y0074438D01*
X0065270Y0074142D01*
X0065848Y0073926D01*
X0065909Y0073793D01*
X0066337Y0073560D01*
X0066482Y0073581D01*
X0066975Y0073211D01*
X0067517Y0072915D01*
X0067558Y0072775D01*
X0067948Y0072483D01*
X0068094Y0072483D01*
X0068530Y0072047D01*
X0069024Y0071677D01*
X0069045Y0071532D01*
X0069390Y0071188D01*
X0069535Y0071167D01*
X0069904Y0070673D01*
X0070340Y0070237D01*
X0070340Y0070090D01*
X0070632Y0069701D01*
X0070773Y0069659D01*
X0071068Y0069118D01*
X0071438Y0068624D01*
X0071417Y0068479D01*
X0071651Y0068052D01*
X0071784Y0067991D01*
X0071999Y0067413D01*
X0072295Y0066871D01*
X0072254Y0066731D01*
X0072424Y0066275D01*
X0072547Y0066195D01*
X0072678Y0065593D01*
X0072894Y0065015D01*
X0072833Y0064881D01*
X0072936Y0064406D01*
X0073047Y0064310D01*
X0073091Y0063694D01*
X0073222Y0063092D01*
X0073143Y0062968D01*
X0073173Y0062555D01*
X0073225Y0062502D01*
X0073225Y0061821D01*
X0073274Y0061141D01*
X0073225Y0061085D01*
X0073242Y0061589D02*
X0136976Y0061589D01*
X0136976Y0060391D02*
X0073225Y0060391D01*
X0073225Y0059192D02*
X0136976Y0059192D01*
X0136976Y0057994D02*
X0073225Y0057994D01*
X0073225Y0056795D02*
X0136976Y0056795D01*
X0136976Y0055843D02*
X0138031Y0054788D01*
X0145922Y0054788D01*
X0146976Y0055843D01*
X0146976Y0063734D01*
X0145922Y0064788D01*
X0138031Y0064788D01*
X0136976Y0063734D01*
X0136976Y0055843D01*
X0137222Y0055597D02*
X0073225Y0055597D01*
X0073225Y0054398D02*
X0225126Y0054398D01*
X0225885Y0053639D02*
X0226767Y0053274D01*
X0239669Y0053274D01*
X0240551Y0053639D01*
X0248326Y0061415D01*
X0248691Y0062297D01*
X0248691Y0093843D01*
X0255568Y0093843D01*
X0256622Y0094898D01*
X0256622Y0102789D01*
X0255568Y0103843D01*
X0248691Y0103843D01*
X0248691Y0104703D01*
X0249551Y0103843D01*
X0253693Y0103843D01*
X0256622Y0106772D01*
X0256622Y0110914D01*
X0253693Y0113843D01*
X0249551Y0113843D01*
X0248691Y0112984D01*
X0248691Y0114102D01*
X0248694Y0114572D01*
X0248691Y0114580D01*
X0248691Y0114588D01*
X0248610Y0114784D01*
X0249551Y0113843D01*
X0253693Y0113843D01*
X0256622Y0116772D01*
X0256622Y0120914D01*
X0253693Y0123843D01*
X0249973Y0123843D01*
X0249973Y0123843D01*
X0253693Y0123843D01*
X0256622Y0126772D01*
X0256622Y0130914D01*
X0253693Y0133843D01*
X0249551Y0133843D01*
X0246622Y0130914D01*
X0243693Y0133843D01*
X0241415Y0133843D01*
X0241214Y0134043D01*
X0241222Y0134043D01*
X0241222Y0138443D01*
X0242022Y0138443D01*
X0242022Y0134043D01*
X0243610Y0134043D01*
X0246422Y0136855D01*
X0246422Y0138443D01*
X0242022Y0138443D01*
X0242022Y0139243D01*
X0246422Y0139243D01*
X0246422Y0140832D01*
X0243610Y0143643D01*
X0242022Y0143643D01*
X0242022Y0139243D01*
X0241222Y0139243D01*
X0241222Y0138443D01*
X0236822Y0138443D01*
X0236822Y0138409D01*
X0234391Y0140825D01*
X0234391Y0149560D01*
X0233874Y0150809D01*
X0226749Y0157935D01*
X0225792Y0158891D01*
X0224542Y0159409D01*
X0220588Y0159409D01*
X0219622Y0159809D01*
X0218110Y0159809D01*
X0217145Y0159409D01*
X0139672Y0159409D01*
X0139427Y0159654D01*
X0137847Y0160309D01*
X0136136Y0160309D01*
X0134556Y0159654D01*
X0133346Y0158444D01*
X0132691Y0156864D01*
X0132691Y0155153D01*
X0133346Y0153573D01*
X0134556Y0152363D01*
X0136136Y0151709D01*
X0137847Y0151709D01*
X0139427Y0152363D01*
X0139672Y0152609D01*
X0217145Y0152609D01*
X0218110Y0152209D01*
X0219622Y0152209D01*
X0220588Y0152609D01*
X0222458Y0152609D01*
X0227591Y0147475D01*
X0227591Y0140082D01*
X0227589Y0140077D01*
X0227591Y0139407D01*
X0227591Y0138735D01*
X0227593Y0138730D01*
X0227593Y0138725D01*
X0227852Y0138105D01*
X0228109Y0137485D01*
X0228113Y0137481D01*
X0228115Y0137477D01*
X0228592Y0137002D01*
X0229065Y0136529D01*
X0229070Y0136527D01*
X0236622Y0129020D01*
X0236622Y0126772D01*
X0236986Y0126409D01*
X0226572Y0126409D01*
X0225798Y0127183D01*
X0224402Y0127761D01*
X0222890Y0127761D01*
X0221493Y0127183D01*
X0220424Y0126114D01*
X0219846Y0124717D01*
X0219846Y0123206D01*
X0220424Y0121809D01*
X0221493Y0120740D01*
X0222890Y0120161D01*
X0224402Y0120161D01*
X0225798Y0120740D01*
X0226667Y0121609D01*
X0237316Y0121609D01*
X0236622Y0120914D01*
X0236622Y0116772D01*
X0239551Y0113843D01*
X0236951Y0111243D01*
X0208838Y0111243D01*
X0207955Y0110878D01*
X0207280Y0110203D01*
X0200944Y0103867D01*
X0200944Y0104430D01*
X0200366Y0105827D01*
X0199297Y0106895D01*
X0197900Y0107474D01*
X0196388Y0107474D01*
X0194992Y0106895D01*
X0194170Y0106074D01*
X0185767Y0106074D01*
X0184885Y0105709D01*
X0171650Y0092474D01*
X0170488Y0092474D01*
X0169092Y0091895D01*
X0168023Y0090827D01*
X0167444Y0089430D01*
X0167444Y0087918D01*
X0168023Y0086521D01*
X0169092Y0085453D01*
X0170488Y0084874D01*
X0172000Y0084874D01*
X0173397Y0085453D01*
X0174466Y0086521D01*
X0175044Y0087918D01*
X0175044Y0089080D01*
X0187238Y0101274D01*
X0194170Y0101274D01*
X0194992Y0100453D01*
X0196388Y0099874D01*
X0196952Y0099874D01*
X0195650Y0098572D01*
X0194488Y0098572D01*
X0193092Y0097994D01*
X0192023Y0096925D01*
X0191444Y0095528D01*
X0191444Y0094627D01*
X0190425Y0095049D01*
X0188913Y0095049D01*
X0187517Y0094470D01*
X0186448Y0093401D01*
X0185869Y0092005D01*
X0185869Y0090539D01*
X0185000Y0090899D01*
X0183488Y0090899D01*
X0182092Y0090321D01*
X0181023Y0089252D01*
X0180444Y0087855D01*
X0180444Y0086343D01*
X0181023Y0084947D01*
X0182092Y0083878D01*
X0183488Y0083299D01*
X0185000Y0083299D01*
X0186397Y0083878D01*
X0187218Y0084699D01*
X0196934Y0084699D01*
X0197816Y0085065D01*
X0198491Y0085740D01*
X0206026Y0093274D01*
X0217920Y0093274D01*
X0217570Y0092430D01*
X0217570Y0090918D01*
X0218149Y0089521D01*
X0218991Y0088679D01*
X0218991Y0085056D01*
X0219357Y0084174D01*
X0220032Y0083499D01*
X0221091Y0082440D01*
X0221091Y0078522D01*
X0220000Y0078974D01*
X0219121Y0078974D01*
X0218717Y0079378D01*
X0217761Y0079774D01*
X0131130Y0079774D01*
X0132088Y0080731D01*
X0132666Y0082128D01*
X0132666Y0083290D01*
X0141279Y0091902D01*
X0141644Y0092784D01*
X0141644Y0122200D01*
X0142466Y0123021D01*
X0143044Y0124418D01*
X0143044Y0125930D01*
X0142466Y0127327D01*
X0141397Y0128395D01*
X0140000Y0128974D01*
X0138488Y0128974D01*
X0137092Y0128395D01*
X0136023Y0127327D01*
X0135444Y0125930D01*
X0135444Y0124418D01*
X0136023Y0123021D01*
X0136844Y0122200D01*
X0136844Y0094256D01*
X0129272Y0086684D01*
X0128110Y0086684D01*
X0126714Y0086105D01*
X0125645Y0085036D01*
X0125066Y0083640D01*
X0125066Y0082128D01*
X0125645Y0080731D01*
X0126602Y0079774D01*
X0110821Y0079774D01*
X0107044Y0083551D01*
X0107044Y0084430D01*
X0106466Y0085827D01*
X0105397Y0086895D01*
X0104000Y0087474D01*
X0102488Y0087474D01*
X0101092Y0086895D01*
X0100023Y0085827D01*
X0099444Y0084430D01*
X0099444Y0082918D01*
X0100023Y0081521D01*
X0101092Y0080453D01*
X0102488Y0079874D01*
X0103367Y0079874D01*
X0107540Y0075701D01*
X0108167Y0075074D01*
X0080652Y0075074D01*
X0060691Y0095035D01*
X0060691Y0143063D01*
X0067752Y0150124D01*
X0068099Y0150124D01*
X0069680Y0150779D01*
X0070889Y0151988D01*
X0071544Y0153569D01*
X0071544Y0155279D01*
X0070889Y0156860D01*
X0069680Y0158069D01*
X0068099Y0158724D01*
X0066389Y0158724D01*
X0064808Y0158069D01*
X0063599Y0156860D01*
X0062944Y0155279D01*
X0062944Y0154932D01*
X0055365Y0147354D01*
X0054409Y0146397D01*
X0053891Y0145148D01*
X0053891Y0092950D01*
X0054409Y0091701D01*
X0055365Y0090744D01*
X0077318Y0068792D01*
X0078568Y0068274D01*
X0142600Y0068274D01*
X0147995Y0062878D01*
X0146976Y0061859D01*
X0146976Y0057717D01*
X0149905Y0054788D01*
X0154047Y0054788D01*
X0156976Y0057717D01*
X0156976Y0061859D01*
X0155376Y0063459D01*
X0155376Y0064382D01*
X0154859Y0065631D01*
X0153902Y0066588D01*
X0145934Y0074556D01*
X0145891Y0074574D01*
X0194770Y0074574D01*
X0194023Y0073827D01*
X0193444Y0072430D01*
X0193444Y0070918D01*
X0194023Y0069521D01*
X0194933Y0068611D01*
X0194444Y0067430D01*
X0194444Y0065918D01*
X0195023Y0064521D01*
X0196092Y0063453D01*
X0197488Y0062874D01*
X0199000Y0062874D01*
X0200397Y0063453D01*
X0201218Y0064274D01*
X0213270Y0064274D01*
X0214092Y0063453D01*
X0215488Y0062874D01*
X0216650Y0062874D01*
X0225885Y0053639D01*
X0227244Y0055674D02*
X0216244Y0066674D01*
X0198244Y0066674D01*
X0195558Y0063986D02*
X0184849Y0063986D01*
X0184047Y0064788D02*
X0179905Y0064788D01*
X0176976Y0061859D01*
X0174047Y0064788D01*
X0169905Y0064788D01*
X0166976Y0061859D01*
X0166976Y0057717D01*
X0169905Y0054788D01*
X0174047Y0054788D01*
X0176976Y0057717D01*
X0176976Y0061859D01*
X0176976Y0057717D01*
X0179905Y0054788D01*
X0184047Y0054788D01*
X0186976Y0057717D01*
X0186976Y0061859D01*
X0184047Y0064788D01*
X0186048Y0062788D02*
X0216736Y0062788D01*
X0217935Y0061589D02*
X0186976Y0061589D01*
X0186976Y0060391D02*
X0219133Y0060391D01*
X0220332Y0059192D02*
X0186976Y0059192D01*
X0186976Y0057994D02*
X0221530Y0057994D01*
X0222729Y0056795D02*
X0186055Y0056795D01*
X0184856Y0055597D02*
X0223927Y0055597D01*
X0227244Y0055674D02*
X0239191Y0055674D01*
X0246291Y0062774D01*
X0246291Y0114111D01*
X0241622Y0118843D01*
X0236622Y0119118D02*
X0166431Y0119118D01*
X0167629Y0120316D02*
X0222516Y0120316D01*
X0220718Y0121515D02*
X0170666Y0121515D01*
X0170180Y0121029D02*
X0171389Y0122238D01*
X0172044Y0123819D01*
X0172044Y0125529D01*
X0171389Y0127110D01*
X0170180Y0128319D01*
X0168599Y0128974D01*
X0166889Y0128974D01*
X0165308Y0128319D01*
X0164099Y0127110D01*
X0163444Y0125529D01*
X0163444Y0124617D01*
X0159201Y0120373D01*
X0158744Y0119271D01*
X0158744Y0100417D01*
X0154801Y0096474D01*
X0153889Y0096474D01*
X0152308Y0095819D01*
X0151099Y0094610D01*
X0150444Y0093029D01*
X0150444Y0091319D01*
X0151099Y0089738D01*
X0152308Y0088529D01*
X0153889Y0087874D01*
X0155599Y0087874D01*
X0157180Y0088529D01*
X0158389Y0089738D01*
X0159044Y0091319D01*
X0159044Y0092231D01*
X0163443Y0096631D01*
X0164287Y0097475D01*
X0164744Y0098577D01*
X0164744Y0117431D01*
X0167687Y0120374D01*
X0168599Y0120374D01*
X0170180Y0121029D01*
X0171586Y0122713D02*
X0220050Y0122713D01*
X0219846Y0123912D02*
X0172044Y0123912D01*
X0172044Y0125110D02*
X0220009Y0125110D01*
X0220619Y0126309D02*
X0171721Y0126309D01*
X0170992Y0127507D02*
X0222277Y0127507D01*
X0225015Y0127507D02*
X0236622Y0127507D01*
X0236622Y0128706D02*
X0169247Y0128706D01*
X0166242Y0128706D02*
X0140647Y0128706D01*
X0142285Y0127507D02*
X0164496Y0127507D01*
X0163767Y0126309D02*
X0142887Y0126309D01*
X0143044Y0125110D02*
X0163444Y0125110D01*
X0162739Y0123912D02*
X0142834Y0123912D01*
X0142157Y0122713D02*
X0161541Y0122713D01*
X0160342Y0121515D02*
X0141644Y0121515D01*
X0141644Y0120316D02*
X0159177Y0120316D01*
X0158744Y0119118D02*
X0141644Y0119118D01*
X0141644Y0117919D02*
X0158744Y0117919D01*
X0158744Y0116721D02*
X0141644Y0116721D01*
X0141644Y0115522D02*
X0158744Y0115522D01*
X0158744Y0114324D02*
X0141644Y0114324D01*
X0141644Y0113125D02*
X0158744Y0113125D01*
X0158744Y0111927D02*
X0141644Y0111927D01*
X0141644Y0110728D02*
X0158744Y0110728D01*
X0158744Y0109530D02*
X0141644Y0109530D01*
X0141644Y0108331D02*
X0158744Y0108331D01*
X0158744Y0107133D02*
X0141644Y0107133D01*
X0141644Y0105934D02*
X0158744Y0105934D01*
X0158744Y0104736D02*
X0141644Y0104736D01*
X0141644Y0103537D02*
X0158744Y0103537D01*
X0158744Y0102339D02*
X0141644Y0102339D01*
X0141644Y0101140D02*
X0158744Y0101140D01*
X0158269Y0099942D02*
X0141644Y0099942D01*
X0141644Y0098743D02*
X0157071Y0098743D01*
X0155872Y0097545D02*
X0141644Y0097545D01*
X0141644Y0096346D02*
X0153580Y0096346D01*
X0151637Y0095148D02*
X0141644Y0095148D01*
X0141644Y0093949D02*
X0150825Y0093949D01*
X0150444Y0092751D02*
X0141630Y0092751D01*
X0140928Y0091552D02*
X0150444Y0091552D01*
X0150844Y0090354D02*
X0139730Y0090354D01*
X0138531Y0089155D02*
X0151682Y0089155D01*
X0153689Y0087957D02*
X0137333Y0087957D01*
X0136134Y0086758D02*
X0167925Y0086758D01*
X0167444Y0087957D02*
X0155799Y0087957D01*
X0157806Y0089155D02*
X0167444Y0089155D01*
X0167827Y0090354D02*
X0158644Y0090354D01*
X0159044Y0091552D02*
X0168748Y0091552D01*
X0171927Y0092751D02*
X0159563Y0092751D01*
X0160762Y0093949D02*
X0173125Y0093949D01*
X0174324Y0095148D02*
X0161960Y0095148D01*
X0163159Y0096346D02*
X0175522Y0096346D01*
X0176721Y0097545D02*
X0164316Y0097545D01*
X0164744Y0098743D02*
X0177919Y0098743D01*
X0179118Y0099942D02*
X0164744Y0099942D01*
X0164744Y0101140D02*
X0180316Y0101140D01*
X0181515Y0102339D02*
X0164744Y0102339D01*
X0164744Y0103537D02*
X0182713Y0103537D01*
X0183912Y0104736D02*
X0164744Y0104736D01*
X0164744Y0105934D02*
X0185429Y0105934D01*
X0186244Y0103674D02*
X0171244Y0088674D01*
X0174564Y0086758D02*
X0180444Y0086758D01*
X0180486Y0087957D02*
X0175044Y0087957D01*
X0175119Y0089155D02*
X0180983Y0089155D01*
X0182171Y0090354D02*
X0176318Y0090354D01*
X0177516Y0091552D02*
X0185869Y0091552D01*
X0186178Y0092751D02*
X0178715Y0092751D01*
X0179913Y0093949D02*
X0186996Y0093949D01*
X0189669Y0091249D02*
X0190669Y0090249D01*
X0196106Y0090249D01*
X0204031Y0098174D01*
X0229059Y0098174D01*
X0223559Y0095674D02*
X0226559Y0092674D01*
X0235390Y0092674D01*
X0241622Y0098843D01*
X0248691Y0092751D02*
X0278287Y0092751D01*
X0278287Y0093949D02*
X0255673Y0093949D01*
X0256622Y0095148D02*
X0278287Y0095148D01*
X0278287Y0096346D02*
X0256622Y0096346D01*
X0256622Y0097545D02*
X0278287Y0097545D01*
X0278287Y0098743D02*
X0256622Y0098743D01*
X0256622Y0099942D02*
X0278287Y0099942D01*
X0278287Y0101140D02*
X0256622Y0101140D01*
X0256622Y0102339D02*
X0278287Y0102339D01*
X0278287Y0103537D02*
X0255874Y0103537D01*
X0254586Y0104736D02*
X0278287Y0104736D01*
X0278287Y0105934D02*
X0255784Y0105934D01*
X0256622Y0107133D02*
X0278287Y0107133D01*
X0278287Y0108331D02*
X0256622Y0108331D01*
X0256622Y0109530D02*
X0278287Y0109530D01*
X0278287Y0110728D02*
X0256622Y0110728D01*
X0255610Y0111927D02*
X0278287Y0111927D01*
X0278287Y0113125D02*
X0254411Y0113125D01*
X0254174Y0114324D02*
X0278287Y0114324D01*
X0278287Y0115522D02*
X0255372Y0115522D01*
X0256571Y0116721D02*
X0278287Y0116721D01*
X0278287Y0117919D02*
X0256622Y0117919D01*
X0256622Y0119118D02*
X0278287Y0119118D01*
X0278287Y0120316D02*
X0256622Y0120316D01*
X0256022Y0121515D02*
X0278287Y0121515D01*
X0278287Y0122713D02*
X0254823Y0122713D01*
X0253762Y0123912D02*
X0278287Y0123912D01*
X0278287Y0125110D02*
X0254960Y0125110D01*
X0256159Y0126309D02*
X0278287Y0126309D01*
X0278287Y0127507D02*
X0256622Y0127507D01*
X0256622Y0128706D02*
X0278287Y0128706D01*
X0278287Y0129904D02*
X0256622Y0129904D01*
X0256433Y0131103D02*
X0278287Y0131103D01*
X0278287Y0132301D02*
X0255235Y0132301D01*
X0254036Y0133500D02*
X0278287Y0133500D01*
X0278287Y0134698D02*
X0254548Y0134698D01*
X0253693Y0133843D02*
X0249551Y0133843D01*
X0246622Y0136772D01*
X0246622Y0140914D01*
X0249551Y0143843D01*
X0253693Y0143843D01*
X0256622Y0140914D01*
X0256622Y0136772D01*
X0253693Y0133843D01*
X0255747Y0135897D02*
X0278287Y0135897D01*
X0278287Y0137096D02*
X0256622Y0137096D01*
X0256622Y0138294D02*
X0278287Y0138294D01*
X0278287Y0139493D02*
X0256622Y0139493D01*
X0256622Y0140691D02*
X0278287Y0140691D01*
X0278287Y0141890D02*
X0255647Y0141890D01*
X0254448Y0143088D02*
X0278287Y0143088D01*
X0278287Y0144287D02*
X0234391Y0144287D01*
X0234391Y0145485D02*
X0278287Y0145485D01*
X0278287Y0146684D02*
X0234391Y0146684D01*
X0234391Y0147882D02*
X0278287Y0147882D01*
X0278287Y0149081D02*
X0234391Y0149081D01*
X0234093Y0150279D02*
X0278287Y0150279D01*
X0278287Y0151478D02*
X0233205Y0151478D01*
X0232007Y0152676D02*
X0278287Y0152676D01*
X0278287Y0153875D02*
X0230808Y0153875D01*
X0229610Y0155073D02*
X0278287Y0155073D01*
X0278287Y0156272D02*
X0228411Y0156272D01*
X0227213Y0157470D02*
X0278287Y0157470D01*
X0278287Y0158669D02*
X0226014Y0158669D01*
X0223589Y0151478D02*
X0113144Y0151478D01*
X0113144Y0152676D02*
X0134243Y0152676D01*
X0133221Y0153875D02*
X0113144Y0153875D01*
X0113144Y0155073D02*
X0132725Y0155073D01*
X0132691Y0156272D02*
X0113144Y0156272D01*
X0113144Y0157470D02*
X0132942Y0157470D01*
X0133570Y0158669D02*
X0113144Y0158669D01*
X0113144Y0159867D02*
X0135070Y0159867D01*
X0138912Y0159867D02*
X0278287Y0159867D01*
X0278287Y0161066D02*
X0114286Y0161066D01*
X0113144Y0159924D02*
X0125963Y0172743D01*
X0129475Y0172743D01*
X0130296Y0171921D01*
X0131693Y0171343D01*
X0133205Y0171343D01*
X0134601Y0171921D01*
X0135423Y0172743D01*
X0141981Y0172743D01*
X0142863Y0173108D01*
X0147429Y0177673D01*
X0149533Y0177673D01*
X0150587Y0178728D01*
X0150587Y0184943D01*
X0149533Y0185998D01*
X0143317Y0185998D01*
X0142291Y0184972D01*
X0141265Y0185998D01*
X0135050Y0185998D01*
X0134253Y0185201D01*
X0133205Y0185635D01*
X0131693Y0185635D01*
X0130296Y0185057D01*
X0129227Y0183988D01*
X0128649Y0182591D01*
X0128649Y0181080D01*
X0129227Y0179683D01*
X0130296Y0178614D01*
X0130598Y0178489D01*
X0130296Y0178364D01*
X0129475Y0177543D01*
X0124491Y0177543D01*
X0123609Y0177177D01*
X0122934Y0176502D01*
X0108709Y0162278D01*
X0108344Y0161395D01*
X0108344Y0138358D01*
X0104891Y0141811D01*
X0104891Y0155120D01*
X0104895Y0155129D01*
X0104891Y0155636D01*
X0104891Y0156144D01*
X0104887Y0156153D01*
X0104865Y0159171D01*
X0105466Y0159771D01*
X0106044Y0161168D01*
X0106044Y0162680D01*
X0105466Y0164077D01*
X0104397Y0165145D01*
X0103000Y0165724D01*
X0101488Y0165724D01*
X0100092Y0165145D01*
X0099023Y0164077D01*
X0098444Y0162680D01*
X0098444Y0161168D01*
X0099023Y0159771D01*
X0099665Y0159129D01*
X0099691Y0155617D01*
X0099691Y0140217D01*
X0100087Y0139261D01*
X0104791Y0134557D01*
X0104791Y0118011D01*
X0103271Y0116491D01*
X0102540Y0115759D01*
X0102144Y0114804D01*
X0102144Y0114448D01*
X0101523Y0113827D01*
X0100944Y0112430D01*
X0100944Y0110918D01*
X0101523Y0109521D01*
X0102592Y0108453D01*
X0103339Y0108143D01*
X0102523Y0107327D01*
X0101944Y0105930D01*
X0101944Y0104418D01*
X0102523Y0103021D01*
X0103592Y0101953D01*
X0104988Y0101374D01*
X0106500Y0101374D01*
X0107897Y0101953D01*
X0108966Y0103021D01*
X0109544Y0104418D01*
X0109544Y0105580D01*
X0112104Y0108139D01*
X0112779Y0108815D01*
X0113144Y0109697D01*
X0113144Y0159924D01*
X0110744Y0160918D02*
X0124969Y0175143D01*
X0132449Y0175143D01*
X0141504Y0175143D01*
X0146425Y0180064D01*
X0146425Y0181835D01*
X0150587Y0181440D02*
X0168019Y0181440D01*
X0168019Y0181080D02*
X0168597Y0179683D01*
X0169666Y0178614D01*
X0171063Y0178035D01*
X0172575Y0178035D01*
X0173623Y0178470D01*
X0174420Y0177673D01*
X0180635Y0177673D01*
X0181690Y0178728D01*
X0181690Y0184943D01*
X0180635Y0185998D01*
X0174420Y0185998D01*
X0173623Y0185201D01*
X0172575Y0185635D01*
X0171063Y0185635D01*
X0169666Y0185057D01*
X0168597Y0183988D01*
X0168019Y0182591D01*
X0168019Y0181080D01*
X0168366Y0180242D02*
X0150587Y0180242D01*
X0150587Y0179043D02*
X0169237Y0179043D01*
X0168039Y0182639D02*
X0150587Y0182639D01*
X0150587Y0183837D02*
X0168535Y0183837D01*
X0169645Y0185036D02*
X0150495Y0185036D01*
X0142356Y0185036D02*
X0142227Y0185036D01*
X0138157Y0181835D02*
X0132449Y0181835D01*
X0128996Y0180242D02*
X0111017Y0180242D01*
X0111017Y0179263D02*
X0111017Y0181254D01*
X0107636Y0181254D01*
X0107636Y0177873D01*
X0109628Y0177873D01*
X0110035Y0177982D01*
X0110400Y0178193D01*
X0110698Y0178491D01*
X0110908Y0178856D01*
X0111017Y0179263D01*
X0110959Y0179043D02*
X0129867Y0179043D01*
X0129777Y0177845D02*
X0102067Y0177845D01*
X0101895Y0177673D02*
X0102950Y0178728D01*
X0102950Y0184943D01*
X0101895Y0185998D01*
X0095680Y0185998D01*
X0094883Y0185201D01*
X0093835Y0185635D01*
X0092323Y0185635D01*
X0090926Y0185057D01*
X0089857Y0183988D01*
X0089279Y0182591D01*
X0089279Y0181080D01*
X0089857Y0179683D01*
X0090926Y0178614D01*
X0092323Y0178035D01*
X0093835Y0178035D01*
X0094883Y0178470D01*
X0095680Y0177673D01*
X0101895Y0177673D01*
X0103413Y0178491D02*
X0103710Y0178193D01*
X0104075Y0177982D01*
X0104482Y0177873D01*
X0106474Y0177873D01*
X0106474Y0181254D01*
X0107636Y0181254D01*
X0107636Y0182417D01*
X0106474Y0182417D01*
X0106474Y0185798D01*
X0104482Y0185798D01*
X0104075Y0185689D01*
X0103710Y0185478D01*
X0103413Y0185180D01*
X0103202Y0184815D01*
X0103093Y0184408D01*
X0103093Y0182417D01*
X0106474Y0182417D01*
X0106474Y0181254D01*
X0103093Y0181254D01*
X0103093Y0179263D01*
X0103202Y0178856D01*
X0103413Y0178491D01*
X0103152Y0179043D02*
X0102950Y0179043D01*
X0102950Y0180242D02*
X0103093Y0180242D01*
X0102950Y0181440D02*
X0106474Y0181440D01*
X0107636Y0181440D02*
X0128649Y0181440D01*
X0128669Y0182639D02*
X0111017Y0182639D01*
X0111017Y0182417D02*
X0111017Y0184408D01*
X0110908Y0184815D01*
X0110698Y0185180D01*
X0110400Y0185478D01*
X0110035Y0185689D01*
X0109628Y0185798D01*
X0107636Y0185798D01*
X0107636Y0182417D01*
X0111017Y0182417D01*
X0111017Y0183837D02*
X0129165Y0183837D01*
X0130275Y0185036D02*
X0110781Y0185036D01*
X0107636Y0185036D02*
X0106474Y0185036D01*
X0106474Y0183837D02*
X0107636Y0183837D01*
X0107636Y0182639D02*
X0106474Y0182639D01*
X0106474Y0180242D02*
X0107636Y0180242D01*
X0107636Y0179043D02*
X0106474Y0179043D01*
X0103093Y0182639D02*
X0102950Y0182639D01*
X0102950Y0183837D02*
X0103093Y0183837D01*
X0102857Y0185036D02*
X0103329Y0185036D01*
X0098787Y0181835D02*
X0093079Y0181835D01*
X0089626Y0180242D02*
X0073225Y0180242D01*
X0073225Y0181440D02*
X0089279Y0181440D01*
X0089298Y0182639D02*
X0073225Y0182639D01*
X0073225Y0183837D02*
X0089795Y0183837D01*
X0090905Y0185036D02*
X0073225Y0185036D01*
X0073225Y0186234D02*
X0250728Y0186234D01*
X0250728Y0185036D02*
X0228891Y0185036D01*
X0228808Y0185180D02*
X0228510Y0185478D01*
X0228145Y0185689D01*
X0227738Y0185798D01*
X0225746Y0185798D01*
X0225746Y0182417D01*
X0224584Y0182417D01*
X0224584Y0185798D01*
X0222592Y0185798D01*
X0222186Y0185689D01*
X0221821Y0185478D01*
X0221523Y0185180D01*
X0221312Y0184815D01*
X0221203Y0184408D01*
X0221203Y0182417D01*
X0224584Y0182417D01*
X0224584Y0181254D01*
X0225746Y0181254D01*
X0225746Y0177873D01*
X0227738Y0177873D01*
X0228145Y0177982D01*
X0228510Y0178193D01*
X0228808Y0178491D01*
X0229019Y0178856D01*
X0229128Y0179263D01*
X0229128Y0181254D01*
X0225747Y0181254D01*
X0225747Y0182417D01*
X0229128Y0182417D01*
X0229128Y0184408D01*
X0229019Y0184815D01*
X0228808Y0185180D01*
X0229128Y0183837D02*
X0250728Y0183837D01*
X0250728Y0182639D02*
X0229128Y0182639D01*
X0229128Y0180242D02*
X0250728Y0180242D01*
X0250728Y0181440D02*
X0225747Y0181440D01*
X0224584Y0181440D02*
X0221060Y0181440D01*
X0221203Y0181254D02*
X0221203Y0179263D01*
X0221312Y0178856D01*
X0221523Y0178491D01*
X0221821Y0178193D01*
X0222186Y0177982D01*
X0222592Y0177873D01*
X0224584Y0177873D01*
X0224584Y0181254D01*
X0221203Y0181254D01*
X0221203Y0180242D02*
X0221060Y0180242D01*
X0221060Y0179043D02*
X0221262Y0179043D01*
X0221060Y0178728D02*
X0221060Y0184943D01*
X0220005Y0185998D01*
X0213790Y0185998D01*
X0212993Y0185201D01*
X0211945Y0185635D01*
X0210433Y0185635D01*
X0209036Y0185057D01*
X0207967Y0183988D01*
X0207389Y0182591D01*
X0207389Y0181080D01*
X0207967Y0179683D01*
X0209036Y0178614D01*
X0210433Y0178035D01*
X0211945Y0178035D01*
X0212993Y0178470D01*
X0213790Y0177673D01*
X0220005Y0177673D01*
X0221060Y0178728D01*
X0220177Y0177845D02*
X0250728Y0177845D01*
X0250728Y0179043D02*
X0229069Y0179043D01*
X0225746Y0179043D02*
X0224584Y0179043D01*
X0224584Y0180242D02*
X0225746Y0180242D01*
X0225746Y0182639D02*
X0224584Y0182639D01*
X0224584Y0183837D02*
X0225746Y0183837D01*
X0225746Y0185036D02*
X0224584Y0185036D01*
X0221440Y0185036D02*
X0220967Y0185036D01*
X0221060Y0183837D02*
X0221203Y0183837D01*
X0221203Y0182639D02*
X0221060Y0182639D01*
X0216898Y0181835D02*
X0211189Y0181835D01*
X0207736Y0180242D02*
X0189757Y0180242D01*
X0189757Y0179263D02*
X0189757Y0181254D01*
X0186376Y0181254D01*
X0186376Y0177873D01*
X0188368Y0177873D01*
X0188775Y0177982D01*
X0189140Y0178193D01*
X0189438Y0178491D01*
X0189648Y0178856D01*
X0189757Y0179263D01*
X0189699Y0179043D02*
X0208607Y0179043D01*
X0207389Y0181440D02*
X0186376Y0181440D01*
X0186376Y0181254D02*
X0186376Y0182417D01*
X0185214Y0182417D01*
X0185214Y0185798D01*
X0183222Y0185798D01*
X0182815Y0185689D01*
X0182451Y0185478D01*
X0182153Y0185180D01*
X0181942Y0184815D01*
X0181833Y0184408D01*
X0181833Y0182417D01*
X0185214Y0182417D01*
X0185214Y0181254D01*
X0186376Y0181254D01*
X0186376Y0180242D02*
X0185214Y0180242D01*
X0185214Y0181254D02*
X0185214Y0177873D01*
X0183222Y0177873D01*
X0182815Y0177982D01*
X0182451Y0178193D01*
X0182153Y0178491D01*
X0181942Y0178856D01*
X0181833Y0179263D01*
X0181833Y0181254D01*
X0185214Y0181254D01*
X0185214Y0181440D02*
X0181690Y0181440D01*
X0181690Y0180242D02*
X0181833Y0180242D01*
X0181892Y0179043D02*
X0181690Y0179043D01*
X0180807Y0177845D02*
X0213618Y0177845D01*
X0207409Y0182639D02*
X0189757Y0182639D01*
X0189757Y0182417D02*
X0189757Y0184408D01*
X0189648Y0184815D01*
X0189438Y0185180D01*
X0189140Y0185478D01*
X0188775Y0185689D01*
X0188368Y0185798D01*
X0186376Y0185798D01*
X0186376Y0182417D01*
X0189757Y0182417D01*
X0189757Y0183837D02*
X0207905Y0183837D01*
X0209016Y0185036D02*
X0189521Y0185036D01*
X0186376Y0185036D02*
X0185214Y0185036D01*
X0185214Y0183837D02*
X0186376Y0183837D01*
X0186376Y0182639D02*
X0185214Y0182639D01*
X0181833Y0182639D02*
X0181690Y0182639D01*
X0181690Y0183837D02*
X0181833Y0183837D01*
X0181597Y0185036D02*
X0182070Y0185036D01*
X0177528Y0181835D02*
X0171819Y0181835D01*
X0174248Y0177845D02*
X0149705Y0177845D01*
X0146402Y0176646D02*
X0250728Y0176646D01*
X0250728Y0175448D02*
X0145203Y0175448D01*
X0144005Y0174249D02*
X0250806Y0174249D01*
X0251066Y0173051D02*
X0142726Y0173051D01*
X0134436Y0171852D02*
X0251327Y0171852D01*
X0251746Y0170654D02*
X0123874Y0170654D01*
X0125072Y0171852D02*
X0130462Y0171852D01*
X0122675Y0169455D02*
X0252400Y0169455D01*
X0253055Y0168257D02*
X0121477Y0168257D01*
X0120278Y0167058D02*
X0254004Y0167058D01*
X0255129Y0165860D02*
X0119080Y0165860D01*
X0117881Y0164661D02*
X0256638Y0164661D01*
X0258833Y0163463D02*
X0116683Y0163463D01*
X0115484Y0162264D02*
X0278287Y0162264D01*
X0248796Y0143088D02*
X0244165Y0143088D01*
X0245364Y0141890D02*
X0247597Y0141890D01*
X0246622Y0140691D02*
X0246422Y0140691D01*
X0246422Y0139493D02*
X0246622Y0139493D01*
X0246622Y0138294D02*
X0246422Y0138294D01*
X0246422Y0137096D02*
X0246622Y0137096D01*
X0247497Y0135897D02*
X0245464Y0135897D01*
X0244265Y0134698D02*
X0248696Y0134698D01*
X0249208Y0133500D02*
X0244036Y0133500D01*
X0245235Y0132301D02*
X0248009Y0132301D01*
X0246811Y0131103D02*
X0246433Y0131103D01*
X0246622Y0130914D02*
X0246622Y0127280D01*
X0246622Y0127280D01*
X0246622Y0130914D01*
X0246622Y0129904D02*
X0246622Y0129904D01*
X0246622Y0128706D02*
X0246622Y0128706D01*
X0246622Y0127507D02*
X0246622Y0127507D01*
X0246724Y0124009D02*
X0251622Y0128843D01*
X0246724Y0124009D02*
X0224386Y0124009D01*
X0223646Y0123961D01*
X0226573Y0121515D02*
X0237223Y0121515D01*
X0236622Y0120316D02*
X0224776Y0120316D01*
X0236622Y0117919D02*
X0165232Y0117919D01*
X0164744Y0116721D02*
X0236673Y0116721D01*
X0237872Y0115522D02*
X0164744Y0115522D01*
X0164744Y0114324D02*
X0239070Y0114324D01*
X0239551Y0113843D02*
X0243184Y0113843D01*
X0243184Y0113843D01*
X0239551Y0113843D01*
X0238833Y0113125D02*
X0164744Y0113125D01*
X0164744Y0111927D02*
X0237634Y0111927D01*
X0241622Y0108843D02*
X0209315Y0108843D01*
X0195244Y0094772D01*
X0192642Y0097545D02*
X0183509Y0097545D01*
X0184707Y0098743D02*
X0195821Y0098743D01*
X0196225Y0099942D02*
X0185906Y0099942D01*
X0187104Y0101140D02*
X0194304Y0101140D01*
X0197144Y0103674D02*
X0186244Y0103674D01*
X0195564Y0107133D02*
X0164744Y0107133D01*
X0164744Y0108331D02*
X0205409Y0108331D01*
X0204210Y0107133D02*
X0198724Y0107133D01*
X0200258Y0105934D02*
X0203012Y0105934D01*
X0201813Y0104736D02*
X0200817Y0104736D01*
X0206607Y0109530D02*
X0164744Y0109530D01*
X0164744Y0110728D02*
X0207806Y0110728D01*
X0205031Y0095674D02*
X0196457Y0087099D01*
X0184244Y0087099D01*
X0181608Y0084361D02*
X0133737Y0084361D01*
X0132666Y0083163D02*
X0220369Y0083163D01*
X0221091Y0081964D02*
X0132598Y0081964D01*
X0132102Y0080765D02*
X0221091Y0080765D01*
X0221091Y0079567D02*
X0218261Y0079567D01*
X0219279Y0084361D02*
X0186880Y0084361D01*
X0180769Y0085560D02*
X0173504Y0085560D01*
X0168985Y0085560D02*
X0134936Y0085560D01*
X0131743Y0089155D02*
X0066571Y0089155D01*
X0065373Y0090354D02*
X0132942Y0090354D01*
X0134140Y0091552D02*
X0064174Y0091552D01*
X0062976Y0092751D02*
X0135339Y0092751D01*
X0136537Y0093949D02*
X0061777Y0093949D01*
X0060691Y0095148D02*
X0136844Y0095148D01*
X0136844Y0096346D02*
X0060691Y0096346D01*
X0060691Y0097545D02*
X0136844Y0097545D01*
X0136844Y0098743D02*
X0060691Y0098743D01*
X0060691Y0099942D02*
X0136844Y0099942D01*
X0136844Y0101140D02*
X0060691Y0101140D01*
X0060691Y0102339D02*
X0103205Y0102339D01*
X0102309Y0103537D02*
X0060691Y0103537D01*
X0060691Y0104736D02*
X0101944Y0104736D01*
X0101946Y0105934D02*
X0060691Y0105934D01*
X0060691Y0107133D02*
X0062564Y0107133D01*
X0062512Y0107154D02*
X0063825Y0106610D01*
X0065246Y0106610D01*
X0066559Y0107154D01*
X0067563Y0108159D01*
X0068107Y0109471D01*
X0068107Y0110892D01*
X0067563Y0112205D01*
X0066559Y0113210D01*
X0065246Y0113754D01*
X0063825Y0113754D01*
X0062512Y0113210D01*
X0061508Y0112205D01*
X0060964Y0110892D01*
X0060964Y0109471D01*
X0061508Y0108159D01*
X0062512Y0107154D01*
X0061436Y0108331D02*
X0060691Y0108331D01*
X0060691Y0109530D02*
X0060964Y0109530D01*
X0060964Y0110728D02*
X0060691Y0110728D01*
X0060691Y0111927D02*
X0061392Y0111927D01*
X0060691Y0113125D02*
X0062428Y0113125D01*
X0060691Y0114324D02*
X0102020Y0114324D01*
X0102442Y0115522D02*
X0060691Y0115522D01*
X0060691Y0116721D02*
X0103501Y0116721D01*
X0104700Y0117919D02*
X0060691Y0117919D01*
X0060691Y0119118D02*
X0104791Y0119118D01*
X0104791Y0120316D02*
X0060691Y0120316D01*
X0060691Y0121515D02*
X0104791Y0121515D01*
X0104791Y0122713D02*
X0060691Y0122713D01*
X0060691Y0123912D02*
X0104791Y0123912D01*
X0104791Y0125110D02*
X0067192Y0125110D01*
X0067563Y0125482D02*
X0068107Y0126794D01*
X0068107Y0128215D01*
X0067563Y0129528D01*
X0066559Y0130533D01*
X0065246Y0131076D01*
X0063825Y0131076D01*
X0062512Y0130533D01*
X0061508Y0129528D01*
X0060964Y0128215D01*
X0060964Y0126794D01*
X0061508Y0125482D01*
X0062512Y0124477D01*
X0063825Y0123933D01*
X0065246Y0123933D01*
X0066559Y0124477D01*
X0067563Y0125482D01*
X0067906Y0126309D02*
X0104791Y0126309D01*
X0104791Y0127507D02*
X0068107Y0127507D01*
X0067904Y0128706D02*
X0104791Y0128706D01*
X0104791Y0129904D02*
X0067187Y0129904D01*
X0061884Y0129904D02*
X0060691Y0129904D01*
X0060691Y0128706D02*
X0061167Y0128706D01*
X0060964Y0127507D02*
X0060691Y0127507D01*
X0060691Y0126309D02*
X0061165Y0126309D01*
X0060691Y0125110D02*
X0061879Y0125110D01*
X0060691Y0131103D02*
X0104791Y0131103D01*
X0104791Y0132301D02*
X0060691Y0132301D01*
X0060691Y0133500D02*
X0104791Y0133500D01*
X0104650Y0134698D02*
X0060691Y0134698D01*
X0060691Y0135897D02*
X0103451Y0135897D01*
X0102253Y0137096D02*
X0060691Y0137096D01*
X0060691Y0138294D02*
X0101054Y0138294D01*
X0099991Y0139493D02*
X0060691Y0139493D01*
X0060691Y0140691D02*
X0099691Y0140691D01*
X0099691Y0141890D02*
X0060691Y0141890D01*
X0060716Y0143088D02*
X0099691Y0143088D01*
X0099691Y0144287D02*
X0061915Y0144287D01*
X0063113Y0145485D02*
X0099691Y0145485D01*
X0099691Y0146684D02*
X0064312Y0146684D01*
X0065511Y0147882D02*
X0099691Y0147882D01*
X0099691Y0149081D02*
X0066709Y0149081D01*
X0068474Y0150279D02*
X0099691Y0150279D01*
X0099691Y0151478D02*
X0070379Y0151478D01*
X0071174Y0152676D02*
X0099691Y0152676D01*
X0099691Y0153875D02*
X0071544Y0153875D01*
X0071544Y0155073D02*
X0099691Y0155073D01*
X0099686Y0156272D02*
X0071133Y0156272D01*
X0070279Y0157470D02*
X0099677Y0157470D01*
X0099668Y0158669D02*
X0068233Y0158669D01*
X0066255Y0158669D02*
X0045666Y0158669D01*
X0045666Y0159867D02*
X0098983Y0159867D01*
X0098487Y0161066D02*
X0045666Y0161066D01*
X0045666Y0162264D02*
X0098444Y0162264D01*
X0098768Y0163463D02*
X0065120Y0163463D01*
X0067315Y0164661D02*
X0099607Y0164661D01*
X0104881Y0164661D02*
X0111093Y0164661D01*
X0109895Y0163463D02*
X0105720Y0163463D01*
X0106044Y0162264D02*
X0108704Y0162264D01*
X0108344Y0161066D02*
X0106002Y0161066D01*
X0105505Y0159867D02*
X0108344Y0159867D01*
X0108344Y0158669D02*
X0104869Y0158669D01*
X0104878Y0157470D02*
X0108344Y0157470D01*
X0108344Y0156272D02*
X0104887Y0156272D01*
X0104891Y0155073D02*
X0108344Y0155073D01*
X0108344Y0153875D02*
X0104891Y0153875D01*
X0104891Y0152676D02*
X0108344Y0152676D01*
X0108344Y0151478D02*
X0104891Y0151478D01*
X0104891Y0150279D02*
X0108344Y0150279D01*
X0108344Y0149081D02*
X0104891Y0149081D01*
X0104891Y0147882D02*
X0108344Y0147882D01*
X0108344Y0146684D02*
X0104891Y0146684D01*
X0104891Y0145485D02*
X0108344Y0145485D01*
X0108344Y0144287D02*
X0104891Y0144287D01*
X0104891Y0143088D02*
X0108344Y0143088D01*
X0108344Y0141890D02*
X0104891Y0141890D01*
X0106011Y0140691D02*
X0108344Y0140691D01*
X0108344Y0139493D02*
X0107210Y0139493D01*
X0113144Y0139493D02*
X0227591Y0139493D01*
X0227591Y0140691D02*
X0113144Y0140691D01*
X0113144Y0141890D02*
X0227591Y0141890D01*
X0227591Y0143088D02*
X0113144Y0143088D01*
X0113144Y0144287D02*
X0227591Y0144287D01*
X0227591Y0145485D02*
X0113144Y0145485D01*
X0113144Y0146684D02*
X0227591Y0146684D01*
X0227184Y0147882D02*
X0113144Y0147882D01*
X0113144Y0149081D02*
X0225986Y0149081D01*
X0224787Y0150279D02*
X0113144Y0150279D01*
X0110744Y0160918D02*
X0110744Y0110174D01*
X0105744Y0105174D01*
X0109179Y0103537D02*
X0136844Y0103537D01*
X0136844Y0102339D02*
X0108283Y0102339D01*
X0109544Y0104736D02*
X0136844Y0104736D01*
X0136844Y0105934D02*
X0109898Y0105934D01*
X0111097Y0107133D02*
X0136844Y0107133D01*
X0136844Y0108331D02*
X0112295Y0108331D01*
X0113075Y0109530D02*
X0136844Y0109530D01*
X0136844Y0110728D02*
X0113144Y0110728D01*
X0113144Y0111927D02*
X0136844Y0111927D01*
X0136844Y0113125D02*
X0113144Y0113125D01*
X0113144Y0114324D02*
X0136844Y0114324D01*
X0136844Y0115522D02*
X0113144Y0115522D01*
X0113144Y0116721D02*
X0136844Y0116721D01*
X0136844Y0117919D02*
X0113144Y0117919D01*
X0113144Y0119118D02*
X0136844Y0119118D01*
X0136844Y0120316D02*
X0113144Y0120316D01*
X0113144Y0121515D02*
X0136844Y0121515D01*
X0136331Y0122713D02*
X0113144Y0122713D01*
X0113144Y0123912D02*
X0135654Y0123912D01*
X0135444Y0125110D02*
X0113144Y0125110D01*
X0113144Y0126309D02*
X0135601Y0126309D01*
X0136204Y0127507D02*
X0113144Y0127507D01*
X0113144Y0128706D02*
X0137841Y0128706D01*
X0139244Y0125174D02*
X0139244Y0093262D01*
X0128866Y0082884D01*
X0125365Y0084361D02*
X0107044Y0084361D01*
X0107433Y0083163D02*
X0125066Y0083163D01*
X0125134Y0081964D02*
X0108631Y0081964D01*
X0109830Y0080765D02*
X0125630Y0080765D01*
X0126168Y0085560D02*
X0106576Y0085560D01*
X0105534Y0086758D02*
X0129346Y0086758D01*
X0130545Y0087957D02*
X0067770Y0087957D01*
X0068968Y0086758D02*
X0100954Y0086758D01*
X0099912Y0085560D02*
X0070167Y0085560D01*
X0071365Y0084361D02*
X0099444Y0084361D01*
X0099444Y0083163D02*
X0072564Y0083163D01*
X0073762Y0081964D02*
X0099839Y0081964D01*
X0100779Y0080765D02*
X0074961Y0080765D01*
X0076159Y0079567D02*
X0103674Y0079567D01*
X0104873Y0078368D02*
X0077358Y0078368D01*
X0078556Y0077170D02*
X0106071Y0077170D01*
X0107270Y0075971D02*
X0079755Y0075971D01*
X0073734Y0072376D02*
X0068201Y0072376D01*
X0069461Y0071177D02*
X0074932Y0071177D01*
X0076131Y0069979D02*
X0070424Y0069979D01*
X0071321Y0068780D02*
X0077345Y0068780D01*
X0072383Y0066383D02*
X0144490Y0066383D01*
X0145689Y0065185D02*
X0072830Y0065185D01*
X0073070Y0063986D02*
X0137229Y0063986D01*
X0136976Y0062788D02*
X0073156Y0062788D01*
X0071936Y0067582D02*
X0143292Y0067582D01*
X0149313Y0071177D02*
X0193444Y0071177D01*
X0193444Y0072376D02*
X0148114Y0072376D01*
X0146916Y0073574D02*
X0193918Y0073574D01*
X0193833Y0069979D02*
X0150511Y0069979D01*
X0151710Y0068780D02*
X0194764Y0068780D01*
X0194507Y0067582D02*
X0152908Y0067582D01*
X0154107Y0066383D02*
X0194444Y0066383D01*
X0194748Y0065185D02*
X0155044Y0065185D01*
X0155376Y0063986D02*
X0159386Y0063986D01*
X0159988Y0064588D02*
X0157176Y0061776D01*
X0157176Y0060188D01*
X0161576Y0060188D01*
X0161576Y0059388D01*
X0157176Y0059388D01*
X0157176Y0057800D01*
X0159988Y0054988D01*
X0161576Y0054988D01*
X0161576Y0059388D01*
X0162376Y0059388D01*
X0162376Y0054988D01*
X0163965Y0054988D01*
X0166776Y0057800D01*
X0166776Y0059388D01*
X0162376Y0059388D01*
X0162376Y0060188D01*
X0161576Y0060188D01*
X0161576Y0064588D01*
X0159988Y0064588D01*
X0161576Y0063986D02*
X0162376Y0063986D01*
X0162376Y0064588D02*
X0162376Y0060188D01*
X0166776Y0060188D01*
X0166776Y0061776D01*
X0163965Y0064588D01*
X0162376Y0064588D01*
X0162376Y0062788D02*
X0161576Y0062788D01*
X0161576Y0061589D02*
X0162376Y0061589D01*
X0162376Y0060391D02*
X0161576Y0060391D01*
X0161576Y0059192D02*
X0162376Y0059192D01*
X0162376Y0057994D02*
X0161576Y0057994D01*
X0161576Y0056795D02*
X0162376Y0056795D01*
X0162376Y0055597D02*
X0161576Y0055597D01*
X0159380Y0055597D02*
X0154856Y0055597D01*
X0156055Y0056795D02*
X0158181Y0056795D01*
X0157176Y0057994D02*
X0156976Y0057994D01*
X0156976Y0059192D02*
X0157176Y0059192D01*
X0157176Y0060391D02*
X0156976Y0060391D01*
X0156976Y0061589D02*
X0157176Y0061589D01*
X0158188Y0062788D02*
X0156048Y0062788D01*
X0147905Y0062788D02*
X0146976Y0062788D01*
X0146976Y0061589D02*
X0146976Y0061589D01*
X0146976Y0060391D02*
X0146976Y0060391D01*
X0146976Y0059192D02*
X0146976Y0059192D01*
X0146976Y0057994D02*
X0146976Y0057994D01*
X0146976Y0056795D02*
X0147898Y0056795D01*
X0146731Y0055597D02*
X0149097Y0055597D01*
X0146887Y0063986D02*
X0146724Y0063986D01*
X0164566Y0063986D02*
X0169103Y0063986D01*
X0167905Y0062788D02*
X0165765Y0062788D01*
X0166776Y0061589D02*
X0166976Y0061589D01*
X0166976Y0060391D02*
X0166776Y0060391D01*
X0166776Y0059192D02*
X0166976Y0059192D01*
X0166976Y0057994D02*
X0166776Y0057994D01*
X0165772Y0056795D02*
X0167898Y0056795D01*
X0169097Y0055597D02*
X0164573Y0055597D01*
X0174856Y0055597D02*
X0179097Y0055597D01*
X0177898Y0056795D02*
X0176055Y0056795D01*
X0176976Y0057994D02*
X0176976Y0057994D01*
X0176976Y0059192D02*
X0176976Y0059192D01*
X0176976Y0060391D02*
X0176976Y0060391D01*
X0176976Y0061589D02*
X0176976Y0061589D01*
X0176048Y0062788D02*
X0177905Y0062788D01*
X0179103Y0063986D02*
X0174849Y0063986D01*
X0197244Y0071674D02*
X0198244Y0070674D01*
X0220931Y0070674D01*
X0223491Y0073234D01*
X0223491Y0083434D01*
X0221391Y0085534D01*
X0221391Y0091653D01*
X0221370Y0091674D01*
X0217570Y0091552D02*
X0204304Y0091552D01*
X0205502Y0092751D02*
X0217703Y0092751D01*
X0217804Y0090354D02*
X0203105Y0090354D01*
X0201907Y0089155D02*
X0218515Y0089155D01*
X0218991Y0087957D02*
X0200708Y0087957D01*
X0199510Y0086758D02*
X0218991Y0086758D01*
X0218991Y0085560D02*
X0198311Y0085560D01*
X0191444Y0095148D02*
X0181112Y0095148D01*
X0182310Y0096346D02*
X0191783Y0096346D01*
X0205031Y0095674D02*
X0223559Y0095674D01*
X0226370Y0086674D02*
X0226370Y0079455D01*
X0234244Y0071581D01*
X0234244Y0067674D01*
X0238244Y0062674D02*
X0238244Y0073800D01*
X0230370Y0081674D01*
X0248691Y0081964D02*
X0278287Y0081964D01*
X0278287Y0080765D02*
X0248691Y0080765D01*
X0248691Y0079567D02*
X0278287Y0079567D01*
X0278287Y0078368D02*
X0248691Y0078368D01*
X0248691Y0077170D02*
X0278287Y0077170D01*
X0278287Y0075971D02*
X0248691Y0075971D01*
X0248691Y0074773D02*
X0260283Y0074773D01*
X0257643Y0073574D02*
X0257514Y0073574D01*
X0257463Y0073574D02*
X0248691Y0073574D01*
X0248691Y0072376D02*
X0255751Y0072376D01*
X0254492Y0071177D02*
X0248691Y0071177D01*
X0248691Y0069979D02*
X0253529Y0069979D01*
X0252632Y0068780D02*
X0248691Y0068780D01*
X0248691Y0067582D02*
X0252016Y0067582D01*
X0251569Y0066383D02*
X0248691Y0066383D01*
X0248691Y0065185D02*
X0251122Y0065185D01*
X0250882Y0063986D02*
X0248691Y0063986D01*
X0248691Y0062788D02*
X0250797Y0062788D01*
X0250711Y0061589D02*
X0248398Y0061589D01*
X0247302Y0060391D02*
X0250728Y0060391D01*
X0250728Y0059192D02*
X0246104Y0059192D01*
X0244905Y0057994D02*
X0250728Y0057994D01*
X0250728Y0056795D02*
X0243707Y0056795D01*
X0242508Y0055597D02*
X0250728Y0055597D01*
X0250728Y0054398D02*
X0241310Y0054398D01*
X0250728Y0053200D02*
X0073225Y0053200D01*
X0073225Y0052001D02*
X0250728Y0052001D01*
X0250728Y0050803D02*
X0073225Y0050803D01*
X0073225Y0049604D02*
X0250728Y0049604D01*
X0250728Y0048406D02*
X0073225Y0048406D01*
X0072535Y0073574D02*
X0066490Y0073574D01*
X0066439Y0073574D02*
X0066310Y0073574D01*
X0063670Y0074773D02*
X0071337Y0074773D01*
X0070138Y0075971D02*
X0045666Y0075971D01*
X0045666Y0077170D02*
X0068940Y0077170D01*
X0067741Y0078368D02*
X0045666Y0078368D01*
X0045666Y0079567D02*
X0066543Y0079567D01*
X0065344Y0080765D02*
X0045666Y0080765D01*
X0045666Y0081964D02*
X0064146Y0081964D01*
X0062947Y0083163D02*
X0045666Y0083163D01*
X0045666Y0084361D02*
X0061749Y0084361D01*
X0060550Y0085560D02*
X0045666Y0085560D01*
X0045666Y0086758D02*
X0059352Y0086758D01*
X0058153Y0087957D02*
X0045666Y0087957D01*
X0045666Y0089155D02*
X0056955Y0089155D01*
X0055756Y0090354D02*
X0045666Y0090354D01*
X0045666Y0091552D02*
X0054558Y0091552D01*
X0053974Y0092751D02*
X0045666Y0092751D01*
X0045666Y0093949D02*
X0053891Y0093949D01*
X0053891Y0095148D02*
X0045666Y0095148D01*
X0045666Y0096346D02*
X0053891Y0096346D01*
X0053891Y0097545D02*
X0045666Y0097545D01*
X0045666Y0098743D02*
X0053891Y0098743D01*
X0053891Y0099942D02*
X0045666Y0099942D01*
X0045666Y0101140D02*
X0053891Y0101140D01*
X0053891Y0102339D02*
X0045666Y0102339D01*
X0045666Y0103537D02*
X0053891Y0103537D01*
X0053891Y0104736D02*
X0045666Y0104736D01*
X0045666Y0105934D02*
X0053891Y0105934D01*
X0053891Y0107133D02*
X0045666Y0107133D01*
X0045666Y0108331D02*
X0053891Y0108331D01*
X0053891Y0109530D02*
X0045666Y0109530D01*
X0045666Y0110728D02*
X0053891Y0110728D01*
X0053891Y0111927D02*
X0045666Y0111927D01*
X0045666Y0113125D02*
X0053891Y0113125D01*
X0053891Y0114324D02*
X0045666Y0114324D01*
X0045666Y0115522D02*
X0053891Y0115522D01*
X0053891Y0116721D02*
X0045666Y0116721D01*
X0045666Y0117919D02*
X0053891Y0117919D01*
X0053891Y0119118D02*
X0045666Y0119118D01*
X0045666Y0120316D02*
X0053891Y0120316D01*
X0053891Y0121515D02*
X0045666Y0121515D01*
X0045666Y0122713D02*
X0053891Y0122713D01*
X0053891Y0123912D02*
X0045666Y0123912D01*
X0045666Y0125110D02*
X0053891Y0125110D01*
X0053891Y0126309D02*
X0045666Y0126309D01*
X0045666Y0127507D02*
X0053891Y0127507D01*
X0053891Y0128706D02*
X0045666Y0128706D01*
X0045666Y0129904D02*
X0053891Y0129904D01*
X0053891Y0131103D02*
X0045666Y0131103D01*
X0045666Y0132301D02*
X0053891Y0132301D01*
X0053891Y0133500D02*
X0045666Y0133500D01*
X0045666Y0134698D02*
X0053891Y0134698D01*
X0053891Y0135897D02*
X0045666Y0135897D01*
X0045666Y0137096D02*
X0053891Y0137096D01*
X0053891Y0138294D02*
X0045666Y0138294D01*
X0045666Y0139493D02*
X0053891Y0139493D01*
X0053891Y0140691D02*
X0045666Y0140691D01*
X0045666Y0141890D02*
X0053891Y0141890D01*
X0053891Y0143088D02*
X0045666Y0143088D01*
X0045666Y0144287D02*
X0053891Y0144287D01*
X0054031Y0145485D02*
X0045666Y0145485D01*
X0045666Y0146684D02*
X0054695Y0146684D01*
X0055894Y0147882D02*
X0045666Y0147882D01*
X0045666Y0149081D02*
X0057092Y0149081D01*
X0058291Y0150279D02*
X0045666Y0150279D01*
X0045666Y0151478D02*
X0059489Y0151478D01*
X0060688Y0152676D02*
X0045666Y0152676D01*
X0045666Y0153875D02*
X0061886Y0153875D01*
X0062944Y0155073D02*
X0045666Y0155073D01*
X0045666Y0156272D02*
X0063355Y0156272D01*
X0064209Y0157470D02*
X0045666Y0157470D01*
X0068824Y0165860D02*
X0112292Y0165860D01*
X0113490Y0167058D02*
X0069949Y0167058D01*
X0070898Y0168257D02*
X0114689Y0168257D01*
X0115887Y0169455D02*
X0071552Y0169455D01*
X0072207Y0170654D02*
X0117086Y0170654D01*
X0118284Y0171852D02*
X0072626Y0171852D01*
X0072886Y0173051D02*
X0119483Y0173051D01*
X0120681Y0174249D02*
X0073147Y0174249D01*
X0073225Y0175448D02*
X0121880Y0175448D01*
X0123078Y0176646D02*
X0073225Y0176646D01*
X0073225Y0177845D02*
X0095508Y0177845D01*
X0090497Y0179043D02*
X0073225Y0179043D01*
X0073225Y0187433D02*
X0250728Y0187433D01*
X0250728Y0188632D02*
X0073225Y0188632D01*
X0073225Y0189830D02*
X0250728Y0189830D01*
X0186376Y0179043D02*
X0185214Y0179043D01*
X0236822Y0140832D02*
X0239634Y0143643D01*
X0241222Y0143643D01*
X0241222Y0139243D01*
X0236822Y0139243D01*
X0236822Y0140832D01*
X0236822Y0140691D02*
X0234526Y0140691D01*
X0234391Y0141890D02*
X0237880Y0141890D01*
X0239079Y0143088D02*
X0234391Y0143088D01*
X0235732Y0139493D02*
X0236822Y0139493D01*
X0241222Y0139493D02*
X0242022Y0139493D01*
X0242022Y0140691D02*
X0241222Y0140691D01*
X0241222Y0141890D02*
X0242022Y0141890D01*
X0242022Y0143088D02*
X0241222Y0143088D01*
X0241222Y0138294D02*
X0242022Y0138294D01*
X0242022Y0137096D02*
X0241222Y0137096D01*
X0241222Y0135897D02*
X0242022Y0135897D01*
X0242022Y0134698D02*
X0241222Y0134698D01*
X0234526Y0131103D02*
X0113144Y0131103D01*
X0113144Y0132301D02*
X0233321Y0132301D01*
X0232115Y0133500D02*
X0113144Y0133500D01*
X0113144Y0134698D02*
X0230909Y0134698D01*
X0229704Y0135897D02*
X0113144Y0135897D01*
X0113144Y0137096D02*
X0228498Y0137096D01*
X0227773Y0138294D02*
X0113144Y0138294D01*
X0113144Y0129904D02*
X0235732Y0129904D01*
X0248693Y0114324D02*
X0249070Y0114324D01*
X0248833Y0113125D02*
X0248691Y0113125D01*
X0248691Y0091552D02*
X0278287Y0091552D01*
X0278287Y0090354D02*
X0248691Y0090354D01*
X0248691Y0089155D02*
X0278287Y0089155D01*
X0278287Y0087957D02*
X0248691Y0087957D01*
X0248691Y0086758D02*
X0278287Y0086758D01*
X0278287Y0085560D02*
X0248691Y0085560D01*
X0248691Y0084361D02*
X0278287Y0084361D01*
X0278287Y0083163D02*
X0248691Y0083163D01*
X0213558Y0063986D02*
X0200930Y0063986D01*
X0107540Y0075701D02*
X0107540Y0075701D01*
X0102442Y0107133D02*
X0066507Y0107133D01*
X0067635Y0108331D02*
X0102884Y0108331D01*
X0101519Y0109530D02*
X0068107Y0109530D01*
X0068107Y0110728D02*
X0101023Y0110728D01*
X0100944Y0111927D02*
X0067679Y0111927D01*
X0066643Y0113125D02*
X0101232Y0113125D01*
D16*
X0154744Y0092174D02*
X0161744Y0099174D01*
X0161744Y0118674D01*
X0167744Y0124674D01*
D17*
X0136991Y0156009D02*
X0218866Y0156009D01*
X0223866Y0156009D01*
X0230991Y0148883D01*
X0230991Y0139411D01*
X0241622Y0128843D01*
X0151976Y0063706D02*
X0144008Y0071674D01*
X0079244Y0071674D01*
X0057291Y0093627D01*
X0057291Y0144471D01*
X0067244Y0154424D01*
X0151976Y0063706D02*
X0151976Y0059788D01*
D18*
X0154744Y0092174D03*
X0167744Y0124674D03*
X0136991Y0156009D03*
X0067244Y0154424D03*
D19*
X0102291Y0155627D02*
X0102291Y0140734D01*
X0107391Y0135634D01*
X0107391Y0116934D01*
X0104744Y0114287D01*
X0104744Y0111674D01*
X0103244Y0083674D02*
X0109744Y0077174D01*
X0217244Y0077174D01*
X0219244Y0075174D01*
X0102291Y0155627D02*
X0102244Y0161924D01*
M02*
