%
M48
M72
T01C0.02000
T02C0.02500
T03C0.03000
T04C0.03543
T05C0.04000
T06C0.12598
%
T01
X75362Y49946
X97016Y65694
X110795Y65694
X128866Y82884
X135116Y83509
X113744Y86174
X103244Y83674
X97244Y85674
X105744Y96674
X105744Y105174
X104744Y111674
X117744Y105674
X134744Y110674
X116744Y120674
X100044Y132674
X86366Y138509
X78241Y152259
X102244Y161924
X113866Y176009
X132449Y175143
X132449Y181835
X137119Y162049
X125244Y152674
X137119Y148924
X150244Y148924
X147244Y137674
X139244Y125174
X169244Y115674
X154744Y106674
X169744Y103674
X189669Y91249
X195244Y94772
X197144Y103674
X221370Y91674
X226370Y86674
X230370Y81674
X219244Y75174
X216244Y66674
X198244Y66674
X197244Y71674
X189787Y71068
X172744Y83174
X171244Y88674
X184244Y87099
X229059Y98174
X227119Y112674
X234159Y118843
X223646Y123961
X215933Y122674
X197346Y138324
X175741Y142259
X187616Y162884
X166366Y173509
X171819Y181835
X211189Y181835
X211189Y173780
X234866Y181835
X248591Y187741
X276150Y160182
X266844Y147574
X266644Y134049
X266444Y114149
X260444Y91474
X252544Y81574
X234244Y67674
X238244Y62674
X248591Y49946
X276150Y77505
X203866Y56009
X85144Y107774
X63551Y103095
X77144Y91374
X47803Y77505
X63551Y116875
X115369Y142674
X47803Y160182
X75362Y187741
X93079Y181835
X218866Y156009
X238759Y156774
T02
X224059Y142674
X150116Y72884
T03
X154744Y92174
X167744Y124674
X136991Y156009
X67244Y154424
T04
X64535Y127505
X64535Y110182
T05
X141976Y59788
X151976Y59788
X161976Y59788
X171976Y59788
X181976Y59788
X241622Y98843
X251622Y98843
X251622Y108843
X241622Y108843
X241622Y118843
X251622Y118843
X251622Y128843
X241622Y128843
X241622Y138843
X251622Y138843
T06
X264339Y175930
X264339Y61757
X59614Y61757
X59614Y175930
M30
